G04 #@! TF.GenerationSoftware,KiCad,Pcbnew,(5.1.4-0-10_14)*
G04 #@! TF.CreationDate,2019-10-01T19:19:35+02:00*
G04 #@! TF.ProjectId,APC,4150432e-6b69-4636-9164-5f7063625858,rev?*
G04 #@! TF.SameCoordinates,Original*
G04 #@! TF.FileFunction,Soldermask,Top*
G04 #@! TF.FilePolarity,Negative*
%FSLAX46Y46*%
G04 Gerber Fmt 4.6, Leading zero omitted, Abs format (unit mm)*
G04 Created by KiCad (PCBNEW (5.1.4-0-10_14)) date 2019-10-01 19:19:35*
%MOMM*%
%LPD*%
G04 APERTURE LIST*
%ADD10C,0.100000*%
G04 APERTURE END LIST*
D10*
G36*
X170160721Y-99470174D02*
G01*
X170260995Y-99511709D01*
X170260996Y-99511710D01*
X170351242Y-99572010D01*
X170427990Y-99648758D01*
X170427991Y-99648760D01*
X170488291Y-99739005D01*
X170529826Y-99839279D01*
X170551000Y-99945730D01*
X170551000Y-100054270D01*
X170529826Y-100160721D01*
X170488291Y-100260995D01*
X170488290Y-100260996D01*
X170427990Y-100351242D01*
X170351242Y-100427990D01*
X170305812Y-100458345D01*
X170260995Y-100488291D01*
X170160721Y-100529826D01*
X170054270Y-100551000D01*
X169945730Y-100551000D01*
X169839279Y-100529826D01*
X169739005Y-100488291D01*
X169694188Y-100458345D01*
X169648758Y-100427990D01*
X169572010Y-100351242D01*
X169511710Y-100260996D01*
X169511709Y-100260995D01*
X169470174Y-100160721D01*
X169449000Y-100054270D01*
X169449000Y-99945730D01*
X169470174Y-99839279D01*
X169511709Y-99739005D01*
X169572009Y-99648760D01*
X169572010Y-99648758D01*
X169648758Y-99572010D01*
X169739004Y-99511710D01*
X169739005Y-99511709D01*
X169839279Y-99470174D01*
X169945730Y-99449000D01*
X170054270Y-99449000D01*
X170160721Y-99470174D01*
X170160721Y-99470174D01*
G37*
G36*
X165160721Y-99470174D02*
G01*
X165260995Y-99511709D01*
X165260996Y-99511710D01*
X165351242Y-99572010D01*
X165427990Y-99648758D01*
X165427991Y-99648760D01*
X165488291Y-99739005D01*
X165529826Y-99839279D01*
X165551000Y-99945730D01*
X165551000Y-100054270D01*
X165529826Y-100160721D01*
X165488291Y-100260995D01*
X165488290Y-100260996D01*
X165427990Y-100351242D01*
X165351242Y-100427990D01*
X165305812Y-100458345D01*
X165260995Y-100488291D01*
X165160721Y-100529826D01*
X165054270Y-100551000D01*
X164945730Y-100551000D01*
X164839279Y-100529826D01*
X164739005Y-100488291D01*
X164694188Y-100458345D01*
X164648758Y-100427990D01*
X164572010Y-100351242D01*
X164511710Y-100260996D01*
X164511709Y-100260995D01*
X164470174Y-100160721D01*
X164449000Y-100054270D01*
X164449000Y-99945730D01*
X164470174Y-99839279D01*
X164511709Y-99739005D01*
X164572009Y-99648760D01*
X164572010Y-99648758D01*
X164648758Y-99572010D01*
X164739004Y-99511710D01*
X164739005Y-99511709D01*
X164839279Y-99470174D01*
X164945730Y-99449000D01*
X165054270Y-99449000D01*
X165160721Y-99470174D01*
X165160721Y-99470174D01*
G37*
G36*
X160160721Y-99470174D02*
G01*
X160260995Y-99511709D01*
X160260996Y-99511710D01*
X160351242Y-99572010D01*
X160427990Y-99648758D01*
X160427991Y-99648760D01*
X160488291Y-99739005D01*
X160529826Y-99839279D01*
X160551000Y-99945730D01*
X160551000Y-100054270D01*
X160529826Y-100160721D01*
X160488291Y-100260995D01*
X160488290Y-100260996D01*
X160427990Y-100351242D01*
X160351242Y-100427990D01*
X160305812Y-100458345D01*
X160260995Y-100488291D01*
X160160721Y-100529826D01*
X160054270Y-100551000D01*
X159945730Y-100551000D01*
X159839279Y-100529826D01*
X159739005Y-100488291D01*
X159694188Y-100458345D01*
X159648758Y-100427990D01*
X159572010Y-100351242D01*
X159511710Y-100260996D01*
X159511709Y-100260995D01*
X159470174Y-100160721D01*
X159449000Y-100054270D01*
X159449000Y-99945730D01*
X159470174Y-99839279D01*
X159511709Y-99739005D01*
X159572009Y-99648760D01*
X159572010Y-99648758D01*
X159648758Y-99572010D01*
X159739004Y-99511710D01*
X159739005Y-99511709D01*
X159839279Y-99470174D01*
X159945730Y-99449000D01*
X160054270Y-99449000D01*
X160160721Y-99470174D01*
X160160721Y-99470174D01*
G37*
G36*
X155160721Y-99470174D02*
G01*
X155260995Y-99511709D01*
X155260996Y-99511710D01*
X155351242Y-99572010D01*
X155427990Y-99648758D01*
X155427991Y-99648760D01*
X155488291Y-99739005D01*
X155529826Y-99839279D01*
X155551000Y-99945730D01*
X155551000Y-100054270D01*
X155529826Y-100160721D01*
X155488291Y-100260995D01*
X155488290Y-100260996D01*
X155427990Y-100351242D01*
X155351242Y-100427990D01*
X155305812Y-100458345D01*
X155260995Y-100488291D01*
X155160721Y-100529826D01*
X155054270Y-100551000D01*
X154945730Y-100551000D01*
X154839279Y-100529826D01*
X154739005Y-100488291D01*
X154694188Y-100458345D01*
X154648758Y-100427990D01*
X154572010Y-100351242D01*
X154511710Y-100260996D01*
X154511709Y-100260995D01*
X154470174Y-100160721D01*
X154449000Y-100054270D01*
X154449000Y-99945730D01*
X154470174Y-99839279D01*
X154511709Y-99739005D01*
X154572009Y-99648760D01*
X154572010Y-99648758D01*
X154648758Y-99572010D01*
X154739004Y-99511710D01*
X154739005Y-99511709D01*
X154839279Y-99470174D01*
X154945730Y-99449000D01*
X155054270Y-99449000D01*
X155160721Y-99470174D01*
X155160721Y-99470174D01*
G37*
G36*
X150160721Y-99470174D02*
G01*
X150260995Y-99511709D01*
X150260996Y-99511710D01*
X150351242Y-99572010D01*
X150427990Y-99648758D01*
X150427991Y-99648760D01*
X150488291Y-99739005D01*
X150529826Y-99839279D01*
X150551000Y-99945730D01*
X150551000Y-100054270D01*
X150529826Y-100160721D01*
X150488291Y-100260995D01*
X150488290Y-100260996D01*
X150427990Y-100351242D01*
X150351242Y-100427990D01*
X150305812Y-100458345D01*
X150260995Y-100488291D01*
X150160721Y-100529826D01*
X150054270Y-100551000D01*
X149945730Y-100551000D01*
X149839279Y-100529826D01*
X149739005Y-100488291D01*
X149694188Y-100458345D01*
X149648758Y-100427990D01*
X149572010Y-100351242D01*
X149511710Y-100260996D01*
X149511709Y-100260995D01*
X149470174Y-100160721D01*
X149449000Y-100054270D01*
X149449000Y-99945730D01*
X149470174Y-99839279D01*
X149511709Y-99739005D01*
X149572009Y-99648760D01*
X149572010Y-99648758D01*
X149648758Y-99572010D01*
X149739004Y-99511710D01*
X149739005Y-99511709D01*
X149839279Y-99470174D01*
X149945730Y-99449000D01*
X150054270Y-99449000D01*
X150160721Y-99470174D01*
X150160721Y-99470174D01*
G37*
G36*
X145160721Y-99470174D02*
G01*
X145260995Y-99511709D01*
X145260996Y-99511710D01*
X145351242Y-99572010D01*
X145427990Y-99648758D01*
X145427991Y-99648760D01*
X145488291Y-99739005D01*
X145529826Y-99839279D01*
X145551000Y-99945730D01*
X145551000Y-100054270D01*
X145529826Y-100160721D01*
X145488291Y-100260995D01*
X145488290Y-100260996D01*
X145427990Y-100351242D01*
X145351242Y-100427990D01*
X145305812Y-100458345D01*
X145260995Y-100488291D01*
X145160721Y-100529826D01*
X145054270Y-100551000D01*
X144945730Y-100551000D01*
X144839279Y-100529826D01*
X144739005Y-100488291D01*
X144694188Y-100458345D01*
X144648758Y-100427990D01*
X144572010Y-100351242D01*
X144511710Y-100260996D01*
X144511709Y-100260995D01*
X144470174Y-100160721D01*
X144449000Y-100054270D01*
X144449000Y-99945730D01*
X144470174Y-99839279D01*
X144511709Y-99739005D01*
X144572009Y-99648760D01*
X144572010Y-99648758D01*
X144648758Y-99572010D01*
X144739004Y-99511710D01*
X144739005Y-99511709D01*
X144839279Y-99470174D01*
X144945730Y-99449000D01*
X145054270Y-99449000D01*
X145160721Y-99470174D01*
X145160721Y-99470174D01*
G37*
G36*
X140160721Y-99470174D02*
G01*
X140260995Y-99511709D01*
X140260996Y-99511710D01*
X140351242Y-99572010D01*
X140427990Y-99648758D01*
X140427991Y-99648760D01*
X140488291Y-99739005D01*
X140529826Y-99839279D01*
X140551000Y-99945730D01*
X140551000Y-100054270D01*
X140529826Y-100160721D01*
X140488291Y-100260995D01*
X140488290Y-100260996D01*
X140427990Y-100351242D01*
X140351242Y-100427990D01*
X140305812Y-100458345D01*
X140260995Y-100488291D01*
X140160721Y-100529826D01*
X140054270Y-100551000D01*
X139945730Y-100551000D01*
X139839279Y-100529826D01*
X139739005Y-100488291D01*
X139694188Y-100458345D01*
X139648758Y-100427990D01*
X139572010Y-100351242D01*
X139511710Y-100260996D01*
X139511709Y-100260995D01*
X139470174Y-100160721D01*
X139449000Y-100054270D01*
X139449000Y-99945730D01*
X139470174Y-99839279D01*
X139511709Y-99739005D01*
X139572009Y-99648760D01*
X139572010Y-99648758D01*
X139648758Y-99572010D01*
X139739004Y-99511710D01*
X139739005Y-99511709D01*
X139839279Y-99470174D01*
X139945730Y-99449000D01*
X140054270Y-99449000D01*
X140160721Y-99470174D01*
X140160721Y-99470174D01*
G37*
G36*
X135160721Y-99470174D02*
G01*
X135260995Y-99511709D01*
X135260996Y-99511710D01*
X135351242Y-99572010D01*
X135427990Y-99648758D01*
X135427991Y-99648760D01*
X135488291Y-99739005D01*
X135529826Y-99839279D01*
X135551000Y-99945730D01*
X135551000Y-100054270D01*
X135529826Y-100160721D01*
X135488291Y-100260995D01*
X135488290Y-100260996D01*
X135427990Y-100351242D01*
X135351242Y-100427990D01*
X135305812Y-100458345D01*
X135260995Y-100488291D01*
X135160721Y-100529826D01*
X135054270Y-100551000D01*
X134945730Y-100551000D01*
X134839279Y-100529826D01*
X134739005Y-100488291D01*
X134694188Y-100458345D01*
X134648758Y-100427990D01*
X134572010Y-100351242D01*
X134511710Y-100260996D01*
X134511709Y-100260995D01*
X134470174Y-100160721D01*
X134449000Y-100054270D01*
X134449000Y-99945730D01*
X134470174Y-99839279D01*
X134511709Y-99739005D01*
X134572009Y-99648760D01*
X134572010Y-99648758D01*
X134648758Y-99572010D01*
X134739004Y-99511710D01*
X134739005Y-99511709D01*
X134839279Y-99470174D01*
X134945730Y-99449000D01*
X135054270Y-99449000D01*
X135160721Y-99470174D01*
X135160721Y-99470174D01*
G37*
G36*
X130160721Y-99470174D02*
G01*
X130260995Y-99511709D01*
X130260996Y-99511710D01*
X130351242Y-99572010D01*
X130427990Y-99648758D01*
X130427991Y-99648760D01*
X130488291Y-99739005D01*
X130529826Y-99839279D01*
X130551000Y-99945730D01*
X130551000Y-100054270D01*
X130529826Y-100160721D01*
X130488291Y-100260995D01*
X130488290Y-100260996D01*
X130427990Y-100351242D01*
X130351242Y-100427990D01*
X130305812Y-100458345D01*
X130260995Y-100488291D01*
X130160721Y-100529826D01*
X130054270Y-100551000D01*
X129945730Y-100551000D01*
X129839279Y-100529826D01*
X129739005Y-100488291D01*
X129694188Y-100458345D01*
X129648758Y-100427990D01*
X129572010Y-100351242D01*
X129511710Y-100260996D01*
X129511709Y-100260995D01*
X129470174Y-100160721D01*
X129449000Y-100054270D01*
X129449000Y-99945730D01*
X129470174Y-99839279D01*
X129511709Y-99739005D01*
X129572009Y-99648760D01*
X129572010Y-99648758D01*
X129648758Y-99572010D01*
X129739004Y-99511710D01*
X129739005Y-99511709D01*
X129839279Y-99470174D01*
X129945730Y-99449000D01*
X130054270Y-99449000D01*
X130160721Y-99470174D01*
X130160721Y-99470174D01*
G37*
G36*
X125160721Y-99470174D02*
G01*
X125260995Y-99511709D01*
X125260996Y-99511710D01*
X125351242Y-99572010D01*
X125427990Y-99648758D01*
X125427991Y-99648760D01*
X125488291Y-99739005D01*
X125529826Y-99839279D01*
X125551000Y-99945730D01*
X125551000Y-100054270D01*
X125529826Y-100160721D01*
X125488291Y-100260995D01*
X125488290Y-100260996D01*
X125427990Y-100351242D01*
X125351242Y-100427990D01*
X125305812Y-100458345D01*
X125260995Y-100488291D01*
X125160721Y-100529826D01*
X125054270Y-100551000D01*
X124945730Y-100551000D01*
X124839279Y-100529826D01*
X124739005Y-100488291D01*
X124694188Y-100458345D01*
X124648758Y-100427990D01*
X124572010Y-100351242D01*
X124511710Y-100260996D01*
X124511709Y-100260995D01*
X124470174Y-100160721D01*
X124449000Y-100054270D01*
X124449000Y-99945730D01*
X124470174Y-99839279D01*
X124511709Y-99739005D01*
X124572009Y-99648760D01*
X124572010Y-99648758D01*
X124648758Y-99572010D01*
X124739004Y-99511710D01*
X124739005Y-99511709D01*
X124839279Y-99470174D01*
X124945730Y-99449000D01*
X125054270Y-99449000D01*
X125160721Y-99470174D01*
X125160721Y-99470174D01*
G37*
G36*
X120160721Y-99470174D02*
G01*
X120260995Y-99511709D01*
X120260996Y-99511710D01*
X120351242Y-99572010D01*
X120427990Y-99648758D01*
X120427991Y-99648760D01*
X120488291Y-99739005D01*
X120529826Y-99839279D01*
X120551000Y-99945730D01*
X120551000Y-100054270D01*
X120529826Y-100160721D01*
X120488291Y-100260995D01*
X120488290Y-100260996D01*
X120427990Y-100351242D01*
X120351242Y-100427990D01*
X120305812Y-100458345D01*
X120260995Y-100488291D01*
X120160721Y-100529826D01*
X120054270Y-100551000D01*
X119945730Y-100551000D01*
X119839279Y-100529826D01*
X119739005Y-100488291D01*
X119694188Y-100458345D01*
X119648758Y-100427990D01*
X119572010Y-100351242D01*
X119511710Y-100260996D01*
X119511709Y-100260995D01*
X119470174Y-100160721D01*
X119449000Y-100054270D01*
X119449000Y-99945730D01*
X119470174Y-99839279D01*
X119511709Y-99739005D01*
X119572009Y-99648760D01*
X119572010Y-99648758D01*
X119648758Y-99572010D01*
X119739004Y-99511710D01*
X119739005Y-99511709D01*
X119839279Y-99470174D01*
X119945730Y-99449000D01*
X120054270Y-99449000D01*
X120160721Y-99470174D01*
X120160721Y-99470174D01*
G37*
G36*
X115160721Y-99470174D02*
G01*
X115260995Y-99511709D01*
X115260996Y-99511710D01*
X115351242Y-99572010D01*
X115427990Y-99648758D01*
X115427991Y-99648760D01*
X115488291Y-99739005D01*
X115529826Y-99839279D01*
X115551000Y-99945730D01*
X115551000Y-100054270D01*
X115529826Y-100160721D01*
X115488291Y-100260995D01*
X115488290Y-100260996D01*
X115427990Y-100351242D01*
X115351242Y-100427990D01*
X115305812Y-100458345D01*
X115260995Y-100488291D01*
X115160721Y-100529826D01*
X115054270Y-100551000D01*
X114945730Y-100551000D01*
X114839279Y-100529826D01*
X114739005Y-100488291D01*
X114694188Y-100458345D01*
X114648758Y-100427990D01*
X114572010Y-100351242D01*
X114511710Y-100260996D01*
X114511709Y-100260995D01*
X114470174Y-100160721D01*
X114449000Y-100054270D01*
X114449000Y-99945730D01*
X114470174Y-99839279D01*
X114511709Y-99739005D01*
X114572009Y-99648760D01*
X114572010Y-99648758D01*
X114648758Y-99572010D01*
X114739004Y-99511710D01*
X114739005Y-99511709D01*
X114839279Y-99470174D01*
X114945730Y-99449000D01*
X115054270Y-99449000D01*
X115160721Y-99470174D01*
X115160721Y-99470174D01*
G37*
G36*
X110160721Y-99470174D02*
G01*
X110260995Y-99511709D01*
X110260996Y-99511710D01*
X110351242Y-99572010D01*
X110427990Y-99648758D01*
X110427991Y-99648760D01*
X110488291Y-99739005D01*
X110529826Y-99839279D01*
X110551000Y-99945730D01*
X110551000Y-100054270D01*
X110529826Y-100160721D01*
X110488291Y-100260995D01*
X110488290Y-100260996D01*
X110427990Y-100351242D01*
X110351242Y-100427990D01*
X110305812Y-100458345D01*
X110260995Y-100488291D01*
X110160721Y-100529826D01*
X110054270Y-100551000D01*
X109945730Y-100551000D01*
X109839279Y-100529826D01*
X109739005Y-100488291D01*
X109694188Y-100458345D01*
X109648758Y-100427990D01*
X109572010Y-100351242D01*
X109511710Y-100260996D01*
X109511709Y-100260995D01*
X109470174Y-100160721D01*
X109449000Y-100054270D01*
X109449000Y-99945730D01*
X109470174Y-99839279D01*
X109511709Y-99739005D01*
X109572009Y-99648760D01*
X109572010Y-99648758D01*
X109648758Y-99572010D01*
X109739004Y-99511710D01*
X109739005Y-99511709D01*
X109839279Y-99470174D01*
X109945730Y-99449000D01*
X110054270Y-99449000D01*
X110160721Y-99470174D01*
X110160721Y-99470174D01*
G37*
G36*
X105160721Y-99470174D02*
G01*
X105260995Y-99511709D01*
X105260996Y-99511710D01*
X105351242Y-99572010D01*
X105427990Y-99648758D01*
X105427991Y-99648760D01*
X105488291Y-99739005D01*
X105529826Y-99839279D01*
X105551000Y-99945730D01*
X105551000Y-100054270D01*
X105529826Y-100160721D01*
X105488291Y-100260995D01*
X105488290Y-100260996D01*
X105427990Y-100351242D01*
X105351242Y-100427990D01*
X105305812Y-100458345D01*
X105260995Y-100488291D01*
X105160721Y-100529826D01*
X105054270Y-100551000D01*
X104945730Y-100551000D01*
X104839279Y-100529826D01*
X104739005Y-100488291D01*
X104694188Y-100458345D01*
X104648758Y-100427990D01*
X104572010Y-100351242D01*
X104511710Y-100260996D01*
X104511709Y-100260995D01*
X104470174Y-100160721D01*
X104449000Y-100054270D01*
X104449000Y-99945730D01*
X104470174Y-99839279D01*
X104511709Y-99739005D01*
X104572009Y-99648760D01*
X104572010Y-99648758D01*
X104648758Y-99572010D01*
X104739004Y-99511710D01*
X104739005Y-99511709D01*
X104839279Y-99470174D01*
X104945730Y-99449000D01*
X105054270Y-99449000D01*
X105160721Y-99470174D01*
X105160721Y-99470174D01*
G37*
G36*
X100160721Y-99470174D02*
G01*
X100260995Y-99511709D01*
X100260996Y-99511710D01*
X100351242Y-99572010D01*
X100427990Y-99648758D01*
X100427991Y-99648760D01*
X100488291Y-99739005D01*
X100529826Y-99839279D01*
X100551000Y-99945730D01*
X100551000Y-100054270D01*
X100529826Y-100160721D01*
X100488291Y-100260995D01*
X100488290Y-100260996D01*
X100427990Y-100351242D01*
X100351242Y-100427990D01*
X100305812Y-100458345D01*
X100260995Y-100488291D01*
X100160721Y-100529826D01*
X100054270Y-100551000D01*
X99945730Y-100551000D01*
X99839279Y-100529826D01*
X99739005Y-100488291D01*
X99694188Y-100458345D01*
X99648758Y-100427990D01*
X99572010Y-100351242D01*
X99511710Y-100260996D01*
X99511709Y-100260995D01*
X99470174Y-100160721D01*
X99449000Y-100054270D01*
X99449000Y-99945730D01*
X99470174Y-99839279D01*
X99511709Y-99739005D01*
X99572009Y-99648760D01*
X99572010Y-99648758D01*
X99648758Y-99572010D01*
X99739004Y-99511710D01*
X99739005Y-99511709D01*
X99839279Y-99470174D01*
X99945730Y-99449000D01*
X100054270Y-99449000D01*
X100160721Y-99470174D01*
X100160721Y-99470174D01*
G37*
G36*
X95160721Y-99470174D02*
G01*
X95260995Y-99511709D01*
X95260996Y-99511710D01*
X95351242Y-99572010D01*
X95427990Y-99648758D01*
X95427991Y-99648760D01*
X95488291Y-99739005D01*
X95529826Y-99839279D01*
X95551000Y-99945730D01*
X95551000Y-100054270D01*
X95529826Y-100160721D01*
X95488291Y-100260995D01*
X95488290Y-100260996D01*
X95427990Y-100351242D01*
X95351242Y-100427990D01*
X95305812Y-100458345D01*
X95260995Y-100488291D01*
X95160721Y-100529826D01*
X95054270Y-100551000D01*
X94945730Y-100551000D01*
X94839279Y-100529826D01*
X94739005Y-100488291D01*
X94694188Y-100458345D01*
X94648758Y-100427990D01*
X94572010Y-100351242D01*
X94511710Y-100260996D01*
X94511709Y-100260995D01*
X94470174Y-100160721D01*
X94449000Y-100054270D01*
X94449000Y-99945730D01*
X94470174Y-99839279D01*
X94511709Y-99739005D01*
X94572009Y-99648760D01*
X94572010Y-99648758D01*
X94648758Y-99572010D01*
X94739004Y-99511710D01*
X94739005Y-99511709D01*
X94839279Y-99470174D01*
X94945730Y-99449000D01*
X95054270Y-99449000D01*
X95160721Y-99470174D01*
X95160721Y-99470174D01*
G37*
G36*
X175375256Y-96391298D02*
G01*
X175481579Y-96412447D01*
X175782042Y-96536903D01*
X176052451Y-96717585D01*
X176282415Y-96947549D01*
X176463097Y-97217958D01*
X176587553Y-97518421D01*
X176651000Y-97837391D01*
X176651000Y-98162609D01*
X176587553Y-98481579D01*
X176463097Y-98782042D01*
X176282415Y-99052451D01*
X176052451Y-99282415D01*
X175782042Y-99463097D01*
X175782041Y-99463098D01*
X175782040Y-99463098D01*
X175694037Y-99499550D01*
X175481579Y-99587553D01*
X175375256Y-99608702D01*
X175162611Y-99651000D01*
X174837389Y-99651000D01*
X174624744Y-99608702D01*
X174518421Y-99587553D01*
X174305963Y-99499550D01*
X174217960Y-99463098D01*
X174217959Y-99463098D01*
X174217958Y-99463097D01*
X173947549Y-99282415D01*
X173717585Y-99052451D01*
X173536903Y-98782042D01*
X173412447Y-98481579D01*
X173349000Y-98162609D01*
X173349000Y-97837391D01*
X173412447Y-97518421D01*
X173536903Y-97217958D01*
X173717585Y-96947549D01*
X173947549Y-96717585D01*
X174217958Y-96536903D01*
X174518421Y-96412447D01*
X174624744Y-96391298D01*
X174837389Y-96349000D01*
X175162611Y-96349000D01*
X175375256Y-96391298D01*
X175375256Y-96391298D01*
G37*
G36*
X89375256Y-96391298D02*
G01*
X89481579Y-96412447D01*
X89782042Y-96536903D01*
X90052451Y-96717585D01*
X90282415Y-96947549D01*
X90463097Y-97217958D01*
X90587553Y-97518421D01*
X90651000Y-97837391D01*
X90651000Y-98162609D01*
X90587553Y-98481579D01*
X90463097Y-98782042D01*
X90282415Y-99052451D01*
X90052451Y-99282415D01*
X89782042Y-99463097D01*
X89782041Y-99463098D01*
X89782040Y-99463098D01*
X89694037Y-99499550D01*
X89481579Y-99587553D01*
X89375256Y-99608702D01*
X89162611Y-99651000D01*
X88837389Y-99651000D01*
X88624744Y-99608702D01*
X88518421Y-99587553D01*
X88305963Y-99499550D01*
X88217960Y-99463098D01*
X88217959Y-99463098D01*
X88217958Y-99463097D01*
X87947549Y-99282415D01*
X87717585Y-99052451D01*
X87536903Y-98782042D01*
X87412447Y-98481579D01*
X87349000Y-98162609D01*
X87349000Y-97837391D01*
X87412447Y-97518421D01*
X87536903Y-97217958D01*
X87717585Y-96947549D01*
X87947549Y-96717585D01*
X88217958Y-96536903D01*
X88518421Y-96412447D01*
X88624744Y-96391298D01*
X88837389Y-96349000D01*
X89162611Y-96349000D01*
X89375256Y-96391298D01*
X89375256Y-96391298D01*
G37*
G36*
X175160721Y-94470174D02*
G01*
X175260995Y-94511709D01*
X175260996Y-94511710D01*
X175351242Y-94572010D01*
X175427990Y-94648758D01*
X175427991Y-94648760D01*
X175488291Y-94739005D01*
X175529826Y-94839279D01*
X175551000Y-94945730D01*
X175551000Y-95054270D01*
X175529826Y-95160721D01*
X175488291Y-95260995D01*
X175488290Y-95260996D01*
X175427990Y-95351242D01*
X175351242Y-95427990D01*
X175305812Y-95458345D01*
X175260995Y-95488291D01*
X175160721Y-95529826D01*
X175054270Y-95551000D01*
X174945730Y-95551000D01*
X174839279Y-95529826D01*
X174739005Y-95488291D01*
X174694188Y-95458345D01*
X174648758Y-95427990D01*
X174572010Y-95351242D01*
X174511710Y-95260996D01*
X174511709Y-95260995D01*
X174470174Y-95160721D01*
X174449000Y-95054270D01*
X174449000Y-94945730D01*
X174470174Y-94839279D01*
X174511709Y-94739005D01*
X174572009Y-94648760D01*
X174572010Y-94648758D01*
X174648758Y-94572010D01*
X174739004Y-94511710D01*
X174739005Y-94511709D01*
X174839279Y-94470174D01*
X174945730Y-94449000D01*
X175054270Y-94449000D01*
X175160721Y-94470174D01*
X175160721Y-94470174D01*
G37*
G36*
X87660721Y-91970174D02*
G01*
X87760995Y-92011709D01*
X87760996Y-92011710D01*
X87851242Y-92072010D01*
X87927990Y-92148758D01*
X87927991Y-92148760D01*
X87988291Y-92239005D01*
X88029826Y-92339279D01*
X88051000Y-92445730D01*
X88051000Y-92554270D01*
X88029826Y-92660721D01*
X87988291Y-92760995D01*
X87988290Y-92760996D01*
X87927990Y-92851242D01*
X87851242Y-92927990D01*
X87805812Y-92958345D01*
X87760995Y-92988291D01*
X87660721Y-93029826D01*
X87554270Y-93051000D01*
X87445730Y-93051000D01*
X87339279Y-93029826D01*
X87239005Y-92988291D01*
X87194188Y-92958345D01*
X87148758Y-92927990D01*
X87072010Y-92851242D01*
X87011710Y-92760996D01*
X87011709Y-92760995D01*
X86970174Y-92660721D01*
X86949000Y-92554270D01*
X86949000Y-92445730D01*
X86970174Y-92339279D01*
X87011709Y-92239005D01*
X87072009Y-92148760D01*
X87072010Y-92148758D01*
X87148758Y-92072010D01*
X87239004Y-92011710D01*
X87239005Y-92011709D01*
X87339279Y-91970174D01*
X87445730Y-91949000D01*
X87554270Y-91949000D01*
X87660721Y-91970174D01*
X87660721Y-91970174D01*
G37*
G36*
X164598254Y-86927818D02*
G01*
X164971511Y-87082426D01*
X164971513Y-87082427D01*
X165307436Y-87306884D01*
X165593116Y-87592564D01*
X165817242Y-87927991D01*
X165817574Y-87928489D01*
X165972182Y-88301746D01*
X166051000Y-88697993D01*
X166051000Y-89102007D01*
X165972182Y-89498254D01*
X165847575Y-89799082D01*
X165817573Y-89871513D01*
X165593116Y-90207436D01*
X165307436Y-90493116D01*
X164971513Y-90717573D01*
X164971512Y-90717574D01*
X164971511Y-90717574D01*
X164598254Y-90872182D01*
X164202007Y-90951000D01*
X163797993Y-90951000D01*
X163401746Y-90872182D01*
X163028489Y-90717574D01*
X163028488Y-90717574D01*
X163028487Y-90717573D01*
X162692564Y-90493116D01*
X162406884Y-90207436D01*
X162182427Y-89871513D01*
X162152425Y-89799082D01*
X162027818Y-89498254D01*
X161949000Y-89102007D01*
X161949000Y-88697993D01*
X162027818Y-88301746D01*
X162182426Y-87928489D01*
X162182759Y-87927991D01*
X162406884Y-87592564D01*
X162692564Y-87306884D01*
X163028487Y-87082427D01*
X163028489Y-87082426D01*
X163401746Y-86927818D01*
X163797993Y-86849000D01*
X164202007Y-86849000D01*
X164598254Y-86927818D01*
X164598254Y-86927818D01*
G37*
G36*
X175160721Y-89470174D02*
G01*
X175260995Y-89511709D01*
X175260996Y-89511710D01*
X175351242Y-89572010D01*
X175427990Y-89648758D01*
X175427991Y-89648760D01*
X175488291Y-89739005D01*
X175529826Y-89839279D01*
X175551000Y-89945730D01*
X175551000Y-90054270D01*
X175529826Y-90160721D01*
X175488291Y-90260995D01*
X175488290Y-90260996D01*
X175427990Y-90351242D01*
X175351242Y-90427990D01*
X175305812Y-90458345D01*
X175260995Y-90488291D01*
X175160721Y-90529826D01*
X175054270Y-90551000D01*
X174945730Y-90551000D01*
X174839279Y-90529826D01*
X174739005Y-90488291D01*
X174694188Y-90458345D01*
X174648758Y-90427990D01*
X174572010Y-90351242D01*
X174511710Y-90260996D01*
X174511709Y-90260995D01*
X174470174Y-90160721D01*
X174449000Y-90054270D01*
X174449000Y-89945730D01*
X174470174Y-89839279D01*
X174511709Y-89739005D01*
X174572009Y-89648760D01*
X174572010Y-89648758D01*
X174648758Y-89572010D01*
X174739004Y-89511710D01*
X174739005Y-89511709D01*
X174839279Y-89470174D01*
X174945730Y-89449000D01*
X175054270Y-89449000D01*
X175160721Y-89470174D01*
X175160721Y-89470174D01*
G37*
G36*
X98994072Y-87200918D02*
G01*
X99239939Y-87302759D01*
X99351328Y-87377187D01*
X99461211Y-87450609D01*
X99649391Y-87638789D01*
X99716143Y-87738690D01*
X99785685Y-87842766D01*
X99797242Y-87860063D01*
X99899082Y-88105928D01*
X99951000Y-88366937D01*
X99951000Y-88633063D01*
X99938084Y-88697994D01*
X99899082Y-88894072D01*
X99797241Y-89139939D01*
X99649390Y-89361212D01*
X99461212Y-89549390D01*
X99239939Y-89697241D01*
X99239938Y-89697242D01*
X99239937Y-89697242D01*
X98994072Y-89799082D01*
X98733063Y-89851000D01*
X98466937Y-89851000D01*
X98205928Y-89799082D01*
X97960063Y-89697242D01*
X97960062Y-89697242D01*
X97960061Y-89697241D01*
X97738788Y-89549390D01*
X97550610Y-89361212D01*
X97402759Y-89139939D01*
X97300918Y-88894072D01*
X97261916Y-88697994D01*
X97249000Y-88633063D01*
X97249000Y-88366937D01*
X97300918Y-88105928D01*
X97402758Y-87860063D01*
X97414316Y-87842766D01*
X97483857Y-87738690D01*
X97550609Y-87638789D01*
X97738789Y-87450609D01*
X97848672Y-87377187D01*
X97960061Y-87302759D01*
X98205928Y-87200918D01*
X98466937Y-87149000D01*
X98733063Y-87149000D01*
X98994072Y-87200918D01*
X98994072Y-87200918D01*
G37*
G36*
X87660721Y-86970174D02*
G01*
X87760995Y-87011709D01*
X87760996Y-87011710D01*
X87851242Y-87072010D01*
X87927990Y-87148758D01*
X87958345Y-87194188D01*
X87988291Y-87239005D01*
X88029826Y-87339279D01*
X88051000Y-87445730D01*
X88051000Y-87554270D01*
X88029826Y-87660721D01*
X87988291Y-87760995D01*
X87988290Y-87760996D01*
X87927990Y-87851242D01*
X87851242Y-87927990D01*
X87850498Y-87928487D01*
X87760995Y-87988291D01*
X87660721Y-88029826D01*
X87554270Y-88051000D01*
X87445730Y-88051000D01*
X87339279Y-88029826D01*
X87239005Y-87988291D01*
X87149502Y-87928487D01*
X87148758Y-87927990D01*
X87072010Y-87851242D01*
X87011710Y-87760996D01*
X87011709Y-87760995D01*
X86970174Y-87660721D01*
X86949000Y-87554270D01*
X86949000Y-87445730D01*
X86970174Y-87339279D01*
X87011709Y-87239005D01*
X87041655Y-87194188D01*
X87072010Y-87148758D01*
X87148758Y-87072010D01*
X87239004Y-87011710D01*
X87239005Y-87011709D01*
X87339279Y-86970174D01*
X87445730Y-86949000D01*
X87554270Y-86949000D01*
X87660721Y-86970174D01*
X87660721Y-86970174D01*
G37*
G36*
X157277395Y-86085546D02*
G01*
X157450466Y-86157234D01*
X157450467Y-86157235D01*
X157606227Y-86261310D01*
X157738690Y-86393773D01*
X157738691Y-86393775D01*
X157842766Y-86549534D01*
X157914454Y-86722605D01*
X157951000Y-86906333D01*
X157951000Y-87093667D01*
X157914454Y-87277395D01*
X157842766Y-87450466D01*
X157791081Y-87527818D01*
X157738690Y-87606227D01*
X157606227Y-87738690D01*
X157527818Y-87791081D01*
X157450466Y-87842766D01*
X157277395Y-87914454D01*
X157093667Y-87951000D01*
X156906333Y-87951000D01*
X156722605Y-87914454D01*
X156549534Y-87842766D01*
X156472182Y-87791081D01*
X156393773Y-87738690D01*
X156261310Y-87606227D01*
X156208919Y-87527818D01*
X156157234Y-87450466D01*
X156085546Y-87277395D01*
X156049000Y-87093667D01*
X156049000Y-86906333D01*
X156085546Y-86722605D01*
X156157234Y-86549534D01*
X156261309Y-86393775D01*
X156261310Y-86393773D01*
X156393773Y-86261310D01*
X156549533Y-86157235D01*
X156549534Y-86157234D01*
X156722605Y-86085546D01*
X156906333Y-86049000D01*
X157093667Y-86049000D01*
X157277395Y-86085546D01*
X157277395Y-86085546D01*
G37*
G36*
X175160721Y-84470174D02*
G01*
X175260995Y-84511709D01*
X175260996Y-84511710D01*
X175351242Y-84572010D01*
X175427990Y-84648758D01*
X175427991Y-84648760D01*
X175488291Y-84739005D01*
X175529826Y-84839279D01*
X175551000Y-84945730D01*
X175551000Y-85054270D01*
X175529826Y-85160721D01*
X175488291Y-85260995D01*
X175488290Y-85260996D01*
X175427990Y-85351242D01*
X175351242Y-85427990D01*
X175316805Y-85451000D01*
X175260995Y-85488291D01*
X175160721Y-85529826D01*
X175054270Y-85551000D01*
X174945730Y-85551000D01*
X174839279Y-85529826D01*
X174739005Y-85488291D01*
X174683195Y-85451000D01*
X174648758Y-85427990D01*
X174572010Y-85351242D01*
X174511710Y-85260996D01*
X174511709Y-85260995D01*
X174470174Y-85160721D01*
X174449000Y-85054270D01*
X174449000Y-84945730D01*
X174470174Y-84839279D01*
X174511709Y-84739005D01*
X174572009Y-84648760D01*
X174572010Y-84648758D01*
X174648758Y-84572010D01*
X174739004Y-84511710D01*
X174739005Y-84511709D01*
X174839279Y-84470174D01*
X174945730Y-84449000D01*
X175054270Y-84449000D01*
X175160721Y-84470174D01*
X175160721Y-84470174D01*
G37*
G36*
X157277395Y-83585546D02*
G01*
X157450466Y-83657234D01*
X157450467Y-83657235D01*
X157606227Y-83761310D01*
X157738690Y-83893773D01*
X157738691Y-83893775D01*
X157842766Y-84049534D01*
X157914454Y-84222605D01*
X157951000Y-84406333D01*
X157951000Y-84593667D01*
X157914454Y-84777395D01*
X157842766Y-84950466D01*
X157842765Y-84950467D01*
X157738690Y-85106227D01*
X157606227Y-85238690D01*
X157527818Y-85291081D01*
X157450466Y-85342766D01*
X157277395Y-85414454D01*
X157093667Y-85451000D01*
X156906333Y-85451000D01*
X156722605Y-85414454D01*
X156549534Y-85342766D01*
X156472182Y-85291081D01*
X156393773Y-85238690D01*
X156261310Y-85106227D01*
X156157235Y-84950467D01*
X156157234Y-84950466D01*
X156085546Y-84777395D01*
X156049000Y-84593667D01*
X156049000Y-84406333D01*
X156085546Y-84222605D01*
X156157234Y-84049534D01*
X156261309Y-83893775D01*
X156261310Y-83893773D01*
X156393773Y-83761310D01*
X156549533Y-83657235D01*
X156549534Y-83657234D01*
X156722605Y-83585546D01*
X156906333Y-83549000D01*
X157093667Y-83549000D01*
X157277395Y-83585546D01*
X157277395Y-83585546D01*
G37*
G36*
X87660721Y-81970174D02*
G01*
X87760995Y-82011709D01*
X87760996Y-82011710D01*
X87851242Y-82072010D01*
X87927990Y-82148758D01*
X87927991Y-82148760D01*
X87988291Y-82239005D01*
X88029826Y-82339279D01*
X88051000Y-82445730D01*
X88051000Y-82554270D01*
X88029826Y-82660721D01*
X87988291Y-82760995D01*
X87961560Y-82801000D01*
X87927990Y-82851242D01*
X87851242Y-82927990D01*
X87816805Y-82951000D01*
X87760995Y-82988291D01*
X87660721Y-83029826D01*
X87554270Y-83051000D01*
X87445730Y-83051000D01*
X87339279Y-83029826D01*
X87239005Y-82988291D01*
X87183195Y-82951000D01*
X87148758Y-82927990D01*
X87072010Y-82851242D01*
X87038440Y-82801000D01*
X87011709Y-82760995D01*
X86970174Y-82660721D01*
X86949000Y-82554270D01*
X86949000Y-82445730D01*
X86970174Y-82339279D01*
X87011709Y-82239005D01*
X87072009Y-82148760D01*
X87072010Y-82148758D01*
X87148758Y-82072010D01*
X87239004Y-82011710D01*
X87239005Y-82011709D01*
X87339279Y-81970174D01*
X87445730Y-81949000D01*
X87554270Y-81949000D01*
X87660721Y-81970174D01*
X87660721Y-81970174D01*
G37*
G36*
X157277395Y-81085546D02*
G01*
X157450466Y-81157234D01*
X157450467Y-81157235D01*
X157606227Y-81261310D01*
X157738690Y-81393773D01*
X157738691Y-81393775D01*
X157842766Y-81549534D01*
X157914454Y-81722605D01*
X157951000Y-81906333D01*
X157951000Y-82093667D01*
X157914454Y-82277395D01*
X157842766Y-82450466D01*
X157842765Y-82450467D01*
X157738690Y-82606227D01*
X157606227Y-82738690D01*
X157559042Y-82770218D01*
X157450466Y-82842766D01*
X157277395Y-82914454D01*
X157093667Y-82951000D01*
X156906333Y-82951000D01*
X156722605Y-82914454D01*
X156549534Y-82842766D01*
X156440958Y-82770218D01*
X156393773Y-82738690D01*
X156261310Y-82606227D01*
X156157235Y-82450467D01*
X156157234Y-82450466D01*
X156085546Y-82277395D01*
X156049000Y-82093667D01*
X156049000Y-81906333D01*
X156085546Y-81722605D01*
X156157234Y-81549534D01*
X156261309Y-81393775D01*
X156261310Y-81393773D01*
X156393773Y-81261310D01*
X156549533Y-81157235D01*
X156549534Y-81157234D01*
X156722605Y-81085546D01*
X156906333Y-81049000D01*
X157093667Y-81049000D01*
X157277395Y-81085546D01*
X157277395Y-81085546D01*
G37*
G36*
X133233642Y-81229781D02*
G01*
X133309759Y-81261310D01*
X133379416Y-81290163D01*
X133510608Y-81377822D01*
X133622178Y-81489392D01*
X133662363Y-81549534D01*
X133709838Y-81620586D01*
X133770219Y-81766358D01*
X133801000Y-81921107D01*
X133801000Y-82078893D01*
X133770219Y-82233642D01*
X133709838Y-82379414D01*
X133709837Y-82379416D01*
X133622178Y-82510608D01*
X133510608Y-82622178D01*
X133379416Y-82709837D01*
X133379415Y-82709838D01*
X133379414Y-82709838D01*
X133233642Y-82770219D01*
X133078893Y-82801000D01*
X132921107Y-82801000D01*
X132766358Y-82770219D01*
X132620586Y-82709838D01*
X132620585Y-82709838D01*
X132620584Y-82709837D01*
X132489392Y-82622178D01*
X132377822Y-82510608D01*
X132290163Y-82379416D01*
X132290162Y-82379414D01*
X132229781Y-82233642D01*
X132199000Y-82078893D01*
X132199000Y-81921107D01*
X132229781Y-81766358D01*
X132290162Y-81620586D01*
X132337637Y-81549534D01*
X132377822Y-81489392D01*
X132489392Y-81377822D01*
X132620584Y-81290163D01*
X132690241Y-81261310D01*
X132766358Y-81229781D01*
X132921107Y-81199000D01*
X133078893Y-81199000D01*
X133233642Y-81229781D01*
X133233642Y-81229781D01*
G37*
G36*
X149233642Y-81229781D02*
G01*
X149309759Y-81261310D01*
X149379416Y-81290163D01*
X149510608Y-81377822D01*
X149622178Y-81489392D01*
X149662363Y-81549534D01*
X149709838Y-81620586D01*
X149770219Y-81766358D01*
X149801000Y-81921107D01*
X149801000Y-82078893D01*
X149770219Y-82233642D01*
X149709838Y-82379414D01*
X149709837Y-82379416D01*
X149622178Y-82510608D01*
X149510608Y-82622178D01*
X149379416Y-82709837D01*
X149379415Y-82709838D01*
X149379414Y-82709838D01*
X149233642Y-82770219D01*
X149078893Y-82801000D01*
X148921107Y-82801000D01*
X148766358Y-82770219D01*
X148620586Y-82709838D01*
X148620585Y-82709838D01*
X148620584Y-82709837D01*
X148489392Y-82622178D01*
X148377822Y-82510608D01*
X148290163Y-82379416D01*
X148290162Y-82379414D01*
X148229781Y-82233642D01*
X148199000Y-82078893D01*
X148199000Y-81921107D01*
X148229781Y-81766358D01*
X148290162Y-81620586D01*
X148337637Y-81549534D01*
X148377822Y-81489392D01*
X148489392Y-81377822D01*
X148620584Y-81290163D01*
X148690241Y-81261310D01*
X148766358Y-81229781D01*
X148921107Y-81199000D01*
X149078893Y-81199000D01*
X149233642Y-81229781D01*
X149233642Y-81229781D01*
G37*
G36*
X164598254Y-78127818D02*
G01*
X164971511Y-78282426D01*
X164971513Y-78282427D01*
X165307436Y-78506884D01*
X165593116Y-78792564D01*
X165817574Y-79128489D01*
X165972182Y-79501746D01*
X166051000Y-79897993D01*
X166051000Y-80302007D01*
X165972182Y-80698254D01*
X165826898Y-81049000D01*
X165817573Y-81071513D01*
X165593116Y-81407436D01*
X165307436Y-81693116D01*
X164971513Y-81917573D01*
X164971512Y-81917574D01*
X164971511Y-81917574D01*
X164598254Y-82072182D01*
X164202007Y-82151000D01*
X163797993Y-82151000D01*
X163401746Y-82072182D01*
X163028489Y-81917574D01*
X163028488Y-81917574D01*
X163028487Y-81917573D01*
X162692564Y-81693116D01*
X162406884Y-81407436D01*
X162182427Y-81071513D01*
X162173102Y-81049000D01*
X162027818Y-80698254D01*
X161949000Y-80302007D01*
X161949000Y-79897993D01*
X162027818Y-79501746D01*
X162182426Y-79128489D01*
X162406884Y-78792564D01*
X162692564Y-78506884D01*
X163028487Y-78282427D01*
X163028489Y-78282426D01*
X163401746Y-78127818D01*
X163797993Y-78049000D01*
X164202007Y-78049000D01*
X164598254Y-78127818D01*
X164598254Y-78127818D01*
G37*
G36*
X175160721Y-79470174D02*
G01*
X175260995Y-79511709D01*
X175260996Y-79511710D01*
X175351242Y-79572010D01*
X175427990Y-79648758D01*
X175427991Y-79648760D01*
X175488291Y-79739005D01*
X175529826Y-79839279D01*
X175551000Y-79945730D01*
X175551000Y-80054270D01*
X175529826Y-80160721D01*
X175488291Y-80260995D01*
X175488290Y-80260996D01*
X175427990Y-80351242D01*
X175351242Y-80427990D01*
X175305812Y-80458345D01*
X175260995Y-80488291D01*
X175160721Y-80529826D01*
X175054270Y-80551000D01*
X174945730Y-80551000D01*
X174839279Y-80529826D01*
X174739005Y-80488291D01*
X174694188Y-80458345D01*
X174648758Y-80427990D01*
X174572010Y-80351242D01*
X174511710Y-80260996D01*
X174511709Y-80260995D01*
X174470174Y-80160721D01*
X174449000Y-80054270D01*
X174449000Y-79945730D01*
X174470174Y-79839279D01*
X174511709Y-79739005D01*
X174572009Y-79648760D01*
X174572010Y-79648758D01*
X174648758Y-79572010D01*
X174739004Y-79511710D01*
X174739005Y-79511709D01*
X174839279Y-79470174D01*
X174945730Y-79449000D01*
X175054270Y-79449000D01*
X175160721Y-79470174D01*
X175160721Y-79470174D01*
G37*
G36*
X87660721Y-76970174D02*
G01*
X87760995Y-77011709D01*
X87760996Y-77011710D01*
X87851242Y-77072010D01*
X87927990Y-77148758D01*
X87927991Y-77148760D01*
X87988291Y-77239005D01*
X88029826Y-77339279D01*
X88051000Y-77445730D01*
X88051000Y-77554270D01*
X88029826Y-77660721D01*
X87988291Y-77760995D01*
X87988290Y-77760996D01*
X87927990Y-77851242D01*
X87851242Y-77927990D01*
X87805812Y-77958345D01*
X87760995Y-77988291D01*
X87660721Y-78029826D01*
X87554270Y-78051000D01*
X87445730Y-78051000D01*
X87339279Y-78029826D01*
X87239005Y-77988291D01*
X87194188Y-77958345D01*
X87148758Y-77927990D01*
X87072010Y-77851242D01*
X87011710Y-77760996D01*
X87011709Y-77760995D01*
X86970174Y-77660721D01*
X86949000Y-77554270D01*
X86949000Y-77445730D01*
X86970174Y-77339279D01*
X87011709Y-77239005D01*
X87072009Y-77148760D01*
X87072010Y-77148758D01*
X87148758Y-77072010D01*
X87239004Y-77011710D01*
X87239005Y-77011709D01*
X87339279Y-76970174D01*
X87445730Y-76949000D01*
X87554270Y-76949000D01*
X87660721Y-76970174D01*
X87660721Y-76970174D01*
G37*
G36*
X121093837Y-73180980D02*
G01*
X121194072Y-73200918D01*
X121439939Y-73302759D01*
X121551328Y-73377187D01*
X121661211Y-73450609D01*
X121849391Y-73638789D01*
X121997242Y-73860063D01*
X122099082Y-74105928D01*
X122151000Y-74366937D01*
X122151000Y-74633063D01*
X122099082Y-74894072D01*
X121997242Y-75139937D01*
X121849391Y-75361211D01*
X121661211Y-75549391D01*
X121551328Y-75622813D01*
X121439939Y-75697241D01*
X121439938Y-75697242D01*
X121439937Y-75697242D01*
X121194072Y-75799082D01*
X120933063Y-75851000D01*
X120666937Y-75851000D01*
X120405928Y-75799082D01*
X120160063Y-75697242D01*
X120160062Y-75697242D01*
X120160061Y-75697241D01*
X120048672Y-75622813D01*
X119938789Y-75549391D01*
X119750609Y-75361211D01*
X119602758Y-75139937D01*
X119500918Y-74894072D01*
X119449000Y-74633063D01*
X119449000Y-74366937D01*
X119500918Y-74105928D01*
X119602758Y-73860063D01*
X119750609Y-73638789D01*
X119938789Y-73450609D01*
X120048672Y-73377187D01*
X120160061Y-73302759D01*
X120405928Y-73200918D01*
X120506163Y-73180980D01*
X120666937Y-73149000D01*
X120933063Y-73149000D01*
X121093837Y-73180980D01*
X121093837Y-73180980D01*
G37*
G36*
X175160721Y-74470174D02*
G01*
X175260995Y-74511709D01*
X175260996Y-74511710D01*
X175351242Y-74572010D01*
X175427990Y-74648758D01*
X175427991Y-74648760D01*
X175488291Y-74739005D01*
X175529826Y-74839279D01*
X175551000Y-74945730D01*
X175551000Y-75054270D01*
X175529826Y-75160721D01*
X175488291Y-75260995D01*
X175488290Y-75260996D01*
X175427990Y-75351242D01*
X175351242Y-75427990D01*
X175305812Y-75458345D01*
X175260995Y-75488291D01*
X175160721Y-75529826D01*
X175054270Y-75551000D01*
X174945730Y-75551000D01*
X174839279Y-75529826D01*
X174739005Y-75488291D01*
X174694188Y-75458345D01*
X174648758Y-75427990D01*
X174572010Y-75351242D01*
X174511710Y-75260996D01*
X174511709Y-75260995D01*
X174470174Y-75160721D01*
X174449000Y-75054270D01*
X174449000Y-74945730D01*
X174470174Y-74839279D01*
X174511709Y-74739005D01*
X174572009Y-74648760D01*
X174572010Y-74648758D01*
X174648758Y-74572010D01*
X174739004Y-74511710D01*
X174739005Y-74511709D01*
X174839279Y-74470174D01*
X174945730Y-74449000D01*
X175054270Y-74449000D01*
X175160721Y-74470174D01*
X175160721Y-74470174D01*
G37*
G36*
X148364499Y-73803445D02*
G01*
X148401995Y-73814820D01*
X148436554Y-73833292D01*
X148466847Y-73858153D01*
X148491708Y-73888446D01*
X148510180Y-73923005D01*
X148521555Y-73960501D01*
X148526000Y-74005638D01*
X148526000Y-74744362D01*
X148521555Y-74789499D01*
X148510180Y-74826995D01*
X148491708Y-74861554D01*
X148466847Y-74891847D01*
X148436554Y-74916708D01*
X148401995Y-74935180D01*
X148364499Y-74946555D01*
X148319362Y-74951000D01*
X147680638Y-74951000D01*
X147635501Y-74946555D01*
X147598005Y-74935180D01*
X147563446Y-74916708D01*
X147533153Y-74891847D01*
X147508292Y-74861554D01*
X147489820Y-74826995D01*
X147478445Y-74789499D01*
X147474000Y-74744362D01*
X147474000Y-74005638D01*
X147478445Y-73960501D01*
X147489820Y-73923005D01*
X147508292Y-73888446D01*
X147533153Y-73858153D01*
X147563446Y-73833292D01*
X147598005Y-73814820D01*
X147635501Y-73803445D01*
X147680638Y-73799000D01*
X148319362Y-73799000D01*
X148364499Y-73803445D01*
X148364499Y-73803445D01*
G37*
G36*
X164598254Y-70927818D02*
G01*
X164918002Y-71060262D01*
X164971513Y-71082427D01*
X165307436Y-71306884D01*
X165593116Y-71592564D01*
X165808196Y-71914453D01*
X165817574Y-71928489D01*
X165972182Y-72301746D01*
X166051000Y-72697993D01*
X166051000Y-73102007D01*
X165972182Y-73498254D01*
X165847609Y-73799000D01*
X165817573Y-73871513D01*
X165593116Y-74207436D01*
X165307436Y-74493116D01*
X164971513Y-74717573D01*
X164971512Y-74717574D01*
X164971511Y-74717574D01*
X164598254Y-74872182D01*
X164202007Y-74951000D01*
X163797993Y-74951000D01*
X163401746Y-74872182D01*
X163028489Y-74717574D01*
X163028488Y-74717574D01*
X163028487Y-74717573D01*
X162692564Y-74493116D01*
X162406884Y-74207436D01*
X162182427Y-73871513D01*
X162152391Y-73799000D01*
X162027818Y-73498254D01*
X161949000Y-73102007D01*
X161949000Y-72697993D01*
X162027818Y-72301746D01*
X162182426Y-71928489D01*
X162191805Y-71914453D01*
X162406884Y-71592564D01*
X162692564Y-71306884D01*
X163028487Y-71082427D01*
X163081998Y-71060262D01*
X163401746Y-70927818D01*
X163797993Y-70849000D01*
X164202007Y-70849000D01*
X164598254Y-70927818D01*
X164598254Y-70927818D01*
G37*
G36*
X138459928Y-73461764D02*
G01*
X138481009Y-73468160D01*
X138500445Y-73478548D01*
X138517476Y-73492524D01*
X138531452Y-73509555D01*
X138541840Y-73528991D01*
X138548236Y-73550072D01*
X138551000Y-73578140D01*
X138551000Y-74041860D01*
X138548236Y-74069928D01*
X138541840Y-74091009D01*
X138531452Y-74110445D01*
X138517476Y-74127476D01*
X138500445Y-74141452D01*
X138481009Y-74151840D01*
X138459928Y-74158236D01*
X138431860Y-74161000D01*
X136618140Y-74161000D01*
X136590072Y-74158236D01*
X136568991Y-74151840D01*
X136549555Y-74141452D01*
X136532524Y-74127476D01*
X136518548Y-74110445D01*
X136508160Y-74091009D01*
X136501764Y-74069928D01*
X136499000Y-74041860D01*
X136499000Y-73578140D01*
X136501764Y-73550072D01*
X136508160Y-73528991D01*
X136518548Y-73509555D01*
X136532524Y-73492524D01*
X136549555Y-73478548D01*
X136568991Y-73468160D01*
X136590072Y-73461764D01*
X136618140Y-73459000D01*
X138431860Y-73459000D01*
X138459928Y-73461764D01*
X138459928Y-73461764D01*
G37*
G36*
X143409928Y-73461764D02*
G01*
X143431009Y-73468160D01*
X143450445Y-73478548D01*
X143467476Y-73492524D01*
X143481452Y-73509555D01*
X143491840Y-73528991D01*
X143498236Y-73550072D01*
X143501000Y-73578140D01*
X143501000Y-74041860D01*
X143498236Y-74069928D01*
X143491840Y-74091009D01*
X143481452Y-74110445D01*
X143467476Y-74127476D01*
X143450445Y-74141452D01*
X143431009Y-74151840D01*
X143409928Y-74158236D01*
X143381860Y-74161000D01*
X141568140Y-74161000D01*
X141540072Y-74158236D01*
X141518991Y-74151840D01*
X141499555Y-74141452D01*
X141482524Y-74127476D01*
X141468548Y-74110445D01*
X141458160Y-74091009D01*
X141451764Y-74069928D01*
X141449000Y-74041860D01*
X141449000Y-73578140D01*
X141451764Y-73550072D01*
X141458160Y-73528991D01*
X141468548Y-73509555D01*
X141482524Y-73492524D01*
X141499555Y-73478548D01*
X141518991Y-73468160D01*
X141540072Y-73461764D01*
X141568140Y-73459000D01*
X143381860Y-73459000D01*
X143409928Y-73461764D01*
X143409928Y-73461764D01*
G37*
G36*
X148364499Y-72053445D02*
G01*
X148401995Y-72064820D01*
X148436554Y-72083292D01*
X148466847Y-72108153D01*
X148491708Y-72138446D01*
X148510180Y-72173005D01*
X148521555Y-72210501D01*
X148526000Y-72255638D01*
X148526000Y-72994362D01*
X148521555Y-73039499D01*
X148510180Y-73076995D01*
X148491708Y-73111554D01*
X148466847Y-73141847D01*
X148436554Y-73166708D01*
X148401995Y-73185180D01*
X148364499Y-73196555D01*
X148319362Y-73201000D01*
X147680638Y-73201000D01*
X147635501Y-73196555D01*
X147598005Y-73185180D01*
X147563446Y-73166708D01*
X147533153Y-73141847D01*
X147508292Y-73111554D01*
X147489820Y-73076995D01*
X147478445Y-73039499D01*
X147474000Y-72994362D01*
X147474000Y-72255638D01*
X147478445Y-72210501D01*
X147489820Y-72173005D01*
X147508292Y-72138446D01*
X147533153Y-72108153D01*
X147563446Y-72083292D01*
X147598005Y-72064820D01*
X147635501Y-72053445D01*
X147680638Y-72049000D01*
X148319362Y-72049000D01*
X148364499Y-72053445D01*
X148364499Y-72053445D01*
G37*
G36*
X134689499Y-72078445D02*
G01*
X134726995Y-72089820D01*
X134761554Y-72108292D01*
X134791847Y-72133153D01*
X134816708Y-72163446D01*
X134835180Y-72198005D01*
X134846555Y-72235501D01*
X134851000Y-72280638D01*
X134851000Y-72919362D01*
X134846555Y-72964499D01*
X134835180Y-73001995D01*
X134816708Y-73036554D01*
X134791847Y-73066847D01*
X134761554Y-73091708D01*
X134726995Y-73110180D01*
X134689499Y-73121555D01*
X134644362Y-73126000D01*
X133905638Y-73126000D01*
X133860501Y-73121555D01*
X133823005Y-73110180D01*
X133788446Y-73091708D01*
X133758153Y-73066847D01*
X133733292Y-73036554D01*
X133714820Y-73001995D01*
X133703445Y-72964499D01*
X133699000Y-72919362D01*
X133699000Y-72280638D01*
X133703445Y-72235501D01*
X133714820Y-72198005D01*
X133733292Y-72163446D01*
X133758153Y-72133153D01*
X133788446Y-72108292D01*
X133823005Y-72089820D01*
X133860501Y-72078445D01*
X133905638Y-72074000D01*
X134644362Y-72074000D01*
X134689499Y-72078445D01*
X134689499Y-72078445D01*
G37*
G36*
X132939499Y-72078445D02*
G01*
X132976995Y-72089820D01*
X133011554Y-72108292D01*
X133041847Y-72133153D01*
X133066708Y-72163446D01*
X133085180Y-72198005D01*
X133096555Y-72235501D01*
X133101000Y-72280638D01*
X133101000Y-72919362D01*
X133096555Y-72964499D01*
X133085180Y-73001995D01*
X133066708Y-73036554D01*
X133041847Y-73066847D01*
X133011554Y-73091708D01*
X132976995Y-73110180D01*
X132939499Y-73121555D01*
X132894362Y-73126000D01*
X132155638Y-73126000D01*
X132110501Y-73121555D01*
X132073005Y-73110180D01*
X132038446Y-73091708D01*
X132008153Y-73066847D01*
X131983292Y-73036554D01*
X131964820Y-73001995D01*
X131953445Y-72964499D01*
X131949000Y-72919362D01*
X131949000Y-72280638D01*
X131953445Y-72235501D01*
X131964820Y-72198005D01*
X131983292Y-72163446D01*
X132008153Y-72133153D01*
X132038446Y-72108292D01*
X132073005Y-72089820D01*
X132110501Y-72078445D01*
X132155638Y-72074000D01*
X132894362Y-72074000D01*
X132939499Y-72078445D01*
X132939499Y-72078445D01*
G37*
G36*
X87660721Y-71970174D02*
G01*
X87760995Y-72011709D01*
X87760996Y-72011710D01*
X87851242Y-72072010D01*
X87927990Y-72148758D01*
X87937804Y-72163446D01*
X87988291Y-72239005D01*
X88029826Y-72339279D01*
X88051000Y-72445730D01*
X88051000Y-72554270D01*
X88029826Y-72660721D01*
X87988291Y-72760995D01*
X87962277Y-72799928D01*
X87927990Y-72851242D01*
X87851242Y-72927990D01*
X87836261Y-72938000D01*
X87760995Y-72988291D01*
X87660721Y-73029826D01*
X87554270Y-73051000D01*
X87445730Y-73051000D01*
X87339279Y-73029826D01*
X87239005Y-72988291D01*
X87163739Y-72938000D01*
X87148758Y-72927990D01*
X87072010Y-72851242D01*
X87037723Y-72799928D01*
X87011709Y-72760995D01*
X86970174Y-72660721D01*
X86949000Y-72554270D01*
X86949000Y-72445730D01*
X86970174Y-72339279D01*
X87011709Y-72239005D01*
X87062196Y-72163446D01*
X87072010Y-72148758D01*
X87148758Y-72072010D01*
X87239004Y-72011710D01*
X87239005Y-72011709D01*
X87339279Y-71970174D01*
X87445730Y-71949000D01*
X87554270Y-71949000D01*
X87660721Y-71970174D01*
X87660721Y-71970174D01*
G37*
G36*
X135831552Y-72066331D02*
G01*
X135898398Y-72094020D01*
X135913629Y-72100329D01*
X135950813Y-72125175D01*
X135986111Y-72148760D01*
X135987496Y-72149686D01*
X136050314Y-72212504D01*
X136099217Y-72285691D01*
X136099672Y-72286373D01*
X136133669Y-72368448D01*
X136151000Y-72455579D01*
X136151000Y-72544421D01*
X136133669Y-72631552D01*
X136099672Y-72713627D01*
X136050315Y-72787495D01*
X135987495Y-72850315D01*
X135955861Y-72871452D01*
X135913629Y-72899671D01*
X135913628Y-72899672D01*
X135913627Y-72899672D01*
X135831552Y-72933669D01*
X135744421Y-72951000D01*
X135655579Y-72951000D01*
X135568448Y-72933669D01*
X135486373Y-72899672D01*
X135486372Y-72899672D01*
X135486371Y-72899671D01*
X135444139Y-72871452D01*
X135412505Y-72850315D01*
X135349685Y-72787495D01*
X135300328Y-72713627D01*
X135266331Y-72631552D01*
X135249000Y-72544421D01*
X135249000Y-72455579D01*
X135266331Y-72368448D01*
X135300328Y-72286373D01*
X135300784Y-72285691D01*
X135349686Y-72212504D01*
X135412504Y-72149686D01*
X135413890Y-72148760D01*
X135449187Y-72125175D01*
X135486371Y-72100329D01*
X135501602Y-72094020D01*
X135568448Y-72066331D01*
X135655579Y-72049000D01*
X135744421Y-72049000D01*
X135831552Y-72066331D01*
X135831552Y-72066331D01*
G37*
G36*
X143409928Y-72191764D02*
G01*
X143431009Y-72198160D01*
X143450445Y-72208548D01*
X143467476Y-72222524D01*
X143481452Y-72239555D01*
X143491840Y-72258991D01*
X143498236Y-72280072D01*
X143501000Y-72308140D01*
X143501000Y-72771860D01*
X143498236Y-72799928D01*
X143491840Y-72821009D01*
X143481452Y-72840445D01*
X143467476Y-72857476D01*
X143450445Y-72871452D01*
X143431009Y-72881840D01*
X143409928Y-72888236D01*
X143381860Y-72891000D01*
X141568140Y-72891000D01*
X141540072Y-72888236D01*
X141518991Y-72881840D01*
X141499555Y-72871452D01*
X141482524Y-72857476D01*
X141468548Y-72840445D01*
X141458160Y-72821009D01*
X141451764Y-72799928D01*
X141449000Y-72771860D01*
X141449000Y-72308140D01*
X141451764Y-72280072D01*
X141458160Y-72258991D01*
X141468548Y-72239555D01*
X141482524Y-72222524D01*
X141499555Y-72208548D01*
X141518991Y-72198160D01*
X141540072Y-72191764D01*
X141568140Y-72189000D01*
X143381860Y-72189000D01*
X143409928Y-72191764D01*
X143409928Y-72191764D01*
G37*
G36*
X138459928Y-72191764D02*
G01*
X138481009Y-72198160D01*
X138500445Y-72208548D01*
X138517476Y-72222524D01*
X138531452Y-72239555D01*
X138541840Y-72258991D01*
X138548236Y-72280072D01*
X138551000Y-72308140D01*
X138551000Y-72771860D01*
X138548236Y-72799928D01*
X138541840Y-72821009D01*
X138531452Y-72840445D01*
X138517476Y-72857476D01*
X138500445Y-72871452D01*
X138481009Y-72881840D01*
X138459928Y-72888236D01*
X138431860Y-72891000D01*
X136618140Y-72891000D01*
X136590072Y-72888236D01*
X136568991Y-72881840D01*
X136549555Y-72871452D01*
X136532524Y-72857476D01*
X136518548Y-72840445D01*
X136508160Y-72821009D01*
X136501764Y-72799928D01*
X136499000Y-72771860D01*
X136499000Y-72308140D01*
X136501764Y-72280072D01*
X136508160Y-72258991D01*
X136518548Y-72239555D01*
X136532524Y-72222524D01*
X136549555Y-72208548D01*
X136568991Y-72198160D01*
X136590072Y-72191764D01*
X136618140Y-72189000D01*
X138431860Y-72189000D01*
X138459928Y-72191764D01*
X138459928Y-72191764D01*
G37*
G36*
X157277395Y-70085546D02*
G01*
X157450466Y-70157234D01*
X157477803Y-70175500D01*
X157606227Y-70261310D01*
X157738690Y-70393773D01*
X157767275Y-70436554D01*
X157842766Y-70549534D01*
X157914454Y-70722605D01*
X157951000Y-70906333D01*
X157951000Y-71093667D01*
X157914454Y-71277395D01*
X157842766Y-71450466D01*
X157791081Y-71527818D01*
X157738690Y-71606227D01*
X157606227Y-71738690D01*
X157527818Y-71791081D01*
X157450466Y-71842766D01*
X157277395Y-71914454D01*
X157093667Y-71951000D01*
X156906333Y-71951000D01*
X156722605Y-71914454D01*
X156549534Y-71842766D01*
X156472182Y-71791081D01*
X156393773Y-71738690D01*
X156261310Y-71606227D01*
X156208919Y-71527818D01*
X156157234Y-71450466D01*
X156085546Y-71277395D01*
X156049000Y-71093667D01*
X156049000Y-70906333D01*
X156085546Y-70722605D01*
X156157234Y-70549534D01*
X156232725Y-70436554D01*
X156261310Y-70393773D01*
X156393773Y-70261310D01*
X156522197Y-70175500D01*
X156549534Y-70157234D01*
X156722605Y-70085546D01*
X156906333Y-70049000D01*
X157093667Y-70049000D01*
X157277395Y-70085546D01*
X157277395Y-70085546D01*
G37*
G36*
X143409928Y-70921764D02*
G01*
X143431009Y-70928160D01*
X143450445Y-70938548D01*
X143467476Y-70952524D01*
X143481452Y-70969555D01*
X143491840Y-70988991D01*
X143498236Y-71010072D01*
X143501000Y-71038140D01*
X143501000Y-71501860D01*
X143498236Y-71529928D01*
X143491840Y-71551009D01*
X143481452Y-71570445D01*
X143467476Y-71587476D01*
X143450445Y-71601452D01*
X143431009Y-71611840D01*
X143409928Y-71618236D01*
X143381860Y-71621000D01*
X141568140Y-71621000D01*
X141540072Y-71618236D01*
X141518991Y-71611840D01*
X141499555Y-71601452D01*
X141482524Y-71587476D01*
X141468548Y-71570445D01*
X141458160Y-71551009D01*
X141451764Y-71529928D01*
X141449000Y-71501860D01*
X141449000Y-71038140D01*
X141451764Y-71010072D01*
X141458160Y-70988991D01*
X141468548Y-70969555D01*
X141482524Y-70952524D01*
X141499555Y-70938548D01*
X141518991Y-70928160D01*
X141540072Y-70921764D01*
X141568140Y-70919000D01*
X143381860Y-70919000D01*
X143409928Y-70921764D01*
X143409928Y-70921764D01*
G37*
G36*
X138459928Y-70921764D02*
G01*
X138481009Y-70928160D01*
X138500445Y-70938548D01*
X138517476Y-70952524D01*
X138531452Y-70969555D01*
X138541840Y-70988991D01*
X138548236Y-71010072D01*
X138551000Y-71038140D01*
X138551000Y-71501860D01*
X138548236Y-71529928D01*
X138541840Y-71551009D01*
X138531452Y-71570445D01*
X138517476Y-71587476D01*
X138500445Y-71601452D01*
X138481009Y-71611840D01*
X138459928Y-71618236D01*
X138431860Y-71621000D01*
X136618140Y-71621000D01*
X136590072Y-71618236D01*
X136568991Y-71611840D01*
X136549555Y-71601452D01*
X136532524Y-71587476D01*
X136518548Y-71570445D01*
X136508160Y-71551009D01*
X136501764Y-71529928D01*
X136499000Y-71501860D01*
X136499000Y-71038140D01*
X136501764Y-71010072D01*
X136508160Y-70988991D01*
X136518548Y-70969555D01*
X136532524Y-70952524D01*
X136549555Y-70938548D01*
X136568991Y-70928160D01*
X136590072Y-70921764D01*
X136618140Y-70919000D01*
X138431860Y-70919000D01*
X138459928Y-70921764D01*
X138459928Y-70921764D01*
G37*
G36*
X144860721Y-70070174D02*
G01*
X144960995Y-70111709D01*
X144960996Y-70111710D01*
X145051242Y-70172010D01*
X145127990Y-70248758D01*
X145127991Y-70248760D01*
X145188291Y-70339005D01*
X145229826Y-70439279D01*
X145251000Y-70545730D01*
X145251000Y-70654270D01*
X145229826Y-70760721D01*
X145188291Y-70860995D01*
X145188290Y-70860996D01*
X145127990Y-70951242D01*
X145051242Y-71027990D01*
X145036051Y-71038140D01*
X144960995Y-71088291D01*
X144860721Y-71129826D01*
X144754270Y-71151000D01*
X144645730Y-71151000D01*
X144539279Y-71129826D01*
X144439005Y-71088291D01*
X144363949Y-71038140D01*
X144348758Y-71027990D01*
X144272010Y-70951242D01*
X144211710Y-70860996D01*
X144211709Y-70860995D01*
X144170174Y-70760721D01*
X144149000Y-70654270D01*
X144149000Y-70545730D01*
X144170174Y-70439279D01*
X144211709Y-70339005D01*
X144272009Y-70248760D01*
X144272010Y-70248758D01*
X144348758Y-70172010D01*
X144439004Y-70111710D01*
X144439005Y-70111709D01*
X144539279Y-70070174D01*
X144645730Y-70049000D01*
X144754270Y-70049000D01*
X144860721Y-70070174D01*
X144860721Y-70070174D01*
G37*
G36*
X146360721Y-70070174D02*
G01*
X146460995Y-70111709D01*
X146460996Y-70111710D01*
X146551242Y-70172010D01*
X146627990Y-70248758D01*
X146627991Y-70248760D01*
X146688291Y-70339005D01*
X146729826Y-70439279D01*
X146751000Y-70545730D01*
X146751000Y-70654270D01*
X146729826Y-70760721D01*
X146688291Y-70860995D01*
X146688290Y-70860996D01*
X146627990Y-70951242D01*
X146551242Y-71027990D01*
X146536051Y-71038140D01*
X146460995Y-71088291D01*
X146360721Y-71129826D01*
X146254270Y-71151000D01*
X146145730Y-71151000D01*
X146039279Y-71129826D01*
X145939005Y-71088291D01*
X145863949Y-71038140D01*
X145848758Y-71027990D01*
X145772010Y-70951242D01*
X145711710Y-70860996D01*
X145711709Y-70860995D01*
X145670174Y-70760721D01*
X145649000Y-70654270D01*
X145649000Y-70545730D01*
X145670174Y-70439279D01*
X145711709Y-70339005D01*
X145772009Y-70248760D01*
X145772010Y-70248758D01*
X145848758Y-70172010D01*
X145939004Y-70111710D01*
X145939005Y-70111709D01*
X146039279Y-70070174D01*
X146145730Y-70049000D01*
X146254270Y-70049000D01*
X146360721Y-70070174D01*
X146360721Y-70070174D01*
G37*
G36*
X140160721Y-69570174D02*
G01*
X140260995Y-69611709D01*
X140260996Y-69611710D01*
X140351242Y-69672010D01*
X140427990Y-69748758D01*
X140455722Y-69790262D01*
X140488291Y-69839005D01*
X140529826Y-69939279D01*
X140551000Y-70045730D01*
X140551000Y-70154270D01*
X140529826Y-70260721D01*
X140488291Y-70360995D01*
X140466389Y-70393773D01*
X140427990Y-70451242D01*
X140351242Y-70527990D01*
X140319000Y-70549533D01*
X140260995Y-70588291D01*
X140160721Y-70629826D01*
X140054270Y-70651000D01*
X139945730Y-70651000D01*
X139839279Y-70629826D01*
X139739005Y-70588291D01*
X139681000Y-70549533D01*
X139648758Y-70527990D01*
X139572010Y-70451242D01*
X139533611Y-70393773D01*
X139511709Y-70360995D01*
X139470174Y-70260721D01*
X139449000Y-70154270D01*
X139449000Y-70045730D01*
X139470174Y-69939279D01*
X139511709Y-69839005D01*
X139544278Y-69790262D01*
X139572010Y-69748758D01*
X139648758Y-69672010D01*
X139739004Y-69611710D01*
X139739005Y-69611709D01*
X139839279Y-69570174D01*
X139945730Y-69549000D01*
X140054270Y-69549000D01*
X140160721Y-69570174D01*
X140160721Y-69570174D01*
G37*
G36*
X175160721Y-69470174D02*
G01*
X175260995Y-69511709D01*
X175293088Y-69533153D01*
X175351242Y-69572010D01*
X175427990Y-69648758D01*
X175452668Y-69685691D01*
X175488291Y-69739005D01*
X175529826Y-69839279D01*
X175551000Y-69945730D01*
X175551000Y-70054270D01*
X175529826Y-70160721D01*
X175488291Y-70260995D01*
X175486951Y-70263000D01*
X175427990Y-70351242D01*
X175351242Y-70427990D01*
X175319844Y-70448969D01*
X175260995Y-70488291D01*
X175160721Y-70529826D01*
X175054270Y-70551000D01*
X174945730Y-70551000D01*
X174839279Y-70529826D01*
X174739005Y-70488291D01*
X174680156Y-70448969D01*
X174648758Y-70427990D01*
X174572010Y-70351242D01*
X174513049Y-70263000D01*
X174511709Y-70260995D01*
X174470174Y-70160721D01*
X174449000Y-70054270D01*
X174449000Y-69945730D01*
X174470174Y-69839279D01*
X174511709Y-69739005D01*
X174547332Y-69685691D01*
X174572010Y-69648758D01*
X174648758Y-69572010D01*
X174706912Y-69533153D01*
X174739005Y-69511709D01*
X174839279Y-69470174D01*
X174945730Y-69449000D01*
X175054270Y-69449000D01*
X175160721Y-69470174D01*
X175160721Y-69470174D01*
G37*
G36*
X148539499Y-69478445D02*
G01*
X148576995Y-69489820D01*
X148611554Y-69508292D01*
X148641847Y-69533153D01*
X148666708Y-69563446D01*
X148685180Y-69598005D01*
X148696555Y-69635501D01*
X148701000Y-69680638D01*
X148701000Y-70319362D01*
X148696555Y-70364499D01*
X148685180Y-70401995D01*
X148666708Y-70436554D01*
X148641847Y-70466847D01*
X148611554Y-70491708D01*
X148576995Y-70510180D01*
X148539499Y-70521555D01*
X148494362Y-70526000D01*
X147755638Y-70526000D01*
X147710501Y-70521555D01*
X147673005Y-70510180D01*
X147638446Y-70491708D01*
X147608153Y-70466847D01*
X147583292Y-70436554D01*
X147564820Y-70401995D01*
X147553445Y-70364499D01*
X147549000Y-70319362D01*
X147549000Y-69680638D01*
X147553445Y-69635501D01*
X147564820Y-69598005D01*
X147583292Y-69563446D01*
X147608153Y-69533153D01*
X147638446Y-69508292D01*
X147673005Y-69489820D01*
X147710501Y-69478445D01*
X147755638Y-69474000D01*
X148494362Y-69474000D01*
X148539499Y-69478445D01*
X148539499Y-69478445D01*
G37*
G36*
X150289499Y-69478445D02*
G01*
X150326995Y-69489820D01*
X150361554Y-69508292D01*
X150391847Y-69533153D01*
X150416708Y-69563446D01*
X150435180Y-69598005D01*
X150446555Y-69635501D01*
X150451000Y-69680638D01*
X150451000Y-70319362D01*
X150446555Y-70364499D01*
X150435180Y-70401995D01*
X150416708Y-70436554D01*
X150391847Y-70466847D01*
X150361554Y-70491708D01*
X150326995Y-70510180D01*
X150289499Y-70521555D01*
X150244362Y-70526000D01*
X149505638Y-70526000D01*
X149460501Y-70521555D01*
X149423005Y-70510180D01*
X149388446Y-70491708D01*
X149358153Y-70466847D01*
X149333292Y-70436554D01*
X149314820Y-70401995D01*
X149303445Y-70364499D01*
X149299000Y-70319362D01*
X149299000Y-69680638D01*
X149303445Y-69635501D01*
X149314820Y-69598005D01*
X149333292Y-69563446D01*
X149358153Y-69533153D01*
X149388446Y-69508292D01*
X149423005Y-69489820D01*
X149460501Y-69478445D01*
X149505638Y-69474000D01*
X150244362Y-69474000D01*
X150289499Y-69478445D01*
X150289499Y-69478445D01*
G37*
G36*
X143409928Y-69651764D02*
G01*
X143431009Y-69658160D01*
X143450445Y-69668548D01*
X143467476Y-69682524D01*
X143481452Y-69699555D01*
X143491840Y-69718991D01*
X143498236Y-69740072D01*
X143501000Y-69768140D01*
X143501000Y-70231860D01*
X143498236Y-70259928D01*
X143491840Y-70281009D01*
X143481452Y-70300445D01*
X143467476Y-70317476D01*
X143450445Y-70331452D01*
X143431009Y-70341840D01*
X143409928Y-70348236D01*
X143381860Y-70351000D01*
X141568140Y-70351000D01*
X141540072Y-70348236D01*
X141518991Y-70341840D01*
X141499555Y-70331452D01*
X141482524Y-70317476D01*
X141468548Y-70300445D01*
X141458160Y-70281009D01*
X141451764Y-70259928D01*
X141449000Y-70231860D01*
X141449000Y-69768140D01*
X141451764Y-69740072D01*
X141458160Y-69718991D01*
X141468548Y-69699555D01*
X141482524Y-69682524D01*
X141499555Y-69668548D01*
X141518991Y-69658160D01*
X141540072Y-69651764D01*
X141568140Y-69649000D01*
X143381860Y-69649000D01*
X143409928Y-69651764D01*
X143409928Y-69651764D01*
G37*
G36*
X138459928Y-69651764D02*
G01*
X138481009Y-69658160D01*
X138500445Y-69668548D01*
X138517476Y-69682524D01*
X138531452Y-69699555D01*
X138541840Y-69718991D01*
X138548236Y-69740072D01*
X138551000Y-69768140D01*
X138551000Y-70231860D01*
X138548236Y-70259928D01*
X138541840Y-70281009D01*
X138531452Y-70300445D01*
X138517476Y-70317476D01*
X138500445Y-70331452D01*
X138481009Y-70341840D01*
X138459928Y-70348236D01*
X138431860Y-70351000D01*
X136618140Y-70351000D01*
X136590072Y-70348236D01*
X136568991Y-70341840D01*
X136549555Y-70331452D01*
X136532524Y-70317476D01*
X136518548Y-70300445D01*
X136508160Y-70281009D01*
X136501764Y-70259928D01*
X136499000Y-70231860D01*
X136499000Y-69768140D01*
X136501764Y-69740072D01*
X136508160Y-69718991D01*
X136518548Y-69699555D01*
X136532524Y-69682524D01*
X136549555Y-69668548D01*
X136568991Y-69658160D01*
X136590072Y-69651764D01*
X136618140Y-69649000D01*
X138431860Y-69649000D01*
X138459928Y-69651764D01*
X138459928Y-69651764D01*
G37*
G36*
X157277395Y-67585546D02*
G01*
X157450466Y-67657234D01*
X157502287Y-67691860D01*
X157606227Y-67761310D01*
X157738690Y-67893773D01*
X157779987Y-67955579D01*
X157842766Y-68049534D01*
X157914454Y-68222605D01*
X157951000Y-68406333D01*
X157951000Y-68593667D01*
X157914454Y-68777395D01*
X157842766Y-68950466D01*
X157827936Y-68972661D01*
X157738690Y-69106227D01*
X157606227Y-69238690D01*
X157527818Y-69291081D01*
X157450466Y-69342766D01*
X157277395Y-69414454D01*
X157093667Y-69451000D01*
X156906333Y-69451000D01*
X156722605Y-69414454D01*
X156549534Y-69342766D01*
X156472182Y-69291081D01*
X156393773Y-69238690D01*
X156261310Y-69106227D01*
X156172064Y-68972661D01*
X156157234Y-68950466D01*
X156085546Y-68777395D01*
X156049000Y-68593667D01*
X156049000Y-68406333D01*
X156085546Y-68222605D01*
X156157234Y-68049534D01*
X156220013Y-67955579D01*
X156261310Y-67893773D01*
X156393773Y-67761310D01*
X156497713Y-67691860D01*
X156549534Y-67657234D01*
X156722605Y-67585546D01*
X156906333Y-67549000D01*
X157093667Y-67549000D01*
X157277395Y-67585546D01*
X157277395Y-67585546D01*
G37*
G36*
X143409928Y-68381764D02*
G01*
X143431009Y-68388160D01*
X143450445Y-68398548D01*
X143467476Y-68412524D01*
X143481452Y-68429555D01*
X143491840Y-68448991D01*
X143498236Y-68470072D01*
X143501000Y-68498140D01*
X143501000Y-68961860D01*
X143498236Y-68989928D01*
X143491840Y-69011009D01*
X143481452Y-69030445D01*
X143467476Y-69047476D01*
X143450445Y-69061452D01*
X143431009Y-69071840D01*
X143409928Y-69078236D01*
X143381860Y-69081000D01*
X141568140Y-69081000D01*
X141540072Y-69078236D01*
X141518991Y-69071840D01*
X141499555Y-69061452D01*
X141482524Y-69047476D01*
X141468548Y-69030445D01*
X141458160Y-69011009D01*
X141451764Y-68989928D01*
X141449000Y-68961860D01*
X141449000Y-68498140D01*
X141451764Y-68470072D01*
X141458160Y-68448991D01*
X141468548Y-68429555D01*
X141482524Y-68412524D01*
X141499555Y-68398548D01*
X141518991Y-68388160D01*
X141540072Y-68381764D01*
X141568140Y-68379000D01*
X143381860Y-68379000D01*
X143409928Y-68381764D01*
X143409928Y-68381764D01*
G37*
G36*
X138459928Y-68381764D02*
G01*
X138481009Y-68388160D01*
X138500445Y-68398548D01*
X138517476Y-68412524D01*
X138531452Y-68429555D01*
X138541840Y-68448991D01*
X138548236Y-68470072D01*
X138551000Y-68498140D01*
X138551000Y-68961860D01*
X138548236Y-68989928D01*
X138541840Y-69011009D01*
X138531452Y-69030445D01*
X138517476Y-69047476D01*
X138500445Y-69061452D01*
X138481009Y-69071840D01*
X138459928Y-69078236D01*
X138431860Y-69081000D01*
X136618140Y-69081000D01*
X136590072Y-69078236D01*
X136568991Y-69071840D01*
X136549555Y-69061452D01*
X136532524Y-69047476D01*
X136518548Y-69030445D01*
X136508160Y-69011009D01*
X136501764Y-68989928D01*
X136499000Y-68961860D01*
X136499000Y-68498140D01*
X136501764Y-68470072D01*
X136508160Y-68448991D01*
X136518548Y-68429555D01*
X136532524Y-68412524D01*
X136549555Y-68398548D01*
X136568991Y-68388160D01*
X136590072Y-68381764D01*
X136618140Y-68379000D01*
X138431860Y-68379000D01*
X138459928Y-68381764D01*
X138459928Y-68381764D01*
G37*
G36*
X140431552Y-67566331D02*
G01*
X140513627Y-67600328D01*
X140513629Y-67600329D01*
X140550813Y-67625175D01*
X140566266Y-67635500D01*
X140587496Y-67649686D01*
X140650314Y-67712504D01*
X140682926Y-67761310D01*
X140699672Y-67786373D01*
X140733669Y-67868448D01*
X140751000Y-67955579D01*
X140751000Y-68044421D01*
X140733669Y-68131552D01*
X140699672Y-68213627D01*
X140699671Y-68213629D01*
X140650314Y-68287496D01*
X140587496Y-68350314D01*
X140513629Y-68399671D01*
X140513628Y-68399672D01*
X140513627Y-68399672D01*
X140431552Y-68433669D01*
X140344421Y-68451000D01*
X140255579Y-68451000D01*
X140168448Y-68433669D01*
X140086373Y-68399672D01*
X140086372Y-68399672D01*
X140086371Y-68399671D01*
X140012504Y-68350314D01*
X139949686Y-68287496D01*
X139900329Y-68213629D01*
X139900328Y-68213627D01*
X139866331Y-68131552D01*
X139849000Y-68044421D01*
X139849000Y-67955579D01*
X139866331Y-67868448D01*
X139900328Y-67786373D01*
X139917075Y-67761310D01*
X139949686Y-67712504D01*
X140012504Y-67649686D01*
X140033735Y-67635500D01*
X140049187Y-67625175D01*
X140086371Y-67600329D01*
X140086373Y-67600328D01*
X140168448Y-67566331D01*
X140255579Y-67549000D01*
X140344421Y-67549000D01*
X140431552Y-67566331D01*
X140431552Y-67566331D01*
G37*
G36*
X87660721Y-66970174D02*
G01*
X87760995Y-67011709D01*
X87760996Y-67011710D01*
X87851242Y-67072010D01*
X87927990Y-67148758D01*
X87927991Y-67148760D01*
X87988291Y-67239005D01*
X88029826Y-67339279D01*
X88051000Y-67445730D01*
X88051000Y-67554270D01*
X88029826Y-67660721D01*
X87988291Y-67760995D01*
X87974641Y-67781423D01*
X87927990Y-67851242D01*
X87851242Y-67927990D01*
X87809952Y-67955579D01*
X87760995Y-67988291D01*
X87660721Y-68029826D01*
X87554270Y-68051000D01*
X87445730Y-68051000D01*
X87339279Y-68029826D01*
X87239005Y-67988291D01*
X87190048Y-67955579D01*
X87148758Y-67927990D01*
X87072010Y-67851242D01*
X87025359Y-67781423D01*
X87011709Y-67760995D01*
X86970174Y-67660721D01*
X86949000Y-67554270D01*
X86949000Y-67445730D01*
X86970174Y-67339279D01*
X87011709Y-67239005D01*
X87072009Y-67148760D01*
X87072010Y-67148758D01*
X87148758Y-67072010D01*
X87239004Y-67011710D01*
X87239005Y-67011709D01*
X87339279Y-66970174D01*
X87445730Y-66949000D01*
X87554270Y-66949000D01*
X87660721Y-66970174D01*
X87660721Y-66970174D01*
G37*
G36*
X138459928Y-67111764D02*
G01*
X138481009Y-67118160D01*
X138500445Y-67128548D01*
X138517476Y-67142524D01*
X138531452Y-67159555D01*
X138541840Y-67178991D01*
X138548236Y-67200072D01*
X138551000Y-67228140D01*
X138551000Y-67691860D01*
X138548236Y-67719928D01*
X138541840Y-67741009D01*
X138531452Y-67760445D01*
X138517476Y-67777476D01*
X138500445Y-67791452D01*
X138481009Y-67801840D01*
X138459928Y-67808236D01*
X138431860Y-67811000D01*
X136618140Y-67811000D01*
X136590072Y-67808236D01*
X136568991Y-67801840D01*
X136549555Y-67791452D01*
X136532524Y-67777476D01*
X136518548Y-67760445D01*
X136508160Y-67741009D01*
X136501764Y-67719928D01*
X136499000Y-67691860D01*
X136499000Y-67228140D01*
X136501764Y-67200072D01*
X136508160Y-67178991D01*
X136518548Y-67159555D01*
X136532524Y-67142524D01*
X136549555Y-67128548D01*
X136568991Y-67118160D01*
X136590072Y-67111764D01*
X136618140Y-67109000D01*
X138431860Y-67109000D01*
X138459928Y-67111764D01*
X138459928Y-67111764D01*
G37*
G36*
X143409928Y-67111764D02*
G01*
X143431009Y-67118160D01*
X143450445Y-67128548D01*
X143467476Y-67142524D01*
X143481452Y-67159555D01*
X143491840Y-67178991D01*
X143498236Y-67200072D01*
X143501000Y-67228140D01*
X143501000Y-67691860D01*
X143498236Y-67719928D01*
X143491840Y-67741009D01*
X143481452Y-67760445D01*
X143467476Y-67777476D01*
X143450445Y-67791452D01*
X143431009Y-67801840D01*
X143409928Y-67808236D01*
X143381860Y-67811000D01*
X141568140Y-67811000D01*
X141540072Y-67808236D01*
X141518991Y-67801840D01*
X141499555Y-67791452D01*
X141482524Y-67777476D01*
X141468548Y-67760445D01*
X141458160Y-67741009D01*
X141451764Y-67719928D01*
X141449000Y-67691860D01*
X141449000Y-67228140D01*
X141451764Y-67200072D01*
X141458160Y-67178991D01*
X141468548Y-67159555D01*
X141482524Y-67142524D01*
X141499555Y-67128548D01*
X141518991Y-67118160D01*
X141540072Y-67111764D01*
X141568140Y-67109000D01*
X143381860Y-67109000D01*
X143409928Y-67111764D01*
X143409928Y-67111764D01*
G37*
G36*
X157277395Y-65085546D02*
G01*
X157450466Y-65157234D01*
X157512973Y-65199000D01*
X157606227Y-65261310D01*
X157738690Y-65393773D01*
X157791081Y-65472182D01*
X157842766Y-65549534D01*
X157914454Y-65722605D01*
X157951000Y-65906333D01*
X157951000Y-66093667D01*
X157914454Y-66277395D01*
X157842766Y-66450466D01*
X157818024Y-66487495D01*
X157738690Y-66606227D01*
X157606227Y-66738690D01*
X157559042Y-66770218D01*
X157450466Y-66842766D01*
X157277395Y-66914454D01*
X157093667Y-66951000D01*
X156906333Y-66951000D01*
X156722605Y-66914454D01*
X156549534Y-66842766D01*
X156440958Y-66770218D01*
X156393773Y-66738690D01*
X156261310Y-66606227D01*
X156181976Y-66487495D01*
X156157234Y-66450466D01*
X156085546Y-66277395D01*
X156049000Y-66093667D01*
X156049000Y-65906333D01*
X156085546Y-65722605D01*
X156157234Y-65549534D01*
X156208919Y-65472182D01*
X156261310Y-65393773D01*
X156393773Y-65261310D01*
X156487027Y-65199000D01*
X156549534Y-65157234D01*
X156722605Y-65085546D01*
X156906333Y-65049000D01*
X157093667Y-65049000D01*
X157277395Y-65085546D01*
X157277395Y-65085546D01*
G37*
G36*
X131233642Y-65229781D02*
G01*
X131309759Y-65261310D01*
X131379416Y-65290163D01*
X131510608Y-65377822D01*
X131622178Y-65489392D01*
X131709837Y-65620584D01*
X131709838Y-65620586D01*
X131770219Y-65766358D01*
X131801000Y-65921107D01*
X131801000Y-66078893D01*
X131770219Y-66233642D01*
X131752095Y-66277396D01*
X131709837Y-66379416D01*
X131622178Y-66510608D01*
X131510608Y-66622178D01*
X131379416Y-66709837D01*
X131379415Y-66709838D01*
X131379414Y-66709838D01*
X131233642Y-66770219D01*
X131078893Y-66801000D01*
X130921107Y-66801000D01*
X130766358Y-66770219D01*
X130620586Y-66709838D01*
X130620585Y-66709838D01*
X130620584Y-66709837D01*
X130489392Y-66622178D01*
X130377822Y-66510608D01*
X130290163Y-66379416D01*
X130247905Y-66277396D01*
X130229781Y-66233642D01*
X130199000Y-66078893D01*
X130199000Y-65921107D01*
X130229781Y-65766358D01*
X130290162Y-65620586D01*
X130290163Y-65620584D01*
X130377822Y-65489392D01*
X130489392Y-65377822D01*
X130620584Y-65290163D01*
X130690241Y-65261310D01*
X130766358Y-65229781D01*
X130921107Y-65199000D01*
X131078893Y-65199000D01*
X131233642Y-65229781D01*
X131233642Y-65229781D01*
G37*
G36*
X134731552Y-65766331D02*
G01*
X134813627Y-65800328D01*
X134813629Y-65800329D01*
X134850813Y-65825175D01*
X134887495Y-65849685D01*
X134950315Y-65912505D01*
X134999672Y-65986373D01*
X135033669Y-66068448D01*
X135051000Y-66155579D01*
X135051000Y-66244421D01*
X135033669Y-66331552D01*
X134999672Y-66413627D01*
X134961331Y-66471009D01*
X134950314Y-66487496D01*
X134887496Y-66550314D01*
X134813629Y-66599671D01*
X134813628Y-66599672D01*
X134813627Y-66599672D01*
X134731552Y-66633669D01*
X134644421Y-66651000D01*
X134555579Y-66651000D01*
X134468448Y-66633669D01*
X134386373Y-66599672D01*
X134386372Y-66599672D01*
X134386371Y-66599671D01*
X134312504Y-66550314D01*
X134249686Y-66487496D01*
X134238670Y-66471009D01*
X134200328Y-66413627D01*
X134166331Y-66331552D01*
X134149000Y-66244421D01*
X134149000Y-66155579D01*
X134166331Y-66068448D01*
X134200328Y-65986373D01*
X134249685Y-65912505D01*
X134312505Y-65849685D01*
X134349187Y-65825175D01*
X134386371Y-65800329D01*
X134386373Y-65800328D01*
X134468448Y-65766331D01*
X134555579Y-65749000D01*
X134644421Y-65749000D01*
X134731552Y-65766331D01*
X134731552Y-65766331D01*
G37*
G36*
X143409928Y-65841764D02*
G01*
X143431009Y-65848160D01*
X143450445Y-65858548D01*
X143467476Y-65872524D01*
X143481452Y-65889555D01*
X143491840Y-65908991D01*
X143498236Y-65930072D01*
X143501000Y-65958140D01*
X143501000Y-66421860D01*
X143498236Y-66449928D01*
X143491840Y-66471009D01*
X143481452Y-66490445D01*
X143467476Y-66507476D01*
X143450445Y-66521452D01*
X143431009Y-66531840D01*
X143409928Y-66538236D01*
X143381860Y-66541000D01*
X141568140Y-66541000D01*
X141540072Y-66538236D01*
X141518991Y-66531840D01*
X141499555Y-66521452D01*
X141482524Y-66507476D01*
X141468548Y-66490445D01*
X141458160Y-66471009D01*
X141451764Y-66449928D01*
X141449000Y-66421860D01*
X141449000Y-65958140D01*
X141451764Y-65930072D01*
X141458160Y-65908991D01*
X141468548Y-65889555D01*
X141482524Y-65872524D01*
X141499555Y-65858548D01*
X141518991Y-65848160D01*
X141540072Y-65841764D01*
X141568140Y-65839000D01*
X143381860Y-65839000D01*
X143409928Y-65841764D01*
X143409928Y-65841764D01*
G37*
G36*
X138459928Y-65841764D02*
G01*
X138481009Y-65848160D01*
X138500445Y-65858548D01*
X138517476Y-65872524D01*
X138531452Y-65889555D01*
X138541840Y-65908991D01*
X138548236Y-65930072D01*
X138551000Y-65958140D01*
X138551000Y-66421860D01*
X138548236Y-66449928D01*
X138541840Y-66471009D01*
X138531452Y-66490445D01*
X138517476Y-66507476D01*
X138500445Y-66521452D01*
X138481009Y-66531840D01*
X138459928Y-66538236D01*
X138431860Y-66541000D01*
X136618140Y-66541000D01*
X136590072Y-66538236D01*
X136568991Y-66531840D01*
X136549555Y-66521452D01*
X136532524Y-66507476D01*
X136518548Y-66490445D01*
X136508160Y-66471009D01*
X136501764Y-66449928D01*
X136499000Y-66421860D01*
X136499000Y-65958140D01*
X136501764Y-65930072D01*
X136508160Y-65908991D01*
X136518548Y-65889555D01*
X136532524Y-65872524D01*
X136549555Y-65858548D01*
X136568991Y-65848160D01*
X136590072Y-65841764D01*
X136618140Y-65839000D01*
X138431860Y-65839000D01*
X138459928Y-65841764D01*
X138459928Y-65841764D01*
G37*
G36*
X164598254Y-62127818D02*
G01*
X164866683Y-62239005D01*
X164971513Y-62282427D01*
X165307436Y-62506884D01*
X165593116Y-62792564D01*
X165765798Y-63051000D01*
X165817574Y-63128489D01*
X165972182Y-63501746D01*
X166051000Y-63897993D01*
X166051000Y-64302007D01*
X165972182Y-64698254D01*
X165826898Y-65049000D01*
X165817573Y-65071513D01*
X165593116Y-65407436D01*
X165307436Y-65693116D01*
X164971513Y-65917573D01*
X164971512Y-65917574D01*
X164971511Y-65917574D01*
X164598254Y-66072182D01*
X164202007Y-66151000D01*
X163797993Y-66151000D01*
X163401746Y-66072182D01*
X163028489Y-65917574D01*
X163028488Y-65917574D01*
X163028487Y-65917573D01*
X162692564Y-65693116D01*
X162406884Y-65407436D01*
X162182427Y-65071513D01*
X162173102Y-65049000D01*
X162027818Y-64698254D01*
X161949000Y-64302007D01*
X161949000Y-63897993D01*
X162027818Y-63501746D01*
X162182426Y-63128489D01*
X162234203Y-63051000D01*
X162406884Y-62792564D01*
X162692564Y-62506884D01*
X163028487Y-62282427D01*
X163133317Y-62239005D01*
X163401746Y-62127818D01*
X163797993Y-62049000D01*
X164202007Y-62049000D01*
X164598254Y-62127818D01*
X164598254Y-62127818D01*
G37*
G36*
X175160721Y-64470174D02*
G01*
X175260995Y-64511709D01*
X175260996Y-64511710D01*
X175351242Y-64572010D01*
X175427990Y-64648758D01*
X175427991Y-64648760D01*
X175488291Y-64739005D01*
X175529826Y-64839279D01*
X175551000Y-64945730D01*
X175551000Y-65054270D01*
X175529826Y-65160721D01*
X175488291Y-65260995D01*
X175468802Y-65290162D01*
X175427990Y-65351242D01*
X175351242Y-65427990D01*
X175305812Y-65458345D01*
X175260995Y-65488291D01*
X175160721Y-65529826D01*
X175054270Y-65551000D01*
X174945730Y-65551000D01*
X174839279Y-65529826D01*
X174739005Y-65488291D01*
X174694188Y-65458345D01*
X174648758Y-65427990D01*
X174572010Y-65351242D01*
X174531198Y-65290162D01*
X174511709Y-65260995D01*
X174470174Y-65160721D01*
X174449000Y-65054270D01*
X174449000Y-64945730D01*
X174470174Y-64839279D01*
X174511709Y-64739005D01*
X174572009Y-64648760D01*
X174572010Y-64648758D01*
X174648758Y-64572010D01*
X174739004Y-64511710D01*
X174739005Y-64511709D01*
X174839279Y-64470174D01*
X174945730Y-64449000D01*
X175054270Y-64449000D01*
X175160721Y-64470174D01*
X175160721Y-64470174D01*
G37*
G36*
X87660721Y-61970174D02*
G01*
X87760995Y-62011709D01*
X87760996Y-62011710D01*
X87851242Y-62072010D01*
X87927990Y-62148758D01*
X87927991Y-62148760D01*
X87988291Y-62239005D01*
X88029826Y-62339279D01*
X88051000Y-62445730D01*
X88051000Y-62554270D01*
X88029826Y-62660721D01*
X87988291Y-62760995D01*
X87988290Y-62760996D01*
X87927990Y-62851242D01*
X87851242Y-62927990D01*
X87805812Y-62958345D01*
X87760995Y-62988291D01*
X87660721Y-63029826D01*
X87554270Y-63051000D01*
X87445730Y-63051000D01*
X87339279Y-63029826D01*
X87239005Y-62988291D01*
X87194188Y-62958345D01*
X87148758Y-62927990D01*
X87072010Y-62851242D01*
X87011710Y-62760996D01*
X87011709Y-62760995D01*
X86970174Y-62660721D01*
X86949000Y-62554270D01*
X86949000Y-62445730D01*
X86970174Y-62339279D01*
X87011709Y-62239005D01*
X87072009Y-62148760D01*
X87072010Y-62148758D01*
X87148758Y-62072010D01*
X87239004Y-62011710D01*
X87239005Y-62011709D01*
X87339279Y-61970174D01*
X87445730Y-61949000D01*
X87554270Y-61949000D01*
X87660721Y-61970174D01*
X87660721Y-61970174D01*
G37*
G36*
X98994072Y-59200918D02*
G01*
X99233670Y-59300162D01*
X99239939Y-59302759D01*
X99288397Y-59335138D01*
X99461211Y-59450609D01*
X99649391Y-59638789D01*
X99797242Y-59860063D01*
X99899082Y-60105928D01*
X99951000Y-60366937D01*
X99951000Y-60633063D01*
X99933739Y-60719838D01*
X99899082Y-60894072D01*
X99797241Y-61139939D01*
X99649390Y-61361212D01*
X99461212Y-61549390D01*
X99239939Y-61697241D01*
X99239938Y-61697242D01*
X99239937Y-61697242D01*
X98994072Y-61799082D01*
X98733063Y-61851000D01*
X98466937Y-61851000D01*
X98205928Y-61799082D01*
X97960063Y-61697242D01*
X97960062Y-61697242D01*
X97960061Y-61697241D01*
X97738788Y-61549390D01*
X97550610Y-61361212D01*
X97402759Y-61139939D01*
X97300918Y-60894072D01*
X97266261Y-60719838D01*
X97249000Y-60633063D01*
X97249000Y-60366937D01*
X97300918Y-60105928D01*
X97402758Y-59860063D01*
X97550609Y-59638789D01*
X97738789Y-59450609D01*
X97911603Y-59335138D01*
X97960061Y-59302759D01*
X97966331Y-59300162D01*
X98205928Y-59200918D01*
X98466937Y-59149000D01*
X98733063Y-59149000D01*
X98994072Y-59200918D01*
X98994072Y-59200918D01*
G37*
G36*
X147205997Y-59153051D02*
G01*
X147239652Y-59163261D01*
X147270665Y-59179838D01*
X147297851Y-59202149D01*
X147320162Y-59229335D01*
X147336739Y-59260348D01*
X147346949Y-59294003D01*
X147351000Y-59335138D01*
X147351000Y-60664862D01*
X147346949Y-60705997D01*
X147336739Y-60739652D01*
X147320162Y-60770665D01*
X147297851Y-60797851D01*
X147270665Y-60820162D01*
X147239652Y-60836739D01*
X147205997Y-60846949D01*
X147164862Y-60851000D01*
X144435138Y-60851000D01*
X144394003Y-60846949D01*
X144360348Y-60836739D01*
X144329335Y-60820162D01*
X144302149Y-60797851D01*
X144279838Y-60770665D01*
X144263261Y-60739652D01*
X144253051Y-60705997D01*
X144249000Y-60664862D01*
X144249000Y-59335138D01*
X144253051Y-59294003D01*
X144263261Y-59260348D01*
X144279838Y-59229335D01*
X144302149Y-59202149D01*
X144329335Y-59179838D01*
X144360348Y-59163261D01*
X144394003Y-59153051D01*
X144435138Y-59149000D01*
X147164862Y-59149000D01*
X147205997Y-59153051D01*
X147205997Y-59153051D01*
G37*
G36*
X151605997Y-59153051D02*
G01*
X151639652Y-59163261D01*
X151670665Y-59179838D01*
X151697851Y-59202149D01*
X151720162Y-59229335D01*
X151736739Y-59260348D01*
X151746949Y-59294003D01*
X151751000Y-59335138D01*
X151751000Y-60664862D01*
X151746949Y-60705997D01*
X151736739Y-60739652D01*
X151720162Y-60770665D01*
X151697851Y-60797851D01*
X151670665Y-60820162D01*
X151639652Y-60836739D01*
X151605997Y-60846949D01*
X151564862Y-60851000D01*
X148835138Y-60851000D01*
X148794003Y-60846949D01*
X148760348Y-60836739D01*
X148729335Y-60820162D01*
X148702149Y-60797851D01*
X148679838Y-60770665D01*
X148663261Y-60739652D01*
X148653051Y-60705997D01*
X148649000Y-60664862D01*
X148649000Y-59335138D01*
X148653051Y-59294003D01*
X148663261Y-59260348D01*
X148679838Y-59229335D01*
X148702149Y-59202149D01*
X148729335Y-59179838D01*
X148760348Y-59163261D01*
X148794003Y-59153051D01*
X148835138Y-59149000D01*
X151564862Y-59149000D01*
X151605997Y-59153051D01*
X151605997Y-59153051D01*
G37*
G36*
X130983642Y-59239781D02*
G01*
X131129414Y-59300162D01*
X131129416Y-59300163D01*
X131260608Y-59387822D01*
X131372178Y-59499392D01*
X131420699Y-59572010D01*
X131459838Y-59630586D01*
X131520219Y-59776358D01*
X131551000Y-59931107D01*
X131551000Y-60088893D01*
X131520219Y-60243642D01*
X131475650Y-60351240D01*
X131459837Y-60389416D01*
X131372178Y-60520608D01*
X131260608Y-60632178D01*
X131129416Y-60719837D01*
X131129415Y-60719838D01*
X131129414Y-60719838D01*
X130983642Y-60780219D01*
X130828893Y-60811000D01*
X130671107Y-60811000D01*
X130516358Y-60780219D01*
X130370586Y-60719838D01*
X130370585Y-60719838D01*
X130370584Y-60719837D01*
X130239392Y-60632178D01*
X130127822Y-60520608D01*
X130040163Y-60389416D01*
X130024350Y-60351240D01*
X129979781Y-60243642D01*
X129949000Y-60088893D01*
X129949000Y-59931107D01*
X129979781Y-59776358D01*
X130040162Y-59630586D01*
X130079301Y-59572010D01*
X130127822Y-59499392D01*
X130239392Y-59387822D01*
X130370584Y-59300163D01*
X130370586Y-59300162D01*
X130516358Y-59239781D01*
X130671107Y-59209000D01*
X130828893Y-59209000D01*
X130983642Y-59239781D01*
X130983642Y-59239781D01*
G37*
G36*
X134533642Y-59239781D02*
G01*
X134679414Y-59300162D01*
X134679416Y-59300163D01*
X134810608Y-59387822D01*
X134922178Y-59499392D01*
X134970699Y-59572010D01*
X135009838Y-59630586D01*
X135070219Y-59776358D01*
X135101000Y-59931107D01*
X135101000Y-60088893D01*
X135070219Y-60243642D01*
X135025650Y-60351240D01*
X135009837Y-60389416D01*
X134922178Y-60520608D01*
X134810608Y-60632178D01*
X134679416Y-60719837D01*
X134679415Y-60719838D01*
X134679414Y-60719838D01*
X134533642Y-60780219D01*
X134378893Y-60811000D01*
X134221107Y-60811000D01*
X134066358Y-60780219D01*
X133920586Y-60719838D01*
X133920585Y-60719838D01*
X133920584Y-60719837D01*
X133789392Y-60632178D01*
X133677822Y-60520608D01*
X133590163Y-60389416D01*
X133574350Y-60351240D01*
X133529781Y-60243642D01*
X133499000Y-60088893D01*
X133499000Y-59931107D01*
X133529781Y-59776358D01*
X133590162Y-59630586D01*
X133629301Y-59572010D01*
X133677822Y-59499392D01*
X133789392Y-59387822D01*
X133920584Y-59300163D01*
X133920586Y-59300162D01*
X134066358Y-59239781D01*
X134221107Y-59209000D01*
X134378893Y-59209000D01*
X134533642Y-59239781D01*
X134533642Y-59239781D01*
G37*
G36*
X175160721Y-59470174D02*
G01*
X175260995Y-59511709D01*
X175260996Y-59511710D01*
X175351242Y-59572010D01*
X175427990Y-59648758D01*
X175427991Y-59648760D01*
X175488291Y-59739005D01*
X175529826Y-59839279D01*
X175551000Y-59945730D01*
X175551000Y-60054270D01*
X175529826Y-60160721D01*
X175488291Y-60260995D01*
X175488290Y-60260996D01*
X175427990Y-60351242D01*
X175351242Y-60427990D01*
X175305812Y-60458345D01*
X175260995Y-60488291D01*
X175160721Y-60529826D01*
X175054270Y-60551000D01*
X174945730Y-60551000D01*
X174839279Y-60529826D01*
X174739005Y-60488291D01*
X174694188Y-60458345D01*
X174648758Y-60427990D01*
X174572010Y-60351242D01*
X174511710Y-60260996D01*
X174511709Y-60260995D01*
X174470174Y-60160721D01*
X174449000Y-60054270D01*
X174449000Y-59945730D01*
X174470174Y-59839279D01*
X174511709Y-59739005D01*
X174572009Y-59648760D01*
X174572010Y-59648758D01*
X174648758Y-59572010D01*
X174739004Y-59511710D01*
X174739005Y-59511709D01*
X174839279Y-59470174D01*
X174945730Y-59449000D01*
X175054270Y-59449000D01*
X175160721Y-59470174D01*
X175160721Y-59470174D01*
G37*
G36*
X164598254Y-54927818D02*
G01*
X164903536Y-55054270D01*
X164971513Y-55082427D01*
X165307436Y-55306884D01*
X165593116Y-55592564D01*
X165808196Y-55914453D01*
X165817574Y-55928489D01*
X165972182Y-56301746D01*
X166051000Y-56697993D01*
X166051000Y-57102007D01*
X165972182Y-57498254D01*
X165817574Y-57871511D01*
X165817573Y-57871513D01*
X165593116Y-58207436D01*
X165307436Y-58493116D01*
X164971513Y-58717573D01*
X164971512Y-58717574D01*
X164971511Y-58717574D01*
X164598254Y-58872182D01*
X164202007Y-58951000D01*
X163797993Y-58951000D01*
X163401746Y-58872182D01*
X163028489Y-58717574D01*
X163028488Y-58717574D01*
X163028487Y-58717573D01*
X162692564Y-58493116D01*
X162406884Y-58207436D01*
X162182427Y-57871513D01*
X162182426Y-57871511D01*
X162027818Y-57498254D01*
X161949000Y-57102007D01*
X161949000Y-56697993D01*
X162027818Y-56301746D01*
X162182426Y-55928489D01*
X162191805Y-55914453D01*
X162406884Y-55592564D01*
X162692564Y-55306884D01*
X163028487Y-55082427D01*
X163096464Y-55054270D01*
X163401746Y-54927818D01*
X163797993Y-54849000D01*
X164202007Y-54849000D01*
X164598254Y-54927818D01*
X164598254Y-54927818D01*
G37*
G36*
X87660721Y-56970174D02*
G01*
X87760995Y-57011709D01*
X87760996Y-57011710D01*
X87851242Y-57072010D01*
X87927990Y-57148758D01*
X87927991Y-57148760D01*
X87988291Y-57239005D01*
X88029826Y-57339279D01*
X88051000Y-57445730D01*
X88051000Y-57554270D01*
X88029826Y-57660721D01*
X87988291Y-57760995D01*
X87988290Y-57760996D01*
X87927990Y-57851242D01*
X87851242Y-57927990D01*
X87805812Y-57958345D01*
X87760995Y-57988291D01*
X87660721Y-58029826D01*
X87554270Y-58051000D01*
X87445730Y-58051000D01*
X87339279Y-58029826D01*
X87239005Y-57988291D01*
X87194188Y-57958345D01*
X87148758Y-57927990D01*
X87072010Y-57851242D01*
X87011710Y-57760996D01*
X87011709Y-57760995D01*
X86970174Y-57660721D01*
X86949000Y-57554270D01*
X86949000Y-57445730D01*
X86970174Y-57339279D01*
X87011709Y-57239005D01*
X87072009Y-57148760D01*
X87072010Y-57148758D01*
X87148758Y-57072010D01*
X87239004Y-57011710D01*
X87239005Y-57011709D01*
X87339279Y-56970174D01*
X87445730Y-56949000D01*
X87554270Y-56949000D01*
X87660721Y-56970174D01*
X87660721Y-56970174D01*
G37*
G36*
X157277395Y-54085546D02*
G01*
X157450466Y-54157234D01*
X157450467Y-54157235D01*
X157606227Y-54261310D01*
X157738690Y-54393773D01*
X157738691Y-54393775D01*
X157842766Y-54549534D01*
X157914454Y-54722605D01*
X157951000Y-54906333D01*
X157951000Y-55093667D01*
X157914454Y-55277395D01*
X157842766Y-55450466D01*
X157842765Y-55450467D01*
X157738690Y-55606227D01*
X157606227Y-55738690D01*
X157527818Y-55791081D01*
X157450466Y-55842766D01*
X157277395Y-55914454D01*
X157093667Y-55951000D01*
X156906333Y-55951000D01*
X156722605Y-55914454D01*
X156549534Y-55842766D01*
X156472182Y-55791081D01*
X156393773Y-55738690D01*
X156261310Y-55606227D01*
X156157235Y-55450467D01*
X156157234Y-55450466D01*
X156085546Y-55277395D01*
X156049000Y-55093667D01*
X156049000Y-54906333D01*
X156085546Y-54722605D01*
X156157234Y-54549534D01*
X156261309Y-54393775D01*
X156261310Y-54393773D01*
X156393773Y-54261310D01*
X156549533Y-54157235D01*
X156549534Y-54157234D01*
X156722605Y-54085546D01*
X156906333Y-54049000D01*
X157093667Y-54049000D01*
X157277395Y-54085546D01*
X157277395Y-54085546D01*
G37*
G36*
X175160721Y-54470174D02*
G01*
X175260995Y-54511709D01*
X175260996Y-54511710D01*
X175351242Y-54572010D01*
X175427990Y-54648758D01*
X175427991Y-54648760D01*
X175488291Y-54739005D01*
X175529826Y-54839279D01*
X175551000Y-54945730D01*
X175551000Y-55054270D01*
X175529826Y-55160721D01*
X175488291Y-55260995D01*
X175488290Y-55260996D01*
X175427990Y-55351242D01*
X175351242Y-55427990D01*
X175305812Y-55458345D01*
X175260995Y-55488291D01*
X175160721Y-55529826D01*
X175054270Y-55551000D01*
X174945730Y-55551000D01*
X174839279Y-55529826D01*
X174739005Y-55488291D01*
X174694188Y-55458345D01*
X174648758Y-55427990D01*
X174572010Y-55351242D01*
X174511710Y-55260996D01*
X174511709Y-55260995D01*
X174470174Y-55160721D01*
X174449000Y-55054270D01*
X174449000Y-54945730D01*
X174470174Y-54839279D01*
X174511709Y-54739005D01*
X174572009Y-54648760D01*
X174572010Y-54648758D01*
X174648758Y-54572010D01*
X174739004Y-54511710D01*
X174739005Y-54511709D01*
X174839279Y-54470174D01*
X174945730Y-54449000D01*
X175054270Y-54449000D01*
X175160721Y-54470174D01*
X175160721Y-54470174D01*
G37*
G36*
X135376000Y-54351000D02*
G01*
X134024000Y-54351000D01*
X134024000Y-51749000D01*
X135376000Y-51749000D01*
X135376000Y-54351000D01*
X135376000Y-54351000D01*
G37*
G36*
X132876000Y-54351000D02*
G01*
X131524000Y-54351000D01*
X131524000Y-51749000D01*
X132876000Y-51749000D01*
X132876000Y-54351000D01*
X132876000Y-54351000D01*
G37*
G36*
X130376000Y-54351000D02*
G01*
X129024000Y-54351000D01*
X129024000Y-51749000D01*
X130376000Y-51749000D01*
X130376000Y-54351000D01*
X130376000Y-54351000D01*
G37*
G36*
X157277395Y-51585546D02*
G01*
X157450466Y-51657234D01*
X157450467Y-51657235D01*
X157606227Y-51761310D01*
X157738690Y-51893773D01*
X157738691Y-51893775D01*
X157842766Y-52049534D01*
X157914454Y-52222605D01*
X157951000Y-52406333D01*
X157951000Y-52593667D01*
X157914454Y-52777395D01*
X157842766Y-52950466D01*
X157842765Y-52950467D01*
X157738690Y-53106227D01*
X157606227Y-53238690D01*
X157527818Y-53291081D01*
X157450466Y-53342766D01*
X157277395Y-53414454D01*
X157093667Y-53451000D01*
X156906333Y-53451000D01*
X156722605Y-53414454D01*
X156549534Y-53342766D01*
X156472182Y-53291081D01*
X156393773Y-53238690D01*
X156261310Y-53106227D01*
X156157235Y-52950467D01*
X156157234Y-52950466D01*
X156085546Y-52777395D01*
X156049000Y-52593667D01*
X156049000Y-52406333D01*
X156085546Y-52222605D01*
X156157234Y-52049534D01*
X156261309Y-51893775D01*
X156261310Y-51893773D01*
X156393773Y-51761310D01*
X156549533Y-51657235D01*
X156549534Y-51657234D01*
X156722605Y-51585546D01*
X156906333Y-51549000D01*
X157093667Y-51549000D01*
X157277395Y-51585546D01*
X157277395Y-51585546D01*
G37*
G36*
X87660721Y-51970174D02*
G01*
X87760995Y-52011709D01*
X87760996Y-52011710D01*
X87851242Y-52072010D01*
X87927990Y-52148758D01*
X87927991Y-52148760D01*
X87988291Y-52239005D01*
X88029826Y-52339279D01*
X88051000Y-52445730D01*
X88051000Y-52554270D01*
X88029826Y-52660721D01*
X87988291Y-52760995D01*
X87988290Y-52760996D01*
X87927990Y-52851242D01*
X87851242Y-52927990D01*
X87805812Y-52958345D01*
X87760995Y-52988291D01*
X87660721Y-53029826D01*
X87554270Y-53051000D01*
X87445730Y-53051000D01*
X87339279Y-53029826D01*
X87239005Y-52988291D01*
X87194188Y-52958345D01*
X87148758Y-52927990D01*
X87072010Y-52851242D01*
X87011710Y-52760996D01*
X87011709Y-52760995D01*
X86970174Y-52660721D01*
X86949000Y-52554270D01*
X86949000Y-52445730D01*
X86970174Y-52339279D01*
X87011709Y-52239005D01*
X87072009Y-52148760D01*
X87072010Y-52148758D01*
X87148758Y-52072010D01*
X87239004Y-52011710D01*
X87239005Y-52011709D01*
X87339279Y-51970174D01*
X87445730Y-51949000D01*
X87554270Y-51949000D01*
X87660721Y-51970174D01*
X87660721Y-51970174D01*
G37*
G36*
X145650740Y-52700740D02*
G01*
X139549260Y-52700740D01*
X139549260Y-46599260D01*
X145650740Y-46599260D01*
X145650740Y-52700740D01*
X145650740Y-52700740D01*
G37*
G36*
X150815170Y-46657879D02*
G01*
X151109868Y-46716498D01*
X151665067Y-46946469D01*
X151895334Y-47100329D01*
X152164733Y-47280335D01*
X152589665Y-47705267D01*
X152687202Y-47851242D01*
X152923531Y-48204933D01*
X153153502Y-48760132D01*
X153153502Y-48760133D01*
X153270740Y-49349527D01*
X153270740Y-49950473D01*
X153242257Y-50093665D01*
X153153502Y-50539868D01*
X152923531Y-51095067D01*
X152732565Y-51380867D01*
X152589665Y-51594733D01*
X152164733Y-52019665D01*
X151971531Y-52148758D01*
X151665067Y-52353531D01*
X151109868Y-52583502D01*
X150815170Y-52642121D01*
X150520473Y-52700740D01*
X149919527Y-52700740D01*
X149624830Y-52642121D01*
X149330132Y-52583502D01*
X148774933Y-52353531D01*
X148468469Y-52148758D01*
X148275267Y-52019665D01*
X147850335Y-51594733D01*
X147707435Y-51380867D01*
X147516469Y-51095067D01*
X147286498Y-50539868D01*
X147197743Y-50093665D01*
X147169260Y-49950473D01*
X147169260Y-49349527D01*
X147286498Y-48760133D01*
X147286498Y-48760132D01*
X147516469Y-48204933D01*
X147752798Y-47851242D01*
X147850335Y-47705267D01*
X148275267Y-47280335D01*
X148544666Y-47100329D01*
X148774933Y-46946469D01*
X149330132Y-46716498D01*
X149624830Y-46657879D01*
X149919527Y-46599260D01*
X150520473Y-46599260D01*
X150815170Y-46657879D01*
X150815170Y-46657879D01*
G37*
G36*
X103652585Y-48078802D02*
G01*
X103802410Y-48108604D01*
X104084674Y-48225521D01*
X104338705Y-48395259D01*
X104554741Y-48611295D01*
X104724479Y-48865326D01*
X104841396Y-49147590D01*
X104844383Y-49162609D01*
X104901000Y-49447239D01*
X104901000Y-49752761D01*
X104891802Y-49799000D01*
X104841396Y-50052410D01*
X104724479Y-50334674D01*
X104554741Y-50588705D01*
X104338705Y-50804741D01*
X104084674Y-50974479D01*
X103802410Y-51091396D01*
X103652585Y-51121198D01*
X103502761Y-51151000D01*
X103197239Y-51151000D01*
X103047415Y-51121198D01*
X102897590Y-51091396D01*
X102615326Y-50974479D01*
X102361295Y-50804741D01*
X102145259Y-50588705D01*
X101975521Y-50334674D01*
X101858604Y-50052410D01*
X101808198Y-49799000D01*
X101799000Y-49752761D01*
X101799000Y-49447239D01*
X101855617Y-49162609D01*
X101858604Y-49147590D01*
X101975521Y-48865326D01*
X102145259Y-48611295D01*
X102361295Y-48395259D01*
X102615326Y-48225521D01*
X102897590Y-48108604D01*
X103047415Y-48078802D01*
X103197239Y-48049000D01*
X103502761Y-48049000D01*
X103652585Y-48078802D01*
X103652585Y-48078802D01*
G37*
G36*
X117601000Y-51151000D02*
G01*
X114499000Y-51151000D01*
X114499000Y-48049000D01*
X117601000Y-48049000D01*
X117601000Y-51151000D01*
X117601000Y-51151000D01*
G37*
G36*
X157277395Y-49085546D02*
G01*
X157450466Y-49157234D01*
X157450467Y-49157235D01*
X157606227Y-49261310D01*
X157738690Y-49393773D01*
X157738691Y-49393775D01*
X157842766Y-49549534D01*
X157914454Y-49722605D01*
X157951000Y-49906333D01*
X157951000Y-50093667D01*
X157914454Y-50277395D01*
X157842766Y-50450466D01*
X157791081Y-50527818D01*
X157738690Y-50606227D01*
X157606227Y-50738690D01*
X157598308Y-50743981D01*
X157450466Y-50842766D01*
X157277395Y-50914454D01*
X157093667Y-50951000D01*
X156906333Y-50951000D01*
X156722605Y-50914454D01*
X156549534Y-50842766D01*
X156401692Y-50743981D01*
X156393773Y-50738690D01*
X156261310Y-50606227D01*
X156208919Y-50527818D01*
X156157234Y-50450466D01*
X156085546Y-50277395D01*
X156049000Y-50093667D01*
X156049000Y-49906333D01*
X156085546Y-49722605D01*
X156157234Y-49549534D01*
X156261309Y-49393775D01*
X156261310Y-49393773D01*
X156393773Y-49261310D01*
X156549533Y-49157235D01*
X156549534Y-49157234D01*
X156722605Y-49085546D01*
X156906333Y-49049000D01*
X157093667Y-49049000D01*
X157277395Y-49085546D01*
X157277395Y-49085546D01*
G37*
G36*
X128897740Y-49808626D02*
G01*
X128946136Y-49818253D01*
X128983902Y-49833896D01*
X129037311Y-49856019D01*
X129037312Y-49856020D01*
X129119369Y-49910848D01*
X129189152Y-49980631D01*
X129189153Y-49980633D01*
X129243980Y-50062687D01*
X129247913Y-50072182D01*
X129280561Y-50151000D01*
X129281747Y-50153865D01*
X129301000Y-50250655D01*
X129301000Y-50349345D01*
X129281747Y-50446135D01*
X129243981Y-50537311D01*
X129243980Y-50537312D01*
X129189152Y-50619369D01*
X129119369Y-50689152D01*
X129078062Y-50716752D01*
X129037311Y-50743981D01*
X128983902Y-50766104D01*
X128946136Y-50781747D01*
X128897740Y-50791374D01*
X128849345Y-50801000D01*
X128750655Y-50801000D01*
X128702260Y-50791373D01*
X128653864Y-50781747D01*
X128616098Y-50766104D01*
X128562689Y-50743981D01*
X128521938Y-50716752D01*
X128480631Y-50689152D01*
X128410848Y-50619369D01*
X128356020Y-50537312D01*
X128356019Y-50537311D01*
X128318253Y-50446135D01*
X128299000Y-50349345D01*
X128299000Y-50250655D01*
X128318253Y-50153865D01*
X128319440Y-50151000D01*
X128352087Y-50072182D01*
X128356020Y-50062687D01*
X128410847Y-49980633D01*
X128410848Y-49980631D01*
X128480631Y-49910848D01*
X128562688Y-49856020D01*
X128562689Y-49856019D01*
X128616098Y-49833896D01*
X128653864Y-49818253D01*
X128702260Y-49808627D01*
X128750655Y-49799000D01*
X128849345Y-49799000D01*
X128897740Y-49808626D01*
X128897740Y-49808626D01*
G37*
G36*
X135697740Y-49808626D02*
G01*
X135746136Y-49818253D01*
X135783902Y-49833896D01*
X135837311Y-49856019D01*
X135837312Y-49856020D01*
X135919369Y-49910848D01*
X135989152Y-49980631D01*
X135989153Y-49980633D01*
X136043980Y-50062687D01*
X136047913Y-50072182D01*
X136080561Y-50151000D01*
X136081747Y-50153865D01*
X136101000Y-50250655D01*
X136101000Y-50349345D01*
X136081747Y-50446135D01*
X136043981Y-50537311D01*
X136043980Y-50537312D01*
X135989152Y-50619369D01*
X135919369Y-50689152D01*
X135878062Y-50716752D01*
X135837311Y-50743981D01*
X135783902Y-50766104D01*
X135746136Y-50781747D01*
X135697740Y-50791374D01*
X135649345Y-50801000D01*
X135550655Y-50801000D01*
X135502260Y-50791373D01*
X135453864Y-50781747D01*
X135416098Y-50766104D01*
X135362689Y-50743981D01*
X135321938Y-50716752D01*
X135280631Y-50689152D01*
X135210848Y-50619369D01*
X135156020Y-50537312D01*
X135156019Y-50537311D01*
X135118253Y-50446135D01*
X135099000Y-50349345D01*
X135099000Y-50250655D01*
X135118253Y-50153865D01*
X135119440Y-50151000D01*
X135152087Y-50072182D01*
X135156020Y-50062687D01*
X135210847Y-49980633D01*
X135210848Y-49980631D01*
X135280631Y-49910848D01*
X135362688Y-49856020D01*
X135362689Y-49856019D01*
X135416098Y-49833896D01*
X135453864Y-49818253D01*
X135502260Y-49808627D01*
X135550655Y-49799000D01*
X135649345Y-49799000D01*
X135697740Y-49808626D01*
X135697740Y-49808626D01*
G37*
G36*
X175375256Y-47391298D02*
G01*
X175481579Y-47412447D01*
X175782042Y-47536903D01*
X176052451Y-47717585D01*
X176282415Y-47947549D01*
X176463097Y-48217958D01*
X176536538Y-48395259D01*
X176587553Y-48518422D01*
X176651000Y-48837389D01*
X176651000Y-49162611D01*
X176631367Y-49261310D01*
X176587553Y-49481579D01*
X176463097Y-49782042D01*
X176282415Y-50052451D01*
X176052451Y-50282415D01*
X175782042Y-50463097D01*
X175481579Y-50587553D01*
X175475787Y-50588705D01*
X175162611Y-50651000D01*
X174837389Y-50651000D01*
X174524213Y-50588705D01*
X174518421Y-50587553D01*
X174217958Y-50463097D01*
X173947549Y-50282415D01*
X173717585Y-50052451D01*
X173536903Y-49782042D01*
X173412447Y-49481579D01*
X173368633Y-49261310D01*
X173349000Y-49162611D01*
X173349000Y-48837389D01*
X173412447Y-48518422D01*
X173463463Y-48395259D01*
X173536903Y-48217958D01*
X173717585Y-47947549D01*
X173947549Y-47717585D01*
X174217958Y-47536903D01*
X174518421Y-47412447D01*
X174624744Y-47391298D01*
X174837389Y-47349000D01*
X175162611Y-47349000D01*
X175375256Y-47391298D01*
X175375256Y-47391298D01*
G37*
G36*
X89375256Y-47391298D02*
G01*
X89481579Y-47412447D01*
X89782042Y-47536903D01*
X90052451Y-47717585D01*
X90282415Y-47947549D01*
X90463097Y-48217958D01*
X90536538Y-48395259D01*
X90587553Y-48518422D01*
X90651000Y-48837389D01*
X90651000Y-49162611D01*
X90631367Y-49261310D01*
X90587553Y-49481579D01*
X90463097Y-49782042D01*
X90282415Y-50052451D01*
X90052451Y-50282415D01*
X89782042Y-50463097D01*
X89481579Y-50587553D01*
X89475787Y-50588705D01*
X89162611Y-50651000D01*
X88837389Y-50651000D01*
X88524213Y-50588705D01*
X88518421Y-50587553D01*
X88217958Y-50463097D01*
X87947549Y-50282415D01*
X87717585Y-50052451D01*
X87536903Y-49782042D01*
X87412447Y-49481579D01*
X87368633Y-49261310D01*
X87349000Y-49162611D01*
X87349000Y-48837389D01*
X87412447Y-48518422D01*
X87463463Y-48395259D01*
X87536903Y-48217958D01*
X87717585Y-47947549D01*
X87947549Y-47717585D01*
X88217958Y-47536903D01*
X88518421Y-47412447D01*
X88624744Y-47391298D01*
X88837389Y-47349000D01*
X89162611Y-47349000D01*
X89375256Y-47391298D01*
X89375256Y-47391298D01*
G37*
G36*
X164598254Y-46127818D02*
G01*
X164971511Y-46282426D01*
X164971513Y-46282427D01*
X165307436Y-46506884D01*
X165593116Y-46792564D01*
X165798758Y-47100328D01*
X165817574Y-47128489D01*
X165972182Y-47501746D01*
X166051000Y-47897993D01*
X166051000Y-48302007D01*
X165972182Y-48698254D01*
X165826898Y-49049000D01*
X165817573Y-49071513D01*
X165593116Y-49407436D01*
X165307436Y-49693116D01*
X164971513Y-49917573D01*
X164971512Y-49917574D01*
X164971511Y-49917574D01*
X164598254Y-50072182D01*
X164202007Y-50151000D01*
X163797993Y-50151000D01*
X163401746Y-50072182D01*
X163028489Y-49917574D01*
X163028488Y-49917574D01*
X163028487Y-49917573D01*
X162692564Y-49693116D01*
X162406884Y-49407436D01*
X162182427Y-49071513D01*
X162173102Y-49049000D01*
X162027818Y-48698254D01*
X161949000Y-48302007D01*
X161949000Y-47897993D01*
X162027818Y-47501746D01*
X162182426Y-47128489D01*
X162201243Y-47100328D01*
X162406884Y-46792564D01*
X162692564Y-46506884D01*
X163028487Y-46282427D01*
X163028489Y-46282426D01*
X163401746Y-46127818D01*
X163797993Y-46049000D01*
X164202007Y-46049000D01*
X164598254Y-46127818D01*
X164598254Y-46127818D01*
G37*
G36*
X92660721Y-46970174D02*
G01*
X92760995Y-47011709D01*
X92760996Y-47011710D01*
X92851242Y-47072010D01*
X92927990Y-47148758D01*
X92927991Y-47148760D01*
X92988291Y-47239005D01*
X93029826Y-47339279D01*
X93051000Y-47445730D01*
X93051000Y-47554270D01*
X93029826Y-47660721D01*
X92988291Y-47760995D01*
X92958345Y-47805812D01*
X92927990Y-47851242D01*
X92851242Y-47927990D01*
X92816805Y-47951000D01*
X92760995Y-47988291D01*
X92660721Y-48029826D01*
X92554270Y-48051000D01*
X92445730Y-48051000D01*
X92339279Y-48029826D01*
X92239005Y-47988291D01*
X92183195Y-47951000D01*
X92148758Y-47927990D01*
X92072010Y-47851242D01*
X92041655Y-47805812D01*
X92011709Y-47760995D01*
X91970174Y-47660721D01*
X91949000Y-47554270D01*
X91949000Y-47445730D01*
X91970174Y-47339279D01*
X92011709Y-47239005D01*
X92072009Y-47148760D01*
X92072010Y-47148758D01*
X92148758Y-47072010D01*
X92239004Y-47011710D01*
X92239005Y-47011709D01*
X92339279Y-46970174D01*
X92445730Y-46949000D01*
X92554270Y-46949000D01*
X92660721Y-46970174D01*
X92660721Y-46970174D01*
G37*
G36*
X170131552Y-47066331D02*
G01*
X170213627Y-47100328D01*
X170213629Y-47100329D01*
X170250813Y-47125175D01*
X170287495Y-47149685D01*
X170350315Y-47212505D01*
X170399672Y-47286373D01*
X170433669Y-47368448D01*
X170451000Y-47455579D01*
X170451000Y-47544421D01*
X170433669Y-47631552D01*
X170403135Y-47705267D01*
X170399671Y-47713629D01*
X170374825Y-47750813D01*
X170350315Y-47787495D01*
X170287495Y-47850315D01*
X170250813Y-47874825D01*
X170213629Y-47899671D01*
X170213628Y-47899672D01*
X170213627Y-47899672D01*
X170131552Y-47933669D01*
X170044421Y-47951000D01*
X169955579Y-47951000D01*
X169868448Y-47933669D01*
X169786373Y-47899672D01*
X169786372Y-47899672D01*
X169786371Y-47899671D01*
X169749187Y-47874825D01*
X169712505Y-47850315D01*
X169649685Y-47787495D01*
X169625175Y-47750813D01*
X169600329Y-47713629D01*
X169596865Y-47705267D01*
X169566331Y-47631552D01*
X169549000Y-47544421D01*
X169549000Y-47455579D01*
X169566331Y-47368448D01*
X169600328Y-47286373D01*
X169649685Y-47212505D01*
X169712505Y-47149685D01*
X169749187Y-47125175D01*
X169786371Y-47100329D01*
X169786373Y-47100328D01*
X169868448Y-47066331D01*
X169955579Y-47049000D01*
X170044421Y-47049000D01*
X170131552Y-47066331D01*
X170131552Y-47066331D01*
G37*
G36*
X160131552Y-47066331D02*
G01*
X160213627Y-47100328D01*
X160213629Y-47100329D01*
X160250813Y-47125175D01*
X160287495Y-47149685D01*
X160350315Y-47212505D01*
X160399672Y-47286373D01*
X160433669Y-47368448D01*
X160451000Y-47455579D01*
X160451000Y-47544421D01*
X160433669Y-47631552D01*
X160403135Y-47705267D01*
X160399671Y-47713629D01*
X160374825Y-47750813D01*
X160350315Y-47787495D01*
X160287495Y-47850315D01*
X160250813Y-47874825D01*
X160213629Y-47899671D01*
X160213628Y-47899672D01*
X160213627Y-47899672D01*
X160131552Y-47933669D01*
X160044421Y-47951000D01*
X159955579Y-47951000D01*
X159868448Y-47933669D01*
X159786373Y-47899672D01*
X159786372Y-47899672D01*
X159786371Y-47899671D01*
X159749187Y-47874825D01*
X159712505Y-47850315D01*
X159649685Y-47787495D01*
X159625175Y-47750813D01*
X159600329Y-47713629D01*
X159596865Y-47705267D01*
X159566331Y-47631552D01*
X159549000Y-47544421D01*
X159549000Y-47455579D01*
X159566331Y-47368448D01*
X159600328Y-47286373D01*
X159649685Y-47212505D01*
X159712505Y-47149685D01*
X159749187Y-47125175D01*
X159786371Y-47100329D01*
X159786373Y-47100328D01*
X159868448Y-47066331D01*
X159955579Y-47049000D01*
X160044421Y-47049000D01*
X160131552Y-47066331D01*
X160131552Y-47066331D01*
G37*
G36*
X155131552Y-47066331D02*
G01*
X155213627Y-47100328D01*
X155213629Y-47100329D01*
X155250813Y-47125175D01*
X155287495Y-47149685D01*
X155350315Y-47212505D01*
X155399672Y-47286373D01*
X155433669Y-47368448D01*
X155451000Y-47455579D01*
X155451000Y-47544421D01*
X155433669Y-47631552D01*
X155403135Y-47705267D01*
X155399671Y-47713629D01*
X155374825Y-47750813D01*
X155350315Y-47787495D01*
X155287495Y-47850315D01*
X155250813Y-47874825D01*
X155213629Y-47899671D01*
X155213628Y-47899672D01*
X155213627Y-47899672D01*
X155131552Y-47933669D01*
X155044421Y-47951000D01*
X154955579Y-47951000D01*
X154868448Y-47933669D01*
X154786373Y-47899672D01*
X154786372Y-47899672D01*
X154786371Y-47899671D01*
X154749187Y-47874825D01*
X154712505Y-47850315D01*
X154649685Y-47787495D01*
X154625175Y-47750813D01*
X154600329Y-47713629D01*
X154596865Y-47705267D01*
X154566331Y-47631552D01*
X154549000Y-47544421D01*
X154549000Y-47455579D01*
X154566331Y-47368448D01*
X154600328Y-47286373D01*
X154649685Y-47212505D01*
X154712505Y-47149685D01*
X154749187Y-47125175D01*
X154786371Y-47100329D01*
X154786373Y-47100328D01*
X154868448Y-47066331D01*
X154955579Y-47049000D01*
X155044421Y-47049000D01*
X155131552Y-47066331D01*
X155131552Y-47066331D01*
G37*
G36*
X137631552Y-47066331D02*
G01*
X137713627Y-47100328D01*
X137713629Y-47100329D01*
X137750813Y-47125175D01*
X137787495Y-47149685D01*
X137850315Y-47212505D01*
X137899672Y-47286373D01*
X137933669Y-47368448D01*
X137951000Y-47455579D01*
X137951000Y-47544421D01*
X137933669Y-47631552D01*
X137903135Y-47705267D01*
X137899671Y-47713629D01*
X137874825Y-47750813D01*
X137850315Y-47787495D01*
X137787495Y-47850315D01*
X137750813Y-47874825D01*
X137713629Y-47899671D01*
X137713628Y-47899672D01*
X137713627Y-47899672D01*
X137631552Y-47933669D01*
X137544421Y-47951000D01*
X137455579Y-47951000D01*
X137368448Y-47933669D01*
X137286373Y-47899672D01*
X137286372Y-47899672D01*
X137286371Y-47899671D01*
X137249187Y-47874825D01*
X137212505Y-47850315D01*
X137149685Y-47787495D01*
X137125175Y-47750813D01*
X137100329Y-47713629D01*
X137096865Y-47705267D01*
X137066331Y-47631552D01*
X137049000Y-47544421D01*
X137049000Y-47455579D01*
X137066331Y-47368448D01*
X137100328Y-47286373D01*
X137149685Y-47212505D01*
X137212505Y-47149685D01*
X137249187Y-47125175D01*
X137286371Y-47100329D01*
X137286373Y-47100328D01*
X137368448Y-47066331D01*
X137455579Y-47049000D01*
X137544421Y-47049000D01*
X137631552Y-47066331D01*
X137631552Y-47066331D01*
G37*
G36*
X112631552Y-47066331D02*
G01*
X112713627Y-47100328D01*
X112713629Y-47100329D01*
X112750813Y-47125175D01*
X112787495Y-47149685D01*
X112850315Y-47212505D01*
X112899672Y-47286373D01*
X112933669Y-47368448D01*
X112951000Y-47455579D01*
X112951000Y-47544421D01*
X112933669Y-47631552D01*
X112903135Y-47705267D01*
X112899671Y-47713629D01*
X112874825Y-47750813D01*
X112850315Y-47787495D01*
X112787495Y-47850315D01*
X112750813Y-47874825D01*
X112713629Y-47899671D01*
X112713628Y-47899672D01*
X112713627Y-47899672D01*
X112631552Y-47933669D01*
X112544421Y-47951000D01*
X112455579Y-47951000D01*
X112368448Y-47933669D01*
X112286373Y-47899672D01*
X112286372Y-47899672D01*
X112286371Y-47899671D01*
X112249187Y-47874825D01*
X112212505Y-47850315D01*
X112149685Y-47787495D01*
X112125175Y-47750813D01*
X112100329Y-47713629D01*
X112096865Y-47705267D01*
X112066331Y-47631552D01*
X112049000Y-47544421D01*
X112049000Y-47455579D01*
X112066331Y-47368448D01*
X112100328Y-47286373D01*
X112149685Y-47212505D01*
X112212505Y-47149685D01*
X112249187Y-47125175D01*
X112286371Y-47100329D01*
X112286373Y-47100328D01*
X112368448Y-47066331D01*
X112455579Y-47049000D01*
X112544421Y-47049000D01*
X112631552Y-47066331D01*
X112631552Y-47066331D01*
G37*
G36*
X107631552Y-47066331D02*
G01*
X107713627Y-47100328D01*
X107713629Y-47100329D01*
X107750813Y-47125175D01*
X107787495Y-47149685D01*
X107850315Y-47212505D01*
X107899672Y-47286373D01*
X107933669Y-47368448D01*
X107951000Y-47455579D01*
X107951000Y-47544421D01*
X107933669Y-47631552D01*
X107903135Y-47705267D01*
X107899671Y-47713629D01*
X107874825Y-47750813D01*
X107850315Y-47787495D01*
X107787495Y-47850315D01*
X107750813Y-47874825D01*
X107713629Y-47899671D01*
X107713628Y-47899672D01*
X107713627Y-47899672D01*
X107631552Y-47933669D01*
X107544421Y-47951000D01*
X107455579Y-47951000D01*
X107368448Y-47933669D01*
X107286373Y-47899672D01*
X107286372Y-47899672D01*
X107286371Y-47899671D01*
X107249187Y-47874825D01*
X107212505Y-47850315D01*
X107149685Y-47787495D01*
X107125175Y-47750813D01*
X107100329Y-47713629D01*
X107096865Y-47705267D01*
X107066331Y-47631552D01*
X107049000Y-47544421D01*
X107049000Y-47455579D01*
X107066331Y-47368448D01*
X107100328Y-47286373D01*
X107149685Y-47212505D01*
X107212505Y-47149685D01*
X107249187Y-47125175D01*
X107286371Y-47100329D01*
X107286373Y-47100328D01*
X107368448Y-47066331D01*
X107455579Y-47049000D01*
X107544421Y-47049000D01*
X107631552Y-47066331D01*
X107631552Y-47066331D01*
G37*
G36*
X97631552Y-47066331D02*
G01*
X97713627Y-47100328D01*
X97713629Y-47100329D01*
X97750813Y-47125175D01*
X97787495Y-47149685D01*
X97850315Y-47212505D01*
X97899672Y-47286373D01*
X97933669Y-47368448D01*
X97951000Y-47455579D01*
X97951000Y-47544421D01*
X97933669Y-47631552D01*
X97903135Y-47705267D01*
X97899671Y-47713629D01*
X97874825Y-47750813D01*
X97850315Y-47787495D01*
X97787495Y-47850315D01*
X97750813Y-47874825D01*
X97713629Y-47899671D01*
X97713628Y-47899672D01*
X97713627Y-47899672D01*
X97631552Y-47933669D01*
X97544421Y-47951000D01*
X97455579Y-47951000D01*
X97368448Y-47933669D01*
X97286373Y-47899672D01*
X97286372Y-47899672D01*
X97286371Y-47899671D01*
X97249187Y-47874825D01*
X97212505Y-47850315D01*
X97149685Y-47787495D01*
X97125175Y-47750813D01*
X97100329Y-47713629D01*
X97096865Y-47705267D01*
X97066331Y-47631552D01*
X97049000Y-47544421D01*
X97049000Y-47455579D01*
X97066331Y-47368448D01*
X97100328Y-47286373D01*
X97149685Y-47212505D01*
X97212505Y-47149685D01*
X97249187Y-47125175D01*
X97286371Y-47100329D01*
X97286373Y-47100328D01*
X97368448Y-47066331D01*
X97455579Y-47049000D01*
X97544421Y-47049000D01*
X97631552Y-47066331D01*
X97631552Y-47066331D01*
G37*
G36*
X132631552Y-47066331D02*
G01*
X132713627Y-47100328D01*
X132713629Y-47100329D01*
X132750813Y-47125175D01*
X132787495Y-47149685D01*
X132850315Y-47212505D01*
X132899672Y-47286373D01*
X132933669Y-47368448D01*
X132951000Y-47455579D01*
X132951000Y-47544421D01*
X132933669Y-47631552D01*
X132903135Y-47705267D01*
X132899671Y-47713629D01*
X132874825Y-47750813D01*
X132850315Y-47787495D01*
X132787495Y-47850315D01*
X132750813Y-47874825D01*
X132713629Y-47899671D01*
X132713628Y-47899672D01*
X132713627Y-47899672D01*
X132631552Y-47933669D01*
X132544421Y-47951000D01*
X132455579Y-47951000D01*
X132368448Y-47933669D01*
X132286373Y-47899672D01*
X132286372Y-47899672D01*
X132286371Y-47899671D01*
X132249187Y-47874825D01*
X132212505Y-47850315D01*
X132149685Y-47787495D01*
X132125175Y-47750813D01*
X132100329Y-47713629D01*
X132096865Y-47705267D01*
X132066331Y-47631552D01*
X132049000Y-47544421D01*
X132049000Y-47455579D01*
X132066331Y-47368448D01*
X132100328Y-47286373D01*
X132149685Y-47212505D01*
X132212505Y-47149685D01*
X132249187Y-47125175D01*
X132286371Y-47100329D01*
X132286373Y-47100328D01*
X132368448Y-47066331D01*
X132455579Y-47049000D01*
X132544421Y-47049000D01*
X132631552Y-47066331D01*
X132631552Y-47066331D01*
G37*
M02*
