G04 #@! TF.GenerationSoftware,KiCad,Pcbnew,(5.1.4-0-10_14)*
G04 #@! TF.CreationDate,2019-10-01T19:19:35+02:00*
G04 #@! TF.ProjectId,APC,4150432e-6b69-4636-9164-5f7063625858,rev?*
G04 #@! TF.SameCoordinates,Original*
G04 #@! TF.FileFunction,Copper,L2,Bot*
G04 #@! TF.FilePolarity,Positive*
%FSLAX46Y46*%
G04 Gerber Fmt 4.6, Leading zero omitted, Abs format (unit mm)*
G04 Created by KiCad (PCBNEW (5.1.4-0-10_14)) date 2019-10-01 19:19:35*
%MOMM*%
%LPD*%
G04 APERTURE LIST*
%ADD10C,4.000000*%
%ADD11C,1.800000*%
%ADD12C,5.999480*%
%ADD13R,5.999480X5.999480*%
%ADD14R,3.000000X3.000000*%
%ADD15C,3.000000*%
%ADD16C,1.000000*%
%ADD17C,0.800000*%
%ADD18C,0.250000*%
%ADD19C,0.500000*%
%ADD20C,0.254000*%
G04 APERTURE END LIST*
D10*
X164000000Y-56900000D03*
X164000000Y-48100000D03*
D11*
X157000000Y-55000000D03*
X157000000Y-52500000D03*
X157000000Y-50000000D03*
D10*
X164000000Y-72900000D03*
X164000000Y-64100000D03*
D11*
X157000000Y-71000000D03*
X157000000Y-68500000D03*
X157000000Y-66000000D03*
D10*
X164000000Y-88900000D03*
X164000000Y-80100000D03*
D11*
X157000000Y-87000000D03*
X157000000Y-84500000D03*
X157000000Y-82000000D03*
D12*
X150220000Y-49650000D03*
D13*
X142600000Y-49650000D03*
D14*
X116050000Y-49600000D03*
D15*
X103350000Y-49600000D03*
D16*
X144700000Y-70600000D03*
X146200000Y-70600000D03*
X175000000Y-55000000D03*
X175000000Y-60000000D03*
X175000000Y-65000000D03*
X175000000Y-70000000D03*
X175000000Y-75000000D03*
X175000000Y-80000000D03*
X175000000Y-85000000D03*
X175000000Y-90000000D03*
X170000000Y-100000000D03*
X165000000Y-100000000D03*
X160000000Y-100000000D03*
X175000000Y-95000000D03*
X155000000Y-100000000D03*
X150000000Y-100000000D03*
X145000000Y-100000000D03*
X140000000Y-100000000D03*
X135000000Y-100000000D03*
X130000000Y-100000000D03*
X120000000Y-100000000D03*
X125000000Y-100000000D03*
X115000000Y-100000000D03*
X110000000Y-100000000D03*
X105000000Y-100000000D03*
X100000000Y-100000000D03*
X95000000Y-100000000D03*
X87500000Y-92500000D03*
X87500000Y-87500000D03*
X87500000Y-82500000D03*
X87500000Y-77500000D03*
X87500000Y-72500000D03*
X87500000Y-67500000D03*
X87500000Y-62500000D03*
X87500000Y-57500000D03*
X87500000Y-52500000D03*
X92500000Y-47500000D03*
D17*
X97500000Y-47500000D03*
X107500000Y-47500000D03*
X112500000Y-47500000D03*
X132500000Y-47500000D03*
X137500000Y-47500000D03*
X155000000Y-47500000D03*
X160000000Y-47500000D03*
X170000000Y-47500000D03*
X135700000Y-72500000D03*
D16*
X140000000Y-70100000D03*
D17*
X140300000Y-68000000D03*
X134600000Y-66200000D03*
D18*
X157000000Y-66000000D02*
X150500000Y-72500000D01*
X150500000Y-72500000D02*
X135700000Y-72500000D01*
D19*
X142600000Y-53149740D02*
X149250260Y-59800000D01*
X142600000Y-49650000D02*
X142600000Y-53149740D01*
X149250260Y-59800000D02*
X156300000Y-59800000D01*
X156300000Y-59800000D02*
X160200000Y-63700000D01*
X160200000Y-81300000D02*
X157000000Y-84500000D01*
X160200000Y-68500000D02*
X160200000Y-81300000D01*
X157000000Y-68500000D02*
X160200000Y-68500000D01*
X160200000Y-63700000D02*
X160200000Y-68500000D01*
X142400000Y-70100000D02*
X140000000Y-70100000D01*
X149250260Y-63249740D02*
X142400000Y-70100000D01*
X149250260Y-59800000D02*
X149250260Y-63249740D01*
D18*
X140300000Y-68000000D02*
X138500000Y-66200000D01*
X138500000Y-66200000D02*
X134600000Y-66200000D01*
D20*
G36*
X139149075Y-46199075D02*
G01*
X139069723Y-46295766D01*
X139010758Y-46406080D01*
X138974448Y-46525778D01*
X138962188Y-46650260D01*
X138962188Y-52649740D01*
X138974448Y-52774222D01*
X139010758Y-52893920D01*
X139069723Y-53004234D01*
X139149075Y-53100925D01*
X139245766Y-53180277D01*
X139356080Y-53239242D01*
X139475778Y-53275552D01*
X139600260Y-53287812D01*
X141724317Y-53287812D01*
X141727805Y-53323230D01*
X141778412Y-53490053D01*
X141860590Y-53643799D01*
X141943468Y-53744786D01*
X141943471Y-53744789D01*
X141971184Y-53778557D01*
X142004952Y-53806270D01*
X148365260Y-60166579D01*
X148365261Y-62883160D01*
X142033422Y-69215000D01*
X140718450Y-69215000D01*
X140537624Y-69094176D01*
X140394761Y-69035000D01*
X140401939Y-69035000D01*
X140601898Y-68995226D01*
X140790256Y-68917205D01*
X140959774Y-68803937D01*
X141103937Y-68659774D01*
X141217205Y-68490256D01*
X141295226Y-68301898D01*
X141335000Y-68101939D01*
X141335000Y-67898061D01*
X141295226Y-67698102D01*
X141217205Y-67509744D01*
X141103937Y-67340226D01*
X140959774Y-67196063D01*
X140790256Y-67082795D01*
X140601898Y-67004774D01*
X140401939Y-66965000D01*
X140339802Y-66965000D01*
X139063803Y-65689002D01*
X139040001Y-65659999D01*
X138924276Y-65565026D01*
X138792247Y-65494454D01*
X138648986Y-65450997D01*
X138537333Y-65440000D01*
X138537322Y-65440000D01*
X138500000Y-65436324D01*
X138462678Y-65440000D01*
X135303711Y-65440000D01*
X135259774Y-65396063D01*
X135090256Y-65282795D01*
X134901898Y-65204774D01*
X134701939Y-65165000D01*
X134498061Y-65165000D01*
X134298102Y-65204774D01*
X134109744Y-65282795D01*
X133940226Y-65396063D01*
X133796063Y-65540226D01*
X133682795Y-65709744D01*
X133604774Y-65898102D01*
X133565000Y-66098061D01*
X133565000Y-66301939D01*
X133604774Y-66501898D01*
X133682795Y-66690256D01*
X133796063Y-66859774D01*
X133940226Y-67003937D01*
X134109744Y-67117205D01*
X134298102Y-67195226D01*
X134498061Y-67235000D01*
X134701939Y-67235000D01*
X134901898Y-67195226D01*
X135090256Y-67117205D01*
X135259774Y-67003937D01*
X135303711Y-66960000D01*
X138185199Y-66960000D01*
X139265000Y-68039802D01*
X139265000Y-68101939D01*
X139304774Y-68301898D01*
X139382795Y-68490256D01*
X139496063Y-68659774D01*
X139640226Y-68803937D01*
X139809744Y-68917205D01*
X139925131Y-68965000D01*
X139888212Y-68965000D01*
X139668933Y-69008617D01*
X139462376Y-69094176D01*
X139276480Y-69218388D01*
X139118388Y-69376480D01*
X138994176Y-69562376D01*
X138908617Y-69768933D01*
X138865000Y-69988212D01*
X138865000Y-70211788D01*
X138908617Y-70431067D01*
X138994176Y-70637624D01*
X139118388Y-70823520D01*
X139276480Y-70981612D01*
X139462376Y-71105824D01*
X139668933Y-71191383D01*
X139888212Y-71235000D01*
X140111788Y-71235000D01*
X140331067Y-71191383D01*
X140537624Y-71105824D01*
X140718450Y-70985000D01*
X142356531Y-70985000D01*
X142400000Y-70989281D01*
X142443469Y-70985000D01*
X142443477Y-70985000D01*
X142573490Y-70972195D01*
X142740313Y-70921589D01*
X142894059Y-70839411D01*
X143028817Y-70728817D01*
X143056534Y-70695044D01*
X149845309Y-63906270D01*
X149879077Y-63878557D01*
X149910331Y-63840475D01*
X149989671Y-63743799D01*
X150071849Y-63590054D01*
X150122455Y-63423230D01*
X150131499Y-63331399D01*
X150135260Y-63293217D01*
X150135260Y-63293209D01*
X150139541Y-63249740D01*
X150135260Y-63206271D01*
X150135260Y-60685000D01*
X155933422Y-60685000D01*
X159315000Y-64066579D01*
X159315001Y-67615000D01*
X158254790Y-67615000D01*
X158192312Y-67521495D01*
X157978505Y-67307688D01*
X157892169Y-67250000D01*
X157978505Y-67192312D01*
X158192312Y-66978505D01*
X158360299Y-66727095D01*
X158476011Y-66447743D01*
X158535000Y-66151184D01*
X158535000Y-65848816D01*
X158476011Y-65552257D01*
X158360299Y-65272905D01*
X158192312Y-65021495D01*
X157978505Y-64807688D01*
X157727095Y-64639701D01*
X157447743Y-64523989D01*
X157151184Y-64465000D01*
X156848816Y-64465000D01*
X156552257Y-64523989D01*
X156272905Y-64639701D01*
X156021495Y-64807688D01*
X155807688Y-65021495D01*
X155639701Y-65272905D01*
X155523989Y-65552257D01*
X155465000Y-65848816D01*
X155465000Y-66151184D01*
X155516269Y-66408930D01*
X150185199Y-71740000D01*
X136403711Y-71740000D01*
X136359774Y-71696063D01*
X136190256Y-71582795D01*
X136001898Y-71504774D01*
X135801939Y-71465000D01*
X135598061Y-71465000D01*
X135398102Y-71504774D01*
X135209744Y-71582795D01*
X135040226Y-71696063D01*
X134896063Y-71840226D01*
X134782795Y-72009744D01*
X134704774Y-72198102D01*
X134665000Y-72398061D01*
X134665000Y-72601939D01*
X134704774Y-72801898D01*
X134782795Y-72990256D01*
X134896063Y-73159774D01*
X135040226Y-73303937D01*
X135209744Y-73417205D01*
X135398102Y-73495226D01*
X135598061Y-73535000D01*
X135801939Y-73535000D01*
X136001898Y-73495226D01*
X136190256Y-73417205D01*
X136359774Y-73303937D01*
X136403711Y-73260000D01*
X150462678Y-73260000D01*
X150500000Y-73263676D01*
X150537322Y-73260000D01*
X150537333Y-73260000D01*
X150648986Y-73249003D01*
X150792247Y-73205546D01*
X150924276Y-73134974D01*
X151040001Y-73040001D01*
X151063804Y-73010997D01*
X155465000Y-68609802D01*
X155465000Y-68651184D01*
X155523989Y-68947743D01*
X155639701Y-69227095D01*
X155807688Y-69478505D01*
X156021495Y-69692312D01*
X156107831Y-69750000D01*
X156021495Y-69807688D01*
X155807688Y-70021495D01*
X155639701Y-70272905D01*
X155523989Y-70552257D01*
X155465000Y-70848816D01*
X155465000Y-71151184D01*
X155523989Y-71447743D01*
X155639701Y-71727095D01*
X155807688Y-71978505D01*
X156021495Y-72192312D01*
X156272905Y-72360299D01*
X156552257Y-72476011D01*
X156848816Y-72535000D01*
X157151184Y-72535000D01*
X157447743Y-72476011D01*
X157727095Y-72360299D01*
X157978505Y-72192312D01*
X158192312Y-71978505D01*
X158360299Y-71727095D01*
X158476011Y-71447743D01*
X158535000Y-71151184D01*
X158535000Y-70848816D01*
X158476011Y-70552257D01*
X158360299Y-70272905D01*
X158192312Y-70021495D01*
X157978505Y-69807688D01*
X157892169Y-69750000D01*
X157978505Y-69692312D01*
X158192312Y-69478505D01*
X158254790Y-69385000D01*
X159315000Y-69385000D01*
X159315001Y-80933420D01*
X158512537Y-81735885D01*
X158476011Y-81552257D01*
X158360299Y-81272905D01*
X158192312Y-81021495D01*
X157978505Y-80807688D01*
X157727095Y-80639701D01*
X157447743Y-80523989D01*
X157151184Y-80465000D01*
X156848816Y-80465000D01*
X156552257Y-80523989D01*
X156272905Y-80639701D01*
X156021495Y-80807688D01*
X155807688Y-81021495D01*
X155639701Y-81272905D01*
X155523989Y-81552257D01*
X155465000Y-81848816D01*
X155465000Y-82151184D01*
X155523989Y-82447743D01*
X155639701Y-82727095D01*
X155807688Y-82978505D01*
X156021495Y-83192312D01*
X156107831Y-83250000D01*
X156021495Y-83307688D01*
X155807688Y-83521495D01*
X155639701Y-83772905D01*
X155523989Y-84052257D01*
X155465000Y-84348816D01*
X155465000Y-84651184D01*
X155523989Y-84947743D01*
X155639701Y-85227095D01*
X155807688Y-85478505D01*
X156021495Y-85692312D01*
X156107831Y-85750000D01*
X156021495Y-85807688D01*
X155807688Y-86021495D01*
X155639701Y-86272905D01*
X155523989Y-86552257D01*
X155465000Y-86848816D01*
X155465000Y-87151184D01*
X155523989Y-87447743D01*
X155639701Y-87727095D01*
X155807688Y-87978505D01*
X156021495Y-88192312D01*
X156272905Y-88360299D01*
X156552257Y-88476011D01*
X156848816Y-88535000D01*
X157151184Y-88535000D01*
X157447743Y-88476011D01*
X157727095Y-88360299D01*
X157978505Y-88192312D01*
X158192312Y-87978505D01*
X158360299Y-87727095D01*
X158476011Y-87447743D01*
X158535000Y-87151184D01*
X158535000Y-86848816D01*
X158476011Y-86552257D01*
X158360299Y-86272905D01*
X158192312Y-86021495D01*
X157978505Y-85807688D01*
X157892169Y-85750000D01*
X157978505Y-85692312D01*
X158192312Y-85478505D01*
X158360299Y-85227095D01*
X158476011Y-84947743D01*
X158535000Y-84651184D01*
X158535000Y-84348816D01*
X158513060Y-84238518D01*
X160795049Y-81956530D01*
X160828817Y-81928817D01*
X160939411Y-81794059D01*
X161021589Y-81640313D01*
X161072195Y-81473490D01*
X161085000Y-81343477D01*
X161085000Y-81343467D01*
X161089281Y-81300001D01*
X161085000Y-81256535D01*
X161085000Y-79840475D01*
X161365000Y-79840475D01*
X161365000Y-80359525D01*
X161466261Y-80868601D01*
X161664893Y-81348141D01*
X161953262Y-81779715D01*
X162320285Y-82146738D01*
X162751859Y-82435107D01*
X163231399Y-82633739D01*
X163740475Y-82735000D01*
X164259525Y-82735000D01*
X164768601Y-82633739D01*
X165248141Y-82435107D01*
X165679715Y-82146738D01*
X166046738Y-81779715D01*
X166335107Y-81348141D01*
X166533739Y-80868601D01*
X166635000Y-80359525D01*
X166635000Y-79840475D01*
X166533739Y-79331399D01*
X166335107Y-78851859D01*
X166046738Y-78420285D01*
X165679715Y-78053262D01*
X165248141Y-77764893D01*
X164768601Y-77566261D01*
X164259525Y-77465000D01*
X163740475Y-77465000D01*
X163231399Y-77566261D01*
X162751859Y-77764893D01*
X162320285Y-78053262D01*
X161953262Y-78420285D01*
X161664893Y-78851859D01*
X161466261Y-79331399D01*
X161365000Y-79840475D01*
X161085000Y-79840475D01*
X161085000Y-72640475D01*
X161365000Y-72640475D01*
X161365000Y-73159525D01*
X161466261Y-73668601D01*
X161664893Y-74148141D01*
X161953262Y-74579715D01*
X162320285Y-74946738D01*
X162751859Y-75235107D01*
X163231399Y-75433739D01*
X163740475Y-75535000D01*
X164259525Y-75535000D01*
X164768601Y-75433739D01*
X165248141Y-75235107D01*
X165679715Y-74946738D01*
X166046738Y-74579715D01*
X166335107Y-74148141D01*
X166533739Y-73668601D01*
X166635000Y-73159525D01*
X166635000Y-72640475D01*
X166533739Y-72131399D01*
X166335107Y-71651859D01*
X166046738Y-71220285D01*
X165679715Y-70853262D01*
X165248141Y-70564893D01*
X164768601Y-70366261D01*
X164259525Y-70265000D01*
X163740475Y-70265000D01*
X163231399Y-70366261D01*
X162751859Y-70564893D01*
X162320285Y-70853262D01*
X161953262Y-71220285D01*
X161664893Y-71651859D01*
X161466261Y-72131399D01*
X161365000Y-72640475D01*
X161085000Y-72640475D01*
X161085000Y-68543477D01*
X161089282Y-68500000D01*
X161085000Y-68456523D01*
X161085000Y-63840475D01*
X161365000Y-63840475D01*
X161365000Y-64359525D01*
X161466261Y-64868601D01*
X161664893Y-65348141D01*
X161953262Y-65779715D01*
X162320285Y-66146738D01*
X162751859Y-66435107D01*
X163231399Y-66633739D01*
X163740475Y-66735000D01*
X164259525Y-66735000D01*
X164768601Y-66633739D01*
X165248141Y-66435107D01*
X165679715Y-66146738D01*
X166046738Y-65779715D01*
X166335107Y-65348141D01*
X166533739Y-64868601D01*
X166635000Y-64359525D01*
X166635000Y-63840475D01*
X166533739Y-63331399D01*
X166335107Y-62851859D01*
X166046738Y-62420285D01*
X165679715Y-62053262D01*
X165248141Y-61764893D01*
X164768601Y-61566261D01*
X164259525Y-61465000D01*
X163740475Y-61465000D01*
X163231399Y-61566261D01*
X162751859Y-61764893D01*
X162320285Y-62053262D01*
X161953262Y-62420285D01*
X161664893Y-62851859D01*
X161466261Y-63331399D01*
X161365000Y-63840475D01*
X161085000Y-63840475D01*
X161085000Y-63743469D01*
X161089281Y-63700000D01*
X161085000Y-63656531D01*
X161085000Y-63656523D01*
X161072195Y-63526510D01*
X161021589Y-63359687D01*
X160939411Y-63205941D01*
X160828817Y-63071183D01*
X160795050Y-63043472D01*
X156956534Y-59204956D01*
X156928817Y-59171183D01*
X156794059Y-59060589D01*
X156640313Y-58978411D01*
X156473490Y-58927805D01*
X156343477Y-58915000D01*
X156343469Y-58915000D01*
X156300000Y-58910719D01*
X156256531Y-58915000D01*
X149616839Y-58915000D01*
X147342314Y-56640475D01*
X161365000Y-56640475D01*
X161365000Y-57159525D01*
X161466261Y-57668601D01*
X161664893Y-58148141D01*
X161953262Y-58579715D01*
X162320285Y-58946738D01*
X162751859Y-59235107D01*
X163231399Y-59433739D01*
X163740475Y-59535000D01*
X164259525Y-59535000D01*
X164768601Y-59433739D01*
X165248141Y-59235107D01*
X165679715Y-58946738D01*
X166046738Y-58579715D01*
X166335107Y-58148141D01*
X166533739Y-57668601D01*
X166635000Y-57159525D01*
X166635000Y-56640475D01*
X166533739Y-56131399D01*
X166335107Y-55651859D01*
X166046738Y-55220285D01*
X165679715Y-54853262D01*
X165248141Y-54564893D01*
X164768601Y-54366261D01*
X164259525Y-54265000D01*
X163740475Y-54265000D01*
X163231399Y-54366261D01*
X162751859Y-54564893D01*
X162320285Y-54853262D01*
X161953262Y-55220285D01*
X161664893Y-55651859D01*
X161466261Y-56131399D01*
X161365000Y-56640475D01*
X147342314Y-56640475D01*
X143989650Y-53287812D01*
X145599740Y-53287812D01*
X145724222Y-53275552D01*
X145843920Y-53239242D01*
X145954234Y-53180277D01*
X146050925Y-53100925D01*
X146130277Y-53004234D01*
X146189242Y-52893920D01*
X146225552Y-52774222D01*
X146237812Y-52649740D01*
X146237812Y-46650260D01*
X146225552Y-46525778D01*
X146189242Y-46406080D01*
X146130277Y-46295766D01*
X146050925Y-46199075D01*
X145963101Y-46127000D01*
X149300254Y-46127000D01*
X149159785Y-46154941D01*
X148498305Y-46428935D01*
X147902988Y-46826713D01*
X147396713Y-47332988D01*
X146998935Y-47928305D01*
X146724941Y-48589785D01*
X146585260Y-49292009D01*
X146585260Y-50007991D01*
X146724941Y-50710215D01*
X146998935Y-51371695D01*
X147396713Y-51967012D01*
X147902988Y-52473287D01*
X148498305Y-52871065D01*
X149159785Y-53145059D01*
X149862009Y-53284740D01*
X150577991Y-53284740D01*
X151280215Y-53145059D01*
X151941695Y-52871065D01*
X152537012Y-52473287D01*
X153043287Y-51967012D01*
X153441065Y-51371695D01*
X153715059Y-50710215D01*
X153854740Y-50007991D01*
X153854740Y-49848816D01*
X155465000Y-49848816D01*
X155465000Y-50151184D01*
X155523989Y-50447743D01*
X155639701Y-50727095D01*
X155807688Y-50978505D01*
X156021495Y-51192312D01*
X156107831Y-51250000D01*
X156021495Y-51307688D01*
X155807688Y-51521495D01*
X155639701Y-51772905D01*
X155523989Y-52052257D01*
X155465000Y-52348816D01*
X155465000Y-52651184D01*
X155523989Y-52947743D01*
X155639701Y-53227095D01*
X155807688Y-53478505D01*
X156021495Y-53692312D01*
X156107831Y-53750000D01*
X156021495Y-53807688D01*
X155807688Y-54021495D01*
X155639701Y-54272905D01*
X155523989Y-54552257D01*
X155465000Y-54848816D01*
X155465000Y-55151184D01*
X155523989Y-55447743D01*
X155639701Y-55727095D01*
X155807688Y-55978505D01*
X156021495Y-56192312D01*
X156272905Y-56360299D01*
X156552257Y-56476011D01*
X156848816Y-56535000D01*
X157151184Y-56535000D01*
X157447743Y-56476011D01*
X157727095Y-56360299D01*
X157978505Y-56192312D01*
X158192312Y-55978505D01*
X158360299Y-55727095D01*
X158476011Y-55447743D01*
X158535000Y-55151184D01*
X158535000Y-54848816D01*
X158476011Y-54552257D01*
X158360299Y-54272905D01*
X158192312Y-54021495D01*
X157978505Y-53807688D01*
X157892169Y-53750000D01*
X157978505Y-53692312D01*
X158192312Y-53478505D01*
X158360299Y-53227095D01*
X158476011Y-52947743D01*
X158535000Y-52651184D01*
X158535000Y-52348816D01*
X158476011Y-52052257D01*
X158360299Y-51772905D01*
X158192312Y-51521495D01*
X157978505Y-51307688D01*
X157892169Y-51250000D01*
X157978505Y-51192312D01*
X158192312Y-50978505D01*
X158360299Y-50727095D01*
X158476011Y-50447743D01*
X158535000Y-50151184D01*
X158535000Y-49848816D01*
X158476011Y-49552257D01*
X158360299Y-49272905D01*
X158192312Y-49021495D01*
X157978505Y-48807688D01*
X157727095Y-48639701D01*
X157447743Y-48523989D01*
X157151184Y-48465000D01*
X156848816Y-48465000D01*
X156552257Y-48523989D01*
X156272905Y-48639701D01*
X156021495Y-48807688D01*
X155807688Y-49021495D01*
X155639701Y-49272905D01*
X155523989Y-49552257D01*
X155465000Y-49848816D01*
X153854740Y-49848816D01*
X153854740Y-49292009D01*
X153715059Y-48589785D01*
X153441065Y-47928305D01*
X153043287Y-47332988D01*
X152537012Y-46826713D01*
X151941695Y-46428935D01*
X151280215Y-46154941D01*
X151139746Y-46127000D01*
X162246547Y-46127000D01*
X161953262Y-46420285D01*
X161664893Y-46851859D01*
X161466261Y-47331399D01*
X161365000Y-47840475D01*
X161365000Y-48359525D01*
X161466261Y-48868601D01*
X161664893Y-49348141D01*
X161953262Y-49779715D01*
X162320285Y-50146738D01*
X162751859Y-50435107D01*
X163231399Y-50633739D01*
X163740475Y-50735000D01*
X164259525Y-50735000D01*
X164768601Y-50633739D01*
X165248141Y-50435107D01*
X165679715Y-50146738D01*
X166046738Y-49779715D01*
X166335107Y-49348141D01*
X166533739Y-48868601D01*
X166551388Y-48779872D01*
X172765000Y-48779872D01*
X172765000Y-49220128D01*
X172850890Y-49651925D01*
X173019369Y-50058669D01*
X173263962Y-50424729D01*
X173575271Y-50736038D01*
X173941331Y-50980631D01*
X174348075Y-51149110D01*
X174779872Y-51235000D01*
X175220128Y-51235000D01*
X175651925Y-51149110D01*
X176058669Y-50980631D01*
X176424729Y-50736038D01*
X176736038Y-50424729D01*
X176980631Y-50058669D01*
X177149110Y-49651925D01*
X177235000Y-49220128D01*
X177235000Y-48779872D01*
X177149110Y-48348075D01*
X176980631Y-47941331D01*
X176736038Y-47575271D01*
X176424729Y-47263962D01*
X176058669Y-47019369D01*
X175651925Y-46850890D01*
X175220128Y-46765000D01*
X174779872Y-46765000D01*
X174348075Y-46850890D01*
X173941331Y-47019369D01*
X173575271Y-47263962D01*
X173263962Y-47575271D01*
X173019369Y-47941331D01*
X172850890Y-48348075D01*
X172765000Y-48779872D01*
X166551388Y-48779872D01*
X166635000Y-48359525D01*
X166635000Y-47840475D01*
X166533739Y-47331399D01*
X166335107Y-46851859D01*
X166046738Y-46420285D01*
X165753453Y-46127000D01*
X177873000Y-46127000D01*
X177873000Y-100873000D01*
X86127000Y-100873000D01*
X86127000Y-97779872D01*
X86765000Y-97779872D01*
X86765000Y-98220128D01*
X86850890Y-98651925D01*
X87019369Y-99058669D01*
X87263962Y-99424729D01*
X87575271Y-99736038D01*
X87941331Y-99980631D01*
X88348075Y-100149110D01*
X88779872Y-100235000D01*
X89220128Y-100235000D01*
X89651925Y-100149110D01*
X90058669Y-99980631D01*
X90424729Y-99736038D01*
X90736038Y-99424729D01*
X90980631Y-99058669D01*
X91149110Y-98651925D01*
X91235000Y-98220128D01*
X91235000Y-97779872D01*
X172765000Y-97779872D01*
X172765000Y-98220128D01*
X172850890Y-98651925D01*
X173019369Y-99058669D01*
X173263962Y-99424729D01*
X173575271Y-99736038D01*
X173941331Y-99980631D01*
X174348075Y-100149110D01*
X174779872Y-100235000D01*
X175220128Y-100235000D01*
X175651925Y-100149110D01*
X176058669Y-99980631D01*
X176424729Y-99736038D01*
X176736038Y-99424729D01*
X176980631Y-99058669D01*
X177149110Y-98651925D01*
X177235000Y-98220128D01*
X177235000Y-97779872D01*
X177149110Y-97348075D01*
X176980631Y-96941331D01*
X176736038Y-96575271D01*
X176424729Y-96263962D01*
X176058669Y-96019369D01*
X175651925Y-95850890D01*
X175220128Y-95765000D01*
X174779872Y-95765000D01*
X174348075Y-95850890D01*
X173941331Y-96019369D01*
X173575271Y-96263962D01*
X173263962Y-96575271D01*
X173019369Y-96941331D01*
X172850890Y-97348075D01*
X172765000Y-97779872D01*
X91235000Y-97779872D01*
X91149110Y-97348075D01*
X90980631Y-96941331D01*
X90736038Y-96575271D01*
X90424729Y-96263962D01*
X90058669Y-96019369D01*
X89651925Y-95850890D01*
X89220128Y-95765000D01*
X88779872Y-95765000D01*
X88348075Y-95850890D01*
X87941331Y-96019369D01*
X87575271Y-96263962D01*
X87263962Y-96575271D01*
X87019369Y-96941331D01*
X86850890Y-97348075D01*
X86765000Y-97779872D01*
X86127000Y-97779872D01*
X86127000Y-88309419D01*
X96665000Y-88309419D01*
X96665000Y-88690581D01*
X96739361Y-89064419D01*
X96885225Y-89416566D01*
X97096987Y-89733491D01*
X97366509Y-90003013D01*
X97683434Y-90214775D01*
X98035581Y-90360639D01*
X98409419Y-90435000D01*
X98790581Y-90435000D01*
X99164419Y-90360639D01*
X99516566Y-90214775D01*
X99833491Y-90003013D01*
X100103013Y-89733491D01*
X100314775Y-89416566D01*
X100460639Y-89064419D01*
X100535000Y-88690581D01*
X100535000Y-88640475D01*
X161365000Y-88640475D01*
X161365000Y-89159525D01*
X161466261Y-89668601D01*
X161664893Y-90148141D01*
X161953262Y-90579715D01*
X162320285Y-90946738D01*
X162751859Y-91235107D01*
X163231399Y-91433739D01*
X163740475Y-91535000D01*
X164259525Y-91535000D01*
X164768601Y-91433739D01*
X165248141Y-91235107D01*
X165679715Y-90946738D01*
X166046738Y-90579715D01*
X166335107Y-90148141D01*
X166533739Y-89668601D01*
X166635000Y-89159525D01*
X166635000Y-88640475D01*
X166533739Y-88131399D01*
X166335107Y-87651859D01*
X166046738Y-87220285D01*
X165679715Y-86853262D01*
X165248141Y-86564893D01*
X164768601Y-86366261D01*
X164259525Y-86265000D01*
X163740475Y-86265000D01*
X163231399Y-86366261D01*
X162751859Y-86564893D01*
X162320285Y-86853262D01*
X161953262Y-87220285D01*
X161664893Y-87651859D01*
X161466261Y-88131399D01*
X161365000Y-88640475D01*
X100535000Y-88640475D01*
X100535000Y-88309419D01*
X100460639Y-87935581D01*
X100314775Y-87583434D01*
X100103013Y-87266509D01*
X99833491Y-86996987D01*
X99516566Y-86785225D01*
X99164419Y-86639361D01*
X98790581Y-86565000D01*
X98409419Y-86565000D01*
X98035581Y-86639361D01*
X97683434Y-86785225D01*
X97366509Y-86996987D01*
X97096987Y-87266509D01*
X96885225Y-87583434D01*
X96739361Y-87935581D01*
X96665000Y-88309419D01*
X86127000Y-88309419D01*
X86127000Y-74309419D01*
X118865000Y-74309419D01*
X118865000Y-74690581D01*
X118939361Y-75064419D01*
X119085225Y-75416566D01*
X119296987Y-75733491D01*
X119566509Y-76003013D01*
X119883434Y-76214775D01*
X120235581Y-76360639D01*
X120609419Y-76435000D01*
X120990581Y-76435000D01*
X121364419Y-76360639D01*
X121716566Y-76214775D01*
X122033491Y-76003013D01*
X122303013Y-75733491D01*
X122514775Y-75416566D01*
X122660639Y-75064419D01*
X122735000Y-74690581D01*
X122735000Y-74309419D01*
X122660639Y-73935581D01*
X122514775Y-73583434D01*
X122303013Y-73266509D01*
X122033491Y-72996987D01*
X121716566Y-72785225D01*
X121364419Y-72639361D01*
X120990581Y-72565000D01*
X120609419Y-72565000D01*
X120235581Y-72639361D01*
X119883434Y-72785225D01*
X119566509Y-72996987D01*
X119296987Y-73266509D01*
X119085225Y-73583434D01*
X118939361Y-73935581D01*
X118865000Y-74309419D01*
X86127000Y-74309419D01*
X86127000Y-60309419D01*
X96665000Y-60309419D01*
X96665000Y-60690581D01*
X96739361Y-61064419D01*
X96885225Y-61416566D01*
X97096987Y-61733491D01*
X97366509Y-62003013D01*
X97683434Y-62214775D01*
X98035581Y-62360639D01*
X98409419Y-62435000D01*
X98790581Y-62435000D01*
X99164419Y-62360639D01*
X99516566Y-62214775D01*
X99833491Y-62003013D01*
X100103013Y-61733491D01*
X100314775Y-61416566D01*
X100460639Y-61064419D01*
X100535000Y-60690581D01*
X100535000Y-60309419D01*
X100460639Y-59935581D01*
X100314775Y-59583434D01*
X100103013Y-59266509D01*
X99833491Y-58996987D01*
X99516566Y-58785225D01*
X99164419Y-58639361D01*
X98790581Y-58565000D01*
X98409419Y-58565000D01*
X98035581Y-58639361D01*
X97683434Y-58785225D01*
X97366509Y-58996987D01*
X97096987Y-59266509D01*
X96885225Y-59583434D01*
X96739361Y-59935581D01*
X96665000Y-60309419D01*
X86127000Y-60309419D01*
X86127000Y-48779872D01*
X86765000Y-48779872D01*
X86765000Y-49220128D01*
X86850890Y-49651925D01*
X87019369Y-50058669D01*
X87263962Y-50424729D01*
X87575271Y-50736038D01*
X87941331Y-50980631D01*
X88348075Y-51149110D01*
X88779872Y-51235000D01*
X89220128Y-51235000D01*
X89651925Y-51149110D01*
X89790638Y-51091653D01*
X102037952Y-51091653D01*
X102193962Y-51407214D01*
X102568745Y-51598020D01*
X102973551Y-51712044D01*
X103392824Y-51744902D01*
X103810451Y-51695334D01*
X104210383Y-51565243D01*
X104506038Y-51407214D01*
X104662048Y-51091653D01*
X103350000Y-49779605D01*
X102037952Y-51091653D01*
X89790638Y-51091653D01*
X90058669Y-50980631D01*
X90424729Y-50736038D01*
X90736038Y-50424729D01*
X90980631Y-50058669D01*
X91149110Y-49651925D01*
X91150920Y-49642824D01*
X101205098Y-49642824D01*
X101254666Y-50060451D01*
X101384757Y-50460383D01*
X101542786Y-50756038D01*
X101858347Y-50912048D01*
X103170395Y-49600000D01*
X103529605Y-49600000D01*
X104841653Y-50912048D01*
X105157214Y-50756038D01*
X105348020Y-50381255D01*
X105462044Y-49976449D01*
X105494902Y-49557176D01*
X105445334Y-49139549D01*
X105315243Y-48739617D01*
X105157214Y-48443962D01*
X104841653Y-48287952D01*
X103529605Y-49600000D01*
X103170395Y-49600000D01*
X101858347Y-48287952D01*
X101542786Y-48443962D01*
X101351980Y-48818745D01*
X101237956Y-49223551D01*
X101205098Y-49642824D01*
X91150920Y-49642824D01*
X91235000Y-49220128D01*
X91235000Y-48779872D01*
X91149110Y-48348075D01*
X91049812Y-48108347D01*
X102037952Y-48108347D01*
X103350000Y-49420395D01*
X104662048Y-48108347D01*
X104657922Y-48100000D01*
X113911928Y-48100000D01*
X113911928Y-51100000D01*
X113924188Y-51224482D01*
X113960498Y-51344180D01*
X114019463Y-51454494D01*
X114098815Y-51551185D01*
X114195506Y-51630537D01*
X114305820Y-51689502D01*
X114425518Y-51725812D01*
X114550000Y-51738072D01*
X117550000Y-51738072D01*
X117674482Y-51725812D01*
X117794180Y-51689502D01*
X117904494Y-51630537D01*
X118001185Y-51551185D01*
X118080537Y-51454494D01*
X118139502Y-51344180D01*
X118175812Y-51224482D01*
X118188072Y-51100000D01*
X118188072Y-50193137D01*
X127715000Y-50193137D01*
X127715000Y-50406863D01*
X127756696Y-50616483D01*
X127838485Y-50813940D01*
X127957225Y-50991647D01*
X128108353Y-51142775D01*
X128286060Y-51261515D01*
X128483517Y-51343304D01*
X128693137Y-51385000D01*
X128906863Y-51385000D01*
X129116483Y-51343304D01*
X129313940Y-51261515D01*
X129491647Y-51142775D01*
X129642775Y-50991647D01*
X129761515Y-50813940D01*
X129843304Y-50616483D01*
X129885000Y-50406863D01*
X129885000Y-50193137D01*
X134515000Y-50193137D01*
X134515000Y-50406863D01*
X134556696Y-50616483D01*
X134638485Y-50813940D01*
X134757225Y-50991647D01*
X134908353Y-51142775D01*
X135086060Y-51261515D01*
X135283517Y-51343304D01*
X135493137Y-51385000D01*
X135706863Y-51385000D01*
X135916483Y-51343304D01*
X136113940Y-51261515D01*
X136291647Y-51142775D01*
X136442775Y-50991647D01*
X136561515Y-50813940D01*
X136643304Y-50616483D01*
X136685000Y-50406863D01*
X136685000Y-50193137D01*
X136643304Y-49983517D01*
X136561515Y-49786060D01*
X136442775Y-49608353D01*
X136291647Y-49457225D01*
X136113940Y-49338485D01*
X135916483Y-49256696D01*
X135706863Y-49215000D01*
X135493137Y-49215000D01*
X135283517Y-49256696D01*
X135086060Y-49338485D01*
X134908353Y-49457225D01*
X134757225Y-49608353D01*
X134638485Y-49786060D01*
X134556696Y-49983517D01*
X134515000Y-50193137D01*
X129885000Y-50193137D01*
X129843304Y-49983517D01*
X129761515Y-49786060D01*
X129642775Y-49608353D01*
X129491647Y-49457225D01*
X129313940Y-49338485D01*
X129116483Y-49256696D01*
X128906863Y-49215000D01*
X128693137Y-49215000D01*
X128483517Y-49256696D01*
X128286060Y-49338485D01*
X128108353Y-49457225D01*
X127957225Y-49608353D01*
X127838485Y-49786060D01*
X127756696Y-49983517D01*
X127715000Y-50193137D01*
X118188072Y-50193137D01*
X118188072Y-48100000D01*
X118175812Y-47975518D01*
X118139502Y-47855820D01*
X118080537Y-47745506D01*
X118001185Y-47648815D01*
X117904494Y-47569463D01*
X117794180Y-47510498D01*
X117674482Y-47474188D01*
X117550000Y-47461928D01*
X114550000Y-47461928D01*
X114425518Y-47474188D01*
X114305820Y-47510498D01*
X114195506Y-47569463D01*
X114098815Y-47648815D01*
X114019463Y-47745506D01*
X113960498Y-47855820D01*
X113924188Y-47975518D01*
X113911928Y-48100000D01*
X104657922Y-48100000D01*
X104506038Y-47792786D01*
X104131255Y-47601980D01*
X103726449Y-47487956D01*
X103307176Y-47455098D01*
X102889549Y-47504666D01*
X102489617Y-47634757D01*
X102193962Y-47792786D01*
X102037952Y-48108347D01*
X91049812Y-48108347D01*
X90980631Y-47941331D01*
X90736038Y-47575271D01*
X90424729Y-47263962D01*
X90058669Y-47019369D01*
X89651925Y-46850890D01*
X89220128Y-46765000D01*
X88779872Y-46765000D01*
X88348075Y-46850890D01*
X87941331Y-47019369D01*
X87575271Y-47263962D01*
X87263962Y-47575271D01*
X87019369Y-47941331D01*
X86850890Y-48348075D01*
X86765000Y-48779872D01*
X86127000Y-48779872D01*
X86127000Y-46127000D01*
X139236899Y-46127000D01*
X139149075Y-46199075D01*
X139149075Y-46199075D01*
G37*
X139149075Y-46199075D02*
X139069723Y-46295766D01*
X139010758Y-46406080D01*
X138974448Y-46525778D01*
X138962188Y-46650260D01*
X138962188Y-52649740D01*
X138974448Y-52774222D01*
X139010758Y-52893920D01*
X139069723Y-53004234D01*
X139149075Y-53100925D01*
X139245766Y-53180277D01*
X139356080Y-53239242D01*
X139475778Y-53275552D01*
X139600260Y-53287812D01*
X141724317Y-53287812D01*
X141727805Y-53323230D01*
X141778412Y-53490053D01*
X141860590Y-53643799D01*
X141943468Y-53744786D01*
X141943471Y-53744789D01*
X141971184Y-53778557D01*
X142004952Y-53806270D01*
X148365260Y-60166579D01*
X148365261Y-62883160D01*
X142033422Y-69215000D01*
X140718450Y-69215000D01*
X140537624Y-69094176D01*
X140394761Y-69035000D01*
X140401939Y-69035000D01*
X140601898Y-68995226D01*
X140790256Y-68917205D01*
X140959774Y-68803937D01*
X141103937Y-68659774D01*
X141217205Y-68490256D01*
X141295226Y-68301898D01*
X141335000Y-68101939D01*
X141335000Y-67898061D01*
X141295226Y-67698102D01*
X141217205Y-67509744D01*
X141103937Y-67340226D01*
X140959774Y-67196063D01*
X140790256Y-67082795D01*
X140601898Y-67004774D01*
X140401939Y-66965000D01*
X140339802Y-66965000D01*
X139063803Y-65689002D01*
X139040001Y-65659999D01*
X138924276Y-65565026D01*
X138792247Y-65494454D01*
X138648986Y-65450997D01*
X138537333Y-65440000D01*
X138537322Y-65440000D01*
X138500000Y-65436324D01*
X138462678Y-65440000D01*
X135303711Y-65440000D01*
X135259774Y-65396063D01*
X135090256Y-65282795D01*
X134901898Y-65204774D01*
X134701939Y-65165000D01*
X134498061Y-65165000D01*
X134298102Y-65204774D01*
X134109744Y-65282795D01*
X133940226Y-65396063D01*
X133796063Y-65540226D01*
X133682795Y-65709744D01*
X133604774Y-65898102D01*
X133565000Y-66098061D01*
X133565000Y-66301939D01*
X133604774Y-66501898D01*
X133682795Y-66690256D01*
X133796063Y-66859774D01*
X133940226Y-67003937D01*
X134109744Y-67117205D01*
X134298102Y-67195226D01*
X134498061Y-67235000D01*
X134701939Y-67235000D01*
X134901898Y-67195226D01*
X135090256Y-67117205D01*
X135259774Y-67003937D01*
X135303711Y-66960000D01*
X138185199Y-66960000D01*
X139265000Y-68039802D01*
X139265000Y-68101939D01*
X139304774Y-68301898D01*
X139382795Y-68490256D01*
X139496063Y-68659774D01*
X139640226Y-68803937D01*
X139809744Y-68917205D01*
X139925131Y-68965000D01*
X139888212Y-68965000D01*
X139668933Y-69008617D01*
X139462376Y-69094176D01*
X139276480Y-69218388D01*
X139118388Y-69376480D01*
X138994176Y-69562376D01*
X138908617Y-69768933D01*
X138865000Y-69988212D01*
X138865000Y-70211788D01*
X138908617Y-70431067D01*
X138994176Y-70637624D01*
X139118388Y-70823520D01*
X139276480Y-70981612D01*
X139462376Y-71105824D01*
X139668933Y-71191383D01*
X139888212Y-71235000D01*
X140111788Y-71235000D01*
X140331067Y-71191383D01*
X140537624Y-71105824D01*
X140718450Y-70985000D01*
X142356531Y-70985000D01*
X142400000Y-70989281D01*
X142443469Y-70985000D01*
X142443477Y-70985000D01*
X142573490Y-70972195D01*
X142740313Y-70921589D01*
X142894059Y-70839411D01*
X143028817Y-70728817D01*
X143056534Y-70695044D01*
X149845309Y-63906270D01*
X149879077Y-63878557D01*
X149910331Y-63840475D01*
X149989671Y-63743799D01*
X150071849Y-63590054D01*
X150122455Y-63423230D01*
X150131499Y-63331399D01*
X150135260Y-63293217D01*
X150135260Y-63293209D01*
X150139541Y-63249740D01*
X150135260Y-63206271D01*
X150135260Y-60685000D01*
X155933422Y-60685000D01*
X159315000Y-64066579D01*
X159315001Y-67615000D01*
X158254790Y-67615000D01*
X158192312Y-67521495D01*
X157978505Y-67307688D01*
X157892169Y-67250000D01*
X157978505Y-67192312D01*
X158192312Y-66978505D01*
X158360299Y-66727095D01*
X158476011Y-66447743D01*
X158535000Y-66151184D01*
X158535000Y-65848816D01*
X158476011Y-65552257D01*
X158360299Y-65272905D01*
X158192312Y-65021495D01*
X157978505Y-64807688D01*
X157727095Y-64639701D01*
X157447743Y-64523989D01*
X157151184Y-64465000D01*
X156848816Y-64465000D01*
X156552257Y-64523989D01*
X156272905Y-64639701D01*
X156021495Y-64807688D01*
X155807688Y-65021495D01*
X155639701Y-65272905D01*
X155523989Y-65552257D01*
X155465000Y-65848816D01*
X155465000Y-66151184D01*
X155516269Y-66408930D01*
X150185199Y-71740000D01*
X136403711Y-71740000D01*
X136359774Y-71696063D01*
X136190256Y-71582795D01*
X136001898Y-71504774D01*
X135801939Y-71465000D01*
X135598061Y-71465000D01*
X135398102Y-71504774D01*
X135209744Y-71582795D01*
X135040226Y-71696063D01*
X134896063Y-71840226D01*
X134782795Y-72009744D01*
X134704774Y-72198102D01*
X134665000Y-72398061D01*
X134665000Y-72601939D01*
X134704774Y-72801898D01*
X134782795Y-72990256D01*
X134896063Y-73159774D01*
X135040226Y-73303937D01*
X135209744Y-73417205D01*
X135398102Y-73495226D01*
X135598061Y-73535000D01*
X135801939Y-73535000D01*
X136001898Y-73495226D01*
X136190256Y-73417205D01*
X136359774Y-73303937D01*
X136403711Y-73260000D01*
X150462678Y-73260000D01*
X150500000Y-73263676D01*
X150537322Y-73260000D01*
X150537333Y-73260000D01*
X150648986Y-73249003D01*
X150792247Y-73205546D01*
X150924276Y-73134974D01*
X151040001Y-73040001D01*
X151063804Y-73010997D01*
X155465000Y-68609802D01*
X155465000Y-68651184D01*
X155523989Y-68947743D01*
X155639701Y-69227095D01*
X155807688Y-69478505D01*
X156021495Y-69692312D01*
X156107831Y-69750000D01*
X156021495Y-69807688D01*
X155807688Y-70021495D01*
X155639701Y-70272905D01*
X155523989Y-70552257D01*
X155465000Y-70848816D01*
X155465000Y-71151184D01*
X155523989Y-71447743D01*
X155639701Y-71727095D01*
X155807688Y-71978505D01*
X156021495Y-72192312D01*
X156272905Y-72360299D01*
X156552257Y-72476011D01*
X156848816Y-72535000D01*
X157151184Y-72535000D01*
X157447743Y-72476011D01*
X157727095Y-72360299D01*
X157978505Y-72192312D01*
X158192312Y-71978505D01*
X158360299Y-71727095D01*
X158476011Y-71447743D01*
X158535000Y-71151184D01*
X158535000Y-70848816D01*
X158476011Y-70552257D01*
X158360299Y-70272905D01*
X158192312Y-70021495D01*
X157978505Y-69807688D01*
X157892169Y-69750000D01*
X157978505Y-69692312D01*
X158192312Y-69478505D01*
X158254790Y-69385000D01*
X159315000Y-69385000D01*
X159315001Y-80933420D01*
X158512537Y-81735885D01*
X158476011Y-81552257D01*
X158360299Y-81272905D01*
X158192312Y-81021495D01*
X157978505Y-80807688D01*
X157727095Y-80639701D01*
X157447743Y-80523989D01*
X157151184Y-80465000D01*
X156848816Y-80465000D01*
X156552257Y-80523989D01*
X156272905Y-80639701D01*
X156021495Y-80807688D01*
X155807688Y-81021495D01*
X155639701Y-81272905D01*
X155523989Y-81552257D01*
X155465000Y-81848816D01*
X155465000Y-82151184D01*
X155523989Y-82447743D01*
X155639701Y-82727095D01*
X155807688Y-82978505D01*
X156021495Y-83192312D01*
X156107831Y-83250000D01*
X156021495Y-83307688D01*
X155807688Y-83521495D01*
X155639701Y-83772905D01*
X155523989Y-84052257D01*
X155465000Y-84348816D01*
X155465000Y-84651184D01*
X155523989Y-84947743D01*
X155639701Y-85227095D01*
X155807688Y-85478505D01*
X156021495Y-85692312D01*
X156107831Y-85750000D01*
X156021495Y-85807688D01*
X155807688Y-86021495D01*
X155639701Y-86272905D01*
X155523989Y-86552257D01*
X155465000Y-86848816D01*
X155465000Y-87151184D01*
X155523989Y-87447743D01*
X155639701Y-87727095D01*
X155807688Y-87978505D01*
X156021495Y-88192312D01*
X156272905Y-88360299D01*
X156552257Y-88476011D01*
X156848816Y-88535000D01*
X157151184Y-88535000D01*
X157447743Y-88476011D01*
X157727095Y-88360299D01*
X157978505Y-88192312D01*
X158192312Y-87978505D01*
X158360299Y-87727095D01*
X158476011Y-87447743D01*
X158535000Y-87151184D01*
X158535000Y-86848816D01*
X158476011Y-86552257D01*
X158360299Y-86272905D01*
X158192312Y-86021495D01*
X157978505Y-85807688D01*
X157892169Y-85750000D01*
X157978505Y-85692312D01*
X158192312Y-85478505D01*
X158360299Y-85227095D01*
X158476011Y-84947743D01*
X158535000Y-84651184D01*
X158535000Y-84348816D01*
X158513060Y-84238518D01*
X160795049Y-81956530D01*
X160828817Y-81928817D01*
X160939411Y-81794059D01*
X161021589Y-81640313D01*
X161072195Y-81473490D01*
X161085000Y-81343477D01*
X161085000Y-81343467D01*
X161089281Y-81300001D01*
X161085000Y-81256535D01*
X161085000Y-79840475D01*
X161365000Y-79840475D01*
X161365000Y-80359525D01*
X161466261Y-80868601D01*
X161664893Y-81348141D01*
X161953262Y-81779715D01*
X162320285Y-82146738D01*
X162751859Y-82435107D01*
X163231399Y-82633739D01*
X163740475Y-82735000D01*
X164259525Y-82735000D01*
X164768601Y-82633739D01*
X165248141Y-82435107D01*
X165679715Y-82146738D01*
X166046738Y-81779715D01*
X166335107Y-81348141D01*
X166533739Y-80868601D01*
X166635000Y-80359525D01*
X166635000Y-79840475D01*
X166533739Y-79331399D01*
X166335107Y-78851859D01*
X166046738Y-78420285D01*
X165679715Y-78053262D01*
X165248141Y-77764893D01*
X164768601Y-77566261D01*
X164259525Y-77465000D01*
X163740475Y-77465000D01*
X163231399Y-77566261D01*
X162751859Y-77764893D01*
X162320285Y-78053262D01*
X161953262Y-78420285D01*
X161664893Y-78851859D01*
X161466261Y-79331399D01*
X161365000Y-79840475D01*
X161085000Y-79840475D01*
X161085000Y-72640475D01*
X161365000Y-72640475D01*
X161365000Y-73159525D01*
X161466261Y-73668601D01*
X161664893Y-74148141D01*
X161953262Y-74579715D01*
X162320285Y-74946738D01*
X162751859Y-75235107D01*
X163231399Y-75433739D01*
X163740475Y-75535000D01*
X164259525Y-75535000D01*
X164768601Y-75433739D01*
X165248141Y-75235107D01*
X165679715Y-74946738D01*
X166046738Y-74579715D01*
X166335107Y-74148141D01*
X166533739Y-73668601D01*
X166635000Y-73159525D01*
X166635000Y-72640475D01*
X166533739Y-72131399D01*
X166335107Y-71651859D01*
X166046738Y-71220285D01*
X165679715Y-70853262D01*
X165248141Y-70564893D01*
X164768601Y-70366261D01*
X164259525Y-70265000D01*
X163740475Y-70265000D01*
X163231399Y-70366261D01*
X162751859Y-70564893D01*
X162320285Y-70853262D01*
X161953262Y-71220285D01*
X161664893Y-71651859D01*
X161466261Y-72131399D01*
X161365000Y-72640475D01*
X161085000Y-72640475D01*
X161085000Y-68543477D01*
X161089282Y-68500000D01*
X161085000Y-68456523D01*
X161085000Y-63840475D01*
X161365000Y-63840475D01*
X161365000Y-64359525D01*
X161466261Y-64868601D01*
X161664893Y-65348141D01*
X161953262Y-65779715D01*
X162320285Y-66146738D01*
X162751859Y-66435107D01*
X163231399Y-66633739D01*
X163740475Y-66735000D01*
X164259525Y-66735000D01*
X164768601Y-66633739D01*
X165248141Y-66435107D01*
X165679715Y-66146738D01*
X166046738Y-65779715D01*
X166335107Y-65348141D01*
X166533739Y-64868601D01*
X166635000Y-64359525D01*
X166635000Y-63840475D01*
X166533739Y-63331399D01*
X166335107Y-62851859D01*
X166046738Y-62420285D01*
X165679715Y-62053262D01*
X165248141Y-61764893D01*
X164768601Y-61566261D01*
X164259525Y-61465000D01*
X163740475Y-61465000D01*
X163231399Y-61566261D01*
X162751859Y-61764893D01*
X162320285Y-62053262D01*
X161953262Y-62420285D01*
X161664893Y-62851859D01*
X161466261Y-63331399D01*
X161365000Y-63840475D01*
X161085000Y-63840475D01*
X161085000Y-63743469D01*
X161089281Y-63700000D01*
X161085000Y-63656531D01*
X161085000Y-63656523D01*
X161072195Y-63526510D01*
X161021589Y-63359687D01*
X160939411Y-63205941D01*
X160828817Y-63071183D01*
X160795050Y-63043472D01*
X156956534Y-59204956D01*
X156928817Y-59171183D01*
X156794059Y-59060589D01*
X156640313Y-58978411D01*
X156473490Y-58927805D01*
X156343477Y-58915000D01*
X156343469Y-58915000D01*
X156300000Y-58910719D01*
X156256531Y-58915000D01*
X149616839Y-58915000D01*
X147342314Y-56640475D01*
X161365000Y-56640475D01*
X161365000Y-57159525D01*
X161466261Y-57668601D01*
X161664893Y-58148141D01*
X161953262Y-58579715D01*
X162320285Y-58946738D01*
X162751859Y-59235107D01*
X163231399Y-59433739D01*
X163740475Y-59535000D01*
X164259525Y-59535000D01*
X164768601Y-59433739D01*
X165248141Y-59235107D01*
X165679715Y-58946738D01*
X166046738Y-58579715D01*
X166335107Y-58148141D01*
X166533739Y-57668601D01*
X166635000Y-57159525D01*
X166635000Y-56640475D01*
X166533739Y-56131399D01*
X166335107Y-55651859D01*
X166046738Y-55220285D01*
X165679715Y-54853262D01*
X165248141Y-54564893D01*
X164768601Y-54366261D01*
X164259525Y-54265000D01*
X163740475Y-54265000D01*
X163231399Y-54366261D01*
X162751859Y-54564893D01*
X162320285Y-54853262D01*
X161953262Y-55220285D01*
X161664893Y-55651859D01*
X161466261Y-56131399D01*
X161365000Y-56640475D01*
X147342314Y-56640475D01*
X143989650Y-53287812D01*
X145599740Y-53287812D01*
X145724222Y-53275552D01*
X145843920Y-53239242D01*
X145954234Y-53180277D01*
X146050925Y-53100925D01*
X146130277Y-53004234D01*
X146189242Y-52893920D01*
X146225552Y-52774222D01*
X146237812Y-52649740D01*
X146237812Y-46650260D01*
X146225552Y-46525778D01*
X146189242Y-46406080D01*
X146130277Y-46295766D01*
X146050925Y-46199075D01*
X145963101Y-46127000D01*
X149300254Y-46127000D01*
X149159785Y-46154941D01*
X148498305Y-46428935D01*
X147902988Y-46826713D01*
X147396713Y-47332988D01*
X146998935Y-47928305D01*
X146724941Y-48589785D01*
X146585260Y-49292009D01*
X146585260Y-50007991D01*
X146724941Y-50710215D01*
X146998935Y-51371695D01*
X147396713Y-51967012D01*
X147902988Y-52473287D01*
X148498305Y-52871065D01*
X149159785Y-53145059D01*
X149862009Y-53284740D01*
X150577991Y-53284740D01*
X151280215Y-53145059D01*
X151941695Y-52871065D01*
X152537012Y-52473287D01*
X153043287Y-51967012D01*
X153441065Y-51371695D01*
X153715059Y-50710215D01*
X153854740Y-50007991D01*
X153854740Y-49848816D01*
X155465000Y-49848816D01*
X155465000Y-50151184D01*
X155523989Y-50447743D01*
X155639701Y-50727095D01*
X155807688Y-50978505D01*
X156021495Y-51192312D01*
X156107831Y-51250000D01*
X156021495Y-51307688D01*
X155807688Y-51521495D01*
X155639701Y-51772905D01*
X155523989Y-52052257D01*
X155465000Y-52348816D01*
X155465000Y-52651184D01*
X155523989Y-52947743D01*
X155639701Y-53227095D01*
X155807688Y-53478505D01*
X156021495Y-53692312D01*
X156107831Y-53750000D01*
X156021495Y-53807688D01*
X155807688Y-54021495D01*
X155639701Y-54272905D01*
X155523989Y-54552257D01*
X155465000Y-54848816D01*
X155465000Y-55151184D01*
X155523989Y-55447743D01*
X155639701Y-55727095D01*
X155807688Y-55978505D01*
X156021495Y-56192312D01*
X156272905Y-56360299D01*
X156552257Y-56476011D01*
X156848816Y-56535000D01*
X157151184Y-56535000D01*
X157447743Y-56476011D01*
X157727095Y-56360299D01*
X157978505Y-56192312D01*
X158192312Y-55978505D01*
X158360299Y-55727095D01*
X158476011Y-55447743D01*
X158535000Y-55151184D01*
X158535000Y-54848816D01*
X158476011Y-54552257D01*
X158360299Y-54272905D01*
X158192312Y-54021495D01*
X157978505Y-53807688D01*
X157892169Y-53750000D01*
X157978505Y-53692312D01*
X158192312Y-53478505D01*
X158360299Y-53227095D01*
X158476011Y-52947743D01*
X158535000Y-52651184D01*
X158535000Y-52348816D01*
X158476011Y-52052257D01*
X158360299Y-51772905D01*
X158192312Y-51521495D01*
X157978505Y-51307688D01*
X157892169Y-51250000D01*
X157978505Y-51192312D01*
X158192312Y-50978505D01*
X158360299Y-50727095D01*
X158476011Y-50447743D01*
X158535000Y-50151184D01*
X158535000Y-49848816D01*
X158476011Y-49552257D01*
X158360299Y-49272905D01*
X158192312Y-49021495D01*
X157978505Y-48807688D01*
X157727095Y-48639701D01*
X157447743Y-48523989D01*
X157151184Y-48465000D01*
X156848816Y-48465000D01*
X156552257Y-48523989D01*
X156272905Y-48639701D01*
X156021495Y-48807688D01*
X155807688Y-49021495D01*
X155639701Y-49272905D01*
X155523989Y-49552257D01*
X155465000Y-49848816D01*
X153854740Y-49848816D01*
X153854740Y-49292009D01*
X153715059Y-48589785D01*
X153441065Y-47928305D01*
X153043287Y-47332988D01*
X152537012Y-46826713D01*
X151941695Y-46428935D01*
X151280215Y-46154941D01*
X151139746Y-46127000D01*
X162246547Y-46127000D01*
X161953262Y-46420285D01*
X161664893Y-46851859D01*
X161466261Y-47331399D01*
X161365000Y-47840475D01*
X161365000Y-48359525D01*
X161466261Y-48868601D01*
X161664893Y-49348141D01*
X161953262Y-49779715D01*
X162320285Y-50146738D01*
X162751859Y-50435107D01*
X163231399Y-50633739D01*
X163740475Y-50735000D01*
X164259525Y-50735000D01*
X164768601Y-50633739D01*
X165248141Y-50435107D01*
X165679715Y-50146738D01*
X166046738Y-49779715D01*
X166335107Y-49348141D01*
X166533739Y-48868601D01*
X166551388Y-48779872D01*
X172765000Y-48779872D01*
X172765000Y-49220128D01*
X172850890Y-49651925D01*
X173019369Y-50058669D01*
X173263962Y-50424729D01*
X173575271Y-50736038D01*
X173941331Y-50980631D01*
X174348075Y-51149110D01*
X174779872Y-51235000D01*
X175220128Y-51235000D01*
X175651925Y-51149110D01*
X176058669Y-50980631D01*
X176424729Y-50736038D01*
X176736038Y-50424729D01*
X176980631Y-50058669D01*
X177149110Y-49651925D01*
X177235000Y-49220128D01*
X177235000Y-48779872D01*
X177149110Y-48348075D01*
X176980631Y-47941331D01*
X176736038Y-47575271D01*
X176424729Y-47263962D01*
X176058669Y-47019369D01*
X175651925Y-46850890D01*
X175220128Y-46765000D01*
X174779872Y-46765000D01*
X174348075Y-46850890D01*
X173941331Y-47019369D01*
X173575271Y-47263962D01*
X173263962Y-47575271D01*
X173019369Y-47941331D01*
X172850890Y-48348075D01*
X172765000Y-48779872D01*
X166551388Y-48779872D01*
X166635000Y-48359525D01*
X166635000Y-47840475D01*
X166533739Y-47331399D01*
X166335107Y-46851859D01*
X166046738Y-46420285D01*
X165753453Y-46127000D01*
X177873000Y-46127000D01*
X177873000Y-100873000D01*
X86127000Y-100873000D01*
X86127000Y-97779872D01*
X86765000Y-97779872D01*
X86765000Y-98220128D01*
X86850890Y-98651925D01*
X87019369Y-99058669D01*
X87263962Y-99424729D01*
X87575271Y-99736038D01*
X87941331Y-99980631D01*
X88348075Y-100149110D01*
X88779872Y-100235000D01*
X89220128Y-100235000D01*
X89651925Y-100149110D01*
X90058669Y-99980631D01*
X90424729Y-99736038D01*
X90736038Y-99424729D01*
X90980631Y-99058669D01*
X91149110Y-98651925D01*
X91235000Y-98220128D01*
X91235000Y-97779872D01*
X172765000Y-97779872D01*
X172765000Y-98220128D01*
X172850890Y-98651925D01*
X173019369Y-99058669D01*
X173263962Y-99424729D01*
X173575271Y-99736038D01*
X173941331Y-99980631D01*
X174348075Y-100149110D01*
X174779872Y-100235000D01*
X175220128Y-100235000D01*
X175651925Y-100149110D01*
X176058669Y-99980631D01*
X176424729Y-99736038D01*
X176736038Y-99424729D01*
X176980631Y-99058669D01*
X177149110Y-98651925D01*
X177235000Y-98220128D01*
X177235000Y-97779872D01*
X177149110Y-97348075D01*
X176980631Y-96941331D01*
X176736038Y-96575271D01*
X176424729Y-96263962D01*
X176058669Y-96019369D01*
X175651925Y-95850890D01*
X175220128Y-95765000D01*
X174779872Y-95765000D01*
X174348075Y-95850890D01*
X173941331Y-96019369D01*
X173575271Y-96263962D01*
X173263962Y-96575271D01*
X173019369Y-96941331D01*
X172850890Y-97348075D01*
X172765000Y-97779872D01*
X91235000Y-97779872D01*
X91149110Y-97348075D01*
X90980631Y-96941331D01*
X90736038Y-96575271D01*
X90424729Y-96263962D01*
X90058669Y-96019369D01*
X89651925Y-95850890D01*
X89220128Y-95765000D01*
X88779872Y-95765000D01*
X88348075Y-95850890D01*
X87941331Y-96019369D01*
X87575271Y-96263962D01*
X87263962Y-96575271D01*
X87019369Y-96941331D01*
X86850890Y-97348075D01*
X86765000Y-97779872D01*
X86127000Y-97779872D01*
X86127000Y-88309419D01*
X96665000Y-88309419D01*
X96665000Y-88690581D01*
X96739361Y-89064419D01*
X96885225Y-89416566D01*
X97096987Y-89733491D01*
X97366509Y-90003013D01*
X97683434Y-90214775D01*
X98035581Y-90360639D01*
X98409419Y-90435000D01*
X98790581Y-90435000D01*
X99164419Y-90360639D01*
X99516566Y-90214775D01*
X99833491Y-90003013D01*
X100103013Y-89733491D01*
X100314775Y-89416566D01*
X100460639Y-89064419D01*
X100535000Y-88690581D01*
X100535000Y-88640475D01*
X161365000Y-88640475D01*
X161365000Y-89159525D01*
X161466261Y-89668601D01*
X161664893Y-90148141D01*
X161953262Y-90579715D01*
X162320285Y-90946738D01*
X162751859Y-91235107D01*
X163231399Y-91433739D01*
X163740475Y-91535000D01*
X164259525Y-91535000D01*
X164768601Y-91433739D01*
X165248141Y-91235107D01*
X165679715Y-90946738D01*
X166046738Y-90579715D01*
X166335107Y-90148141D01*
X166533739Y-89668601D01*
X166635000Y-89159525D01*
X166635000Y-88640475D01*
X166533739Y-88131399D01*
X166335107Y-87651859D01*
X166046738Y-87220285D01*
X165679715Y-86853262D01*
X165248141Y-86564893D01*
X164768601Y-86366261D01*
X164259525Y-86265000D01*
X163740475Y-86265000D01*
X163231399Y-86366261D01*
X162751859Y-86564893D01*
X162320285Y-86853262D01*
X161953262Y-87220285D01*
X161664893Y-87651859D01*
X161466261Y-88131399D01*
X161365000Y-88640475D01*
X100535000Y-88640475D01*
X100535000Y-88309419D01*
X100460639Y-87935581D01*
X100314775Y-87583434D01*
X100103013Y-87266509D01*
X99833491Y-86996987D01*
X99516566Y-86785225D01*
X99164419Y-86639361D01*
X98790581Y-86565000D01*
X98409419Y-86565000D01*
X98035581Y-86639361D01*
X97683434Y-86785225D01*
X97366509Y-86996987D01*
X97096987Y-87266509D01*
X96885225Y-87583434D01*
X96739361Y-87935581D01*
X96665000Y-88309419D01*
X86127000Y-88309419D01*
X86127000Y-74309419D01*
X118865000Y-74309419D01*
X118865000Y-74690581D01*
X118939361Y-75064419D01*
X119085225Y-75416566D01*
X119296987Y-75733491D01*
X119566509Y-76003013D01*
X119883434Y-76214775D01*
X120235581Y-76360639D01*
X120609419Y-76435000D01*
X120990581Y-76435000D01*
X121364419Y-76360639D01*
X121716566Y-76214775D01*
X122033491Y-76003013D01*
X122303013Y-75733491D01*
X122514775Y-75416566D01*
X122660639Y-75064419D01*
X122735000Y-74690581D01*
X122735000Y-74309419D01*
X122660639Y-73935581D01*
X122514775Y-73583434D01*
X122303013Y-73266509D01*
X122033491Y-72996987D01*
X121716566Y-72785225D01*
X121364419Y-72639361D01*
X120990581Y-72565000D01*
X120609419Y-72565000D01*
X120235581Y-72639361D01*
X119883434Y-72785225D01*
X119566509Y-72996987D01*
X119296987Y-73266509D01*
X119085225Y-73583434D01*
X118939361Y-73935581D01*
X118865000Y-74309419D01*
X86127000Y-74309419D01*
X86127000Y-60309419D01*
X96665000Y-60309419D01*
X96665000Y-60690581D01*
X96739361Y-61064419D01*
X96885225Y-61416566D01*
X97096987Y-61733491D01*
X97366509Y-62003013D01*
X97683434Y-62214775D01*
X98035581Y-62360639D01*
X98409419Y-62435000D01*
X98790581Y-62435000D01*
X99164419Y-62360639D01*
X99516566Y-62214775D01*
X99833491Y-62003013D01*
X100103013Y-61733491D01*
X100314775Y-61416566D01*
X100460639Y-61064419D01*
X100535000Y-60690581D01*
X100535000Y-60309419D01*
X100460639Y-59935581D01*
X100314775Y-59583434D01*
X100103013Y-59266509D01*
X99833491Y-58996987D01*
X99516566Y-58785225D01*
X99164419Y-58639361D01*
X98790581Y-58565000D01*
X98409419Y-58565000D01*
X98035581Y-58639361D01*
X97683434Y-58785225D01*
X97366509Y-58996987D01*
X97096987Y-59266509D01*
X96885225Y-59583434D01*
X96739361Y-59935581D01*
X96665000Y-60309419D01*
X86127000Y-60309419D01*
X86127000Y-48779872D01*
X86765000Y-48779872D01*
X86765000Y-49220128D01*
X86850890Y-49651925D01*
X87019369Y-50058669D01*
X87263962Y-50424729D01*
X87575271Y-50736038D01*
X87941331Y-50980631D01*
X88348075Y-51149110D01*
X88779872Y-51235000D01*
X89220128Y-51235000D01*
X89651925Y-51149110D01*
X89790638Y-51091653D01*
X102037952Y-51091653D01*
X102193962Y-51407214D01*
X102568745Y-51598020D01*
X102973551Y-51712044D01*
X103392824Y-51744902D01*
X103810451Y-51695334D01*
X104210383Y-51565243D01*
X104506038Y-51407214D01*
X104662048Y-51091653D01*
X103350000Y-49779605D01*
X102037952Y-51091653D01*
X89790638Y-51091653D01*
X90058669Y-50980631D01*
X90424729Y-50736038D01*
X90736038Y-50424729D01*
X90980631Y-50058669D01*
X91149110Y-49651925D01*
X91150920Y-49642824D01*
X101205098Y-49642824D01*
X101254666Y-50060451D01*
X101384757Y-50460383D01*
X101542786Y-50756038D01*
X101858347Y-50912048D01*
X103170395Y-49600000D01*
X103529605Y-49600000D01*
X104841653Y-50912048D01*
X105157214Y-50756038D01*
X105348020Y-50381255D01*
X105462044Y-49976449D01*
X105494902Y-49557176D01*
X105445334Y-49139549D01*
X105315243Y-48739617D01*
X105157214Y-48443962D01*
X104841653Y-48287952D01*
X103529605Y-49600000D01*
X103170395Y-49600000D01*
X101858347Y-48287952D01*
X101542786Y-48443962D01*
X101351980Y-48818745D01*
X101237956Y-49223551D01*
X101205098Y-49642824D01*
X91150920Y-49642824D01*
X91235000Y-49220128D01*
X91235000Y-48779872D01*
X91149110Y-48348075D01*
X91049812Y-48108347D01*
X102037952Y-48108347D01*
X103350000Y-49420395D01*
X104662048Y-48108347D01*
X104657922Y-48100000D01*
X113911928Y-48100000D01*
X113911928Y-51100000D01*
X113924188Y-51224482D01*
X113960498Y-51344180D01*
X114019463Y-51454494D01*
X114098815Y-51551185D01*
X114195506Y-51630537D01*
X114305820Y-51689502D01*
X114425518Y-51725812D01*
X114550000Y-51738072D01*
X117550000Y-51738072D01*
X117674482Y-51725812D01*
X117794180Y-51689502D01*
X117904494Y-51630537D01*
X118001185Y-51551185D01*
X118080537Y-51454494D01*
X118139502Y-51344180D01*
X118175812Y-51224482D01*
X118188072Y-51100000D01*
X118188072Y-50193137D01*
X127715000Y-50193137D01*
X127715000Y-50406863D01*
X127756696Y-50616483D01*
X127838485Y-50813940D01*
X127957225Y-50991647D01*
X128108353Y-51142775D01*
X128286060Y-51261515D01*
X128483517Y-51343304D01*
X128693137Y-51385000D01*
X128906863Y-51385000D01*
X129116483Y-51343304D01*
X129313940Y-51261515D01*
X129491647Y-51142775D01*
X129642775Y-50991647D01*
X129761515Y-50813940D01*
X129843304Y-50616483D01*
X129885000Y-50406863D01*
X129885000Y-50193137D01*
X134515000Y-50193137D01*
X134515000Y-50406863D01*
X134556696Y-50616483D01*
X134638485Y-50813940D01*
X134757225Y-50991647D01*
X134908353Y-51142775D01*
X135086060Y-51261515D01*
X135283517Y-51343304D01*
X135493137Y-51385000D01*
X135706863Y-51385000D01*
X135916483Y-51343304D01*
X136113940Y-51261515D01*
X136291647Y-51142775D01*
X136442775Y-50991647D01*
X136561515Y-50813940D01*
X136643304Y-50616483D01*
X136685000Y-50406863D01*
X136685000Y-50193137D01*
X136643304Y-49983517D01*
X136561515Y-49786060D01*
X136442775Y-49608353D01*
X136291647Y-49457225D01*
X136113940Y-49338485D01*
X135916483Y-49256696D01*
X135706863Y-49215000D01*
X135493137Y-49215000D01*
X135283517Y-49256696D01*
X135086060Y-49338485D01*
X134908353Y-49457225D01*
X134757225Y-49608353D01*
X134638485Y-49786060D01*
X134556696Y-49983517D01*
X134515000Y-50193137D01*
X129885000Y-50193137D01*
X129843304Y-49983517D01*
X129761515Y-49786060D01*
X129642775Y-49608353D01*
X129491647Y-49457225D01*
X129313940Y-49338485D01*
X129116483Y-49256696D01*
X128906863Y-49215000D01*
X128693137Y-49215000D01*
X128483517Y-49256696D01*
X128286060Y-49338485D01*
X128108353Y-49457225D01*
X127957225Y-49608353D01*
X127838485Y-49786060D01*
X127756696Y-49983517D01*
X127715000Y-50193137D01*
X118188072Y-50193137D01*
X118188072Y-48100000D01*
X118175812Y-47975518D01*
X118139502Y-47855820D01*
X118080537Y-47745506D01*
X118001185Y-47648815D01*
X117904494Y-47569463D01*
X117794180Y-47510498D01*
X117674482Y-47474188D01*
X117550000Y-47461928D01*
X114550000Y-47461928D01*
X114425518Y-47474188D01*
X114305820Y-47510498D01*
X114195506Y-47569463D01*
X114098815Y-47648815D01*
X114019463Y-47745506D01*
X113960498Y-47855820D01*
X113924188Y-47975518D01*
X113911928Y-48100000D01*
X104657922Y-48100000D01*
X104506038Y-47792786D01*
X104131255Y-47601980D01*
X103726449Y-47487956D01*
X103307176Y-47455098D01*
X102889549Y-47504666D01*
X102489617Y-47634757D01*
X102193962Y-47792786D01*
X102037952Y-48108347D01*
X91049812Y-48108347D01*
X90980631Y-47941331D01*
X90736038Y-47575271D01*
X90424729Y-47263962D01*
X90058669Y-47019369D01*
X89651925Y-46850890D01*
X89220128Y-46765000D01*
X88779872Y-46765000D01*
X88348075Y-46850890D01*
X87941331Y-47019369D01*
X87575271Y-47263962D01*
X87263962Y-47575271D01*
X87019369Y-47941331D01*
X86850890Y-48348075D01*
X86765000Y-48779872D01*
X86127000Y-48779872D01*
X86127000Y-46127000D01*
X139236899Y-46127000D01*
X139149075Y-46199075D01*
M02*
