M48
; DRILL file {KiCad (5.1.4-0-10_14)} date 2019 October 01, Tuesday 19:18:49
; FORMAT={-:-/ absolute / inch / decimal}
; #@! TF.CreationDate,2019-10-01T19:18:49+02:00
; #@! TF.GenerationSoftware,Kicad,Pcbnew,(5.1.4-0-10_14)
FMAT,2
INCH
T1C0.0157
T2C0.0236
T3C0.0394
T4C0.0945
T5C0.0984
T6C0.0354
T7C0.0787
T8C0.1024
T9C0.1260
%
G90
G05
T1
X3.8386Y-1.8701
X4.2323Y-1.8701
X4.4291Y-1.8701
X5.2165Y-1.8701
X5.2992Y-2.6063
X5.3425Y-2.8543
X5.4134Y-1.8701
X5.5236Y-2.6772
X6.1024Y-1.8701
X6.2992Y-1.8701
X6.6929Y-1.8701
T2
X3.4449Y-2.0669
X3.4449Y-2.2638
X3.4449Y-2.4606
X3.4449Y-2.6575
X3.4449Y-2.8543
X3.4449Y-3.0512
X3.4449Y-3.248
X3.4449Y-3.4449
X3.4449Y-3.6417
X3.6417Y-1.8701
X3.7402Y-3.937
X3.937Y-3.937
X4.1339Y-3.937
X4.3307Y-3.937
X4.5276Y-3.937
X4.7244Y-3.937
X4.9213Y-3.937
X5.1181Y-3.937
X5.315Y-3.937
X5.5118Y-2.7598
X5.5118Y-3.937
X5.6969Y-2.7795
X5.7087Y-3.937
X5.7559Y-2.7795
X5.9055Y-3.937
X6.1024Y-3.937
X6.2992Y-3.937
X6.4961Y-3.937
X6.6929Y-3.937
X6.8898Y-2.1654
X6.8898Y-2.3622
X6.8898Y-2.5591
X6.8898Y-2.7559
X6.8898Y-2.9528
X6.8898Y-3.1496
X6.8898Y-3.3465
X6.8898Y-3.5433
X6.8898Y-3.7402
T3
X6.1811Y-3.2283
X6.1811Y-3.3268
X6.1811Y-3.4252
X6.1811Y-1.9685
X6.1811Y-2.0669
X6.1811Y-2.1654
X6.1811Y-2.5984
X6.1811Y-2.6969
X6.1811Y-2.7953
T4
X4.0689Y-1.9528
X4.5689Y-1.9528
T5
X5.6142Y-1.9547
X5.9142Y-1.9547
T6
X5.0709Y-1.9803
X5.3386Y-1.9803
T7
X6.4567Y-3.1535
X6.4567Y-3.5
X6.4567Y-1.8937
X6.4567Y-2.2402
X6.4567Y-2.5236
X6.4567Y-2.8701
T8
X3.8819Y-2.3819
X3.8819Y-3.4843
X4.7559Y-2.9331
T9
X6.8898Y-3.8583
X3.5039Y-1.9291
X3.5039Y-3.8583
X6.8898Y-1.9291
T0
M30
